G04 #@! TF.GenerationSoftware,KiCad,Pcbnew,(5.1.2-1)-1*
G04 #@! TF.CreationDate,2019-06-14T19:54:31-04:00*
G04 #@! TF.ProjectId,100base-t1-converter,31303062-6173-4652-9d74-312d636f6e76,rev?*
G04 #@! TF.SameCoordinates,Original*
G04 #@! TF.FileFunction,Soldermask,Bot*
G04 #@! TF.FilePolarity,Negative*
%FSLAX46Y46*%
G04 Gerber Fmt 4.6, Leading zero omitted, Abs format (unit mm)*
G04 Created by KiCad (PCBNEW (5.1.2-1)-1) date 2019-06-14 19:54:31*
%MOMM*%
%LPD*%
G04 APERTURE LIST*
%ADD10C,0.100000*%
G04 APERTURE END LIST*
D10*
G36*
X209650442Y-117905518D02*
G01*
X209716627Y-117912037D01*
X209886466Y-117963557D01*
X210042991Y-118047222D01*
X210078729Y-118076552D01*
X210180186Y-118159814D01*
X210263448Y-118261271D01*
X210292778Y-118297009D01*
X210376443Y-118453534D01*
X210427963Y-118623373D01*
X210445359Y-118800000D01*
X210427963Y-118976627D01*
X210376443Y-119146466D01*
X210292778Y-119302991D01*
X210263448Y-119338729D01*
X210180186Y-119440186D01*
X210078729Y-119523448D01*
X210042991Y-119552778D01*
X209886466Y-119636443D01*
X209716627Y-119687963D01*
X209650442Y-119694482D01*
X209584260Y-119701000D01*
X209495740Y-119701000D01*
X209429558Y-119694482D01*
X209363373Y-119687963D01*
X209193534Y-119636443D01*
X209037009Y-119552778D01*
X209001271Y-119523448D01*
X208899814Y-119440186D01*
X208816552Y-119338729D01*
X208787222Y-119302991D01*
X208703557Y-119146466D01*
X208652037Y-118976627D01*
X208634641Y-118800000D01*
X208652037Y-118623373D01*
X208703557Y-118453534D01*
X208787222Y-118297009D01*
X208816552Y-118261271D01*
X208899814Y-118159814D01*
X209001271Y-118076552D01*
X209037009Y-118047222D01*
X209193534Y-117963557D01*
X209363373Y-117912037D01*
X209429558Y-117905518D01*
X209495740Y-117899000D01*
X209584260Y-117899000D01*
X209650442Y-117905518D01*
X209650442Y-117905518D01*
G37*
G36*
X207110442Y-117905518D02*
G01*
X207176627Y-117912037D01*
X207346466Y-117963557D01*
X207502991Y-118047222D01*
X207538729Y-118076552D01*
X207640186Y-118159814D01*
X207723448Y-118261271D01*
X207752778Y-118297009D01*
X207836443Y-118453534D01*
X207887963Y-118623373D01*
X207905359Y-118800000D01*
X207887963Y-118976627D01*
X207836443Y-119146466D01*
X207752778Y-119302991D01*
X207723448Y-119338729D01*
X207640186Y-119440186D01*
X207538729Y-119523448D01*
X207502991Y-119552778D01*
X207346466Y-119636443D01*
X207176627Y-119687963D01*
X207110442Y-119694482D01*
X207044260Y-119701000D01*
X206955740Y-119701000D01*
X206889558Y-119694482D01*
X206823373Y-119687963D01*
X206653534Y-119636443D01*
X206497009Y-119552778D01*
X206461271Y-119523448D01*
X206359814Y-119440186D01*
X206276552Y-119338729D01*
X206247222Y-119302991D01*
X206163557Y-119146466D01*
X206112037Y-118976627D01*
X206094641Y-118800000D01*
X206112037Y-118623373D01*
X206163557Y-118453534D01*
X206247222Y-118297009D01*
X206276552Y-118261271D01*
X206359814Y-118159814D01*
X206461271Y-118076552D01*
X206497009Y-118047222D01*
X206653534Y-117963557D01*
X206823373Y-117912037D01*
X206889558Y-117905518D01*
X206955740Y-117899000D01*
X207044260Y-117899000D01*
X207110442Y-117905518D01*
X207110442Y-117905518D01*
G37*
G36*
X205361000Y-119701000D02*
G01*
X203559000Y-119701000D01*
X203559000Y-117899000D01*
X205361000Y-117899000D01*
X205361000Y-119701000D01*
X205361000Y-119701000D01*
G37*
G36*
X171906564Y-115089389D02*
G01*
X172097833Y-115168615D01*
X172097835Y-115168616D01*
X172109821Y-115176625D01*
X172269973Y-115283635D01*
X172416365Y-115430027D01*
X172531385Y-115602167D01*
X172610611Y-115793436D01*
X172651000Y-115996484D01*
X172651000Y-116203516D01*
X172610611Y-116406564D01*
X172531385Y-116597833D01*
X172531384Y-116597835D01*
X172416365Y-116769973D01*
X172269973Y-116916365D01*
X172097835Y-117031384D01*
X172097834Y-117031385D01*
X172097833Y-117031385D01*
X171906564Y-117110611D01*
X171703516Y-117151000D01*
X171496484Y-117151000D01*
X171293436Y-117110611D01*
X171102167Y-117031385D01*
X171102166Y-117031385D01*
X171102165Y-117031384D01*
X170930027Y-116916365D01*
X170783635Y-116769973D01*
X170668616Y-116597835D01*
X170668615Y-116597833D01*
X170589389Y-116406564D01*
X170549000Y-116203516D01*
X170549000Y-115996484D01*
X170589389Y-115793436D01*
X170668615Y-115602167D01*
X170783635Y-115430027D01*
X170930027Y-115283635D01*
X171090179Y-115176625D01*
X171102165Y-115168616D01*
X171102167Y-115168615D01*
X171293436Y-115089389D01*
X171496484Y-115049000D01*
X171703516Y-115049000D01*
X171906564Y-115089389D01*
X171906564Y-115089389D01*
G37*
G36*
X209650443Y-114105519D02*
G01*
X209716627Y-114112037D01*
X209886466Y-114163557D01*
X210042991Y-114247222D01*
X210078729Y-114276552D01*
X210180186Y-114359814D01*
X210263448Y-114461271D01*
X210292778Y-114497009D01*
X210376443Y-114653534D01*
X210427963Y-114823373D01*
X210445359Y-115000000D01*
X210427963Y-115176627D01*
X210376443Y-115346466D01*
X210292778Y-115502991D01*
X210263448Y-115538729D01*
X210180186Y-115640186D01*
X210078729Y-115723448D01*
X210042991Y-115752778D01*
X209886466Y-115836443D01*
X209716627Y-115887963D01*
X209650443Y-115894481D01*
X209584260Y-115901000D01*
X209495740Y-115901000D01*
X209429557Y-115894481D01*
X209363373Y-115887963D01*
X209193534Y-115836443D01*
X209037009Y-115752778D01*
X209001271Y-115723448D01*
X208899814Y-115640186D01*
X208816552Y-115538729D01*
X208787222Y-115502991D01*
X208703557Y-115346466D01*
X208652037Y-115176627D01*
X208634641Y-115000000D01*
X208652037Y-114823373D01*
X208703557Y-114653534D01*
X208787222Y-114497009D01*
X208816552Y-114461271D01*
X208899814Y-114359814D01*
X209001271Y-114276552D01*
X209037009Y-114247222D01*
X209193534Y-114163557D01*
X209363373Y-114112037D01*
X209429557Y-114105519D01*
X209495740Y-114099000D01*
X209584260Y-114099000D01*
X209650443Y-114105519D01*
X209650443Y-114105519D01*
G37*
G36*
X207110443Y-114105519D02*
G01*
X207176627Y-114112037D01*
X207346466Y-114163557D01*
X207502991Y-114247222D01*
X207538729Y-114276552D01*
X207640186Y-114359814D01*
X207723448Y-114461271D01*
X207752778Y-114497009D01*
X207836443Y-114653534D01*
X207887963Y-114823373D01*
X207905359Y-115000000D01*
X207887963Y-115176627D01*
X207836443Y-115346466D01*
X207752778Y-115502991D01*
X207723448Y-115538729D01*
X207640186Y-115640186D01*
X207538729Y-115723448D01*
X207502991Y-115752778D01*
X207346466Y-115836443D01*
X207176627Y-115887963D01*
X207110443Y-115894481D01*
X207044260Y-115901000D01*
X206955740Y-115901000D01*
X206889557Y-115894481D01*
X206823373Y-115887963D01*
X206653534Y-115836443D01*
X206497009Y-115752778D01*
X206461271Y-115723448D01*
X206359814Y-115640186D01*
X206276552Y-115538729D01*
X206247222Y-115502991D01*
X206163557Y-115346466D01*
X206112037Y-115176627D01*
X206094641Y-115000000D01*
X206112037Y-114823373D01*
X206163557Y-114653534D01*
X206247222Y-114497009D01*
X206276552Y-114461271D01*
X206359814Y-114359814D01*
X206461271Y-114276552D01*
X206497009Y-114247222D01*
X206653534Y-114163557D01*
X206823373Y-114112037D01*
X206889557Y-114105519D01*
X206955740Y-114099000D01*
X207044260Y-114099000D01*
X207110443Y-114105519D01*
X207110443Y-114105519D01*
G37*
G36*
X205361000Y-115901000D02*
G01*
X203559000Y-115901000D01*
X203559000Y-114099000D01*
X205361000Y-114099000D01*
X205361000Y-115901000D01*
X205361000Y-115901000D01*
G37*
G36*
X171906564Y-110089389D02*
G01*
X172097833Y-110168615D01*
X172097835Y-110168616D01*
X172269973Y-110283635D01*
X172416365Y-110430027D01*
X172530775Y-110601253D01*
X172531385Y-110602167D01*
X172610611Y-110793436D01*
X172651000Y-110996484D01*
X172651000Y-111203516D01*
X172610611Y-111406564D01*
X172531385Y-111597833D01*
X172531384Y-111597835D01*
X172416365Y-111769973D01*
X172269973Y-111916365D01*
X172097835Y-112031384D01*
X172097834Y-112031385D01*
X172097833Y-112031385D01*
X171906564Y-112110611D01*
X171703516Y-112151000D01*
X171496484Y-112151000D01*
X171293436Y-112110611D01*
X171102167Y-112031385D01*
X171102166Y-112031385D01*
X171102165Y-112031384D01*
X170930027Y-111916365D01*
X170783635Y-111769973D01*
X170668616Y-111597835D01*
X170668615Y-111597833D01*
X170589389Y-111406564D01*
X170549000Y-111203516D01*
X170549000Y-110996484D01*
X170589389Y-110793436D01*
X170668615Y-110602167D01*
X170669226Y-110601253D01*
X170783635Y-110430027D01*
X170930027Y-110283635D01*
X171102165Y-110168616D01*
X171102167Y-110168615D01*
X171293436Y-110089389D01*
X171496484Y-110049000D01*
X171703516Y-110049000D01*
X171906564Y-110089389D01*
X171906564Y-110089389D01*
G37*
G36*
X238639487Y-108733996D02*
G01*
X238876253Y-108832068D01*
X238876255Y-108832069D01*
X239089339Y-108974447D01*
X239270553Y-109155661D01*
X239338155Y-109256834D01*
X239412932Y-109368747D01*
X239511004Y-109605513D01*
X239561000Y-109856861D01*
X239561000Y-110113139D01*
X239511004Y-110364487D01*
X239483856Y-110430027D01*
X239412931Y-110601255D01*
X239270553Y-110814339D01*
X239089339Y-110995553D01*
X238876255Y-111137931D01*
X238876254Y-111137932D01*
X238876253Y-111137932D01*
X238639487Y-111236004D01*
X238388139Y-111286000D01*
X238131861Y-111286000D01*
X237880513Y-111236004D01*
X237643747Y-111137932D01*
X237643746Y-111137932D01*
X237643745Y-111137931D01*
X237430661Y-110995553D01*
X237249447Y-110814339D01*
X237107069Y-110601255D01*
X237036144Y-110430027D01*
X237008996Y-110364487D01*
X236959000Y-110113139D01*
X236959000Y-109856861D01*
X237008996Y-109605513D01*
X237107068Y-109368747D01*
X237181846Y-109256834D01*
X237249447Y-109155661D01*
X237430661Y-108974447D01*
X237643745Y-108832069D01*
X237643747Y-108832068D01*
X237880513Y-108733996D01*
X238131861Y-108684000D01*
X238388139Y-108684000D01*
X238639487Y-108733996D01*
X238639487Y-108733996D01*
G37*
G36*
X246443642Y-108094781D02*
G01*
X246589414Y-108155162D01*
X246589416Y-108155163D01*
X246720608Y-108242822D01*
X246832178Y-108354392D01*
X246891965Y-108443871D01*
X246919838Y-108485586D01*
X246980219Y-108631358D01*
X247011000Y-108786107D01*
X247011000Y-108943893D01*
X246980219Y-109098642D01*
X246919838Y-109244414D01*
X246919837Y-109244416D01*
X246832178Y-109375608D01*
X246720608Y-109487178D01*
X246589416Y-109574837D01*
X246589415Y-109574838D01*
X246589414Y-109574838D01*
X246443642Y-109635219D01*
X246288893Y-109666000D01*
X246131107Y-109666000D01*
X245976358Y-109635219D01*
X245830586Y-109574838D01*
X245830585Y-109574838D01*
X245830584Y-109574837D01*
X245699392Y-109487178D01*
X245587822Y-109375608D01*
X245500163Y-109244416D01*
X245500162Y-109244414D01*
X245439781Y-109098642D01*
X245409000Y-108943893D01*
X245409000Y-108786107D01*
X245439781Y-108631358D01*
X245500162Y-108485586D01*
X245528035Y-108443871D01*
X245587822Y-108354392D01*
X245699392Y-108242822D01*
X245830584Y-108155163D01*
X245830586Y-108155162D01*
X245976358Y-108094781D01*
X246131107Y-108064000D01*
X246288893Y-108064000D01*
X246443642Y-108094781D01*
X246443642Y-108094781D01*
G37*
G36*
X241636971Y-106311204D02*
G01*
X241798871Y-106343408D01*
X242103883Y-106469748D01*
X242378387Y-106653166D01*
X242611834Y-106886613D01*
X242795252Y-107161117D01*
X242921592Y-107466129D01*
X242986000Y-107789928D01*
X242986000Y-108120072D01*
X242921592Y-108443871D01*
X242795252Y-108748883D01*
X242611834Y-109023387D01*
X242378387Y-109256834D01*
X242103883Y-109440252D01*
X241798871Y-109566592D01*
X241636971Y-109598796D01*
X241475073Y-109631000D01*
X241144927Y-109631000D01*
X240983029Y-109598796D01*
X240821129Y-109566592D01*
X240516117Y-109440252D01*
X240241613Y-109256834D01*
X240008166Y-109023387D01*
X239824748Y-108748883D01*
X239698408Y-108443871D01*
X239634000Y-108120072D01*
X239634000Y-107789928D01*
X239698408Y-107466129D01*
X239824748Y-107161117D01*
X240008166Y-106886613D01*
X240241613Y-106653166D01*
X240516117Y-106469748D01*
X240821129Y-106343408D01*
X240983029Y-106311204D01*
X241144927Y-106279000D01*
X241475073Y-106279000D01*
X241636971Y-106311204D01*
X241636971Y-106311204D01*
G37*
G36*
X235602546Y-105883134D02*
G01*
X235637010Y-105893589D01*
X235668761Y-105910560D01*
X235696597Y-105933403D01*
X235719440Y-105961239D01*
X235736411Y-105992990D01*
X235746866Y-106027454D01*
X235751000Y-106069425D01*
X235751000Y-107290575D01*
X235746866Y-107332546D01*
X235736411Y-107367010D01*
X235719440Y-107398761D01*
X235696597Y-107426597D01*
X235668761Y-107449440D01*
X235637010Y-107466411D01*
X235602546Y-107476866D01*
X235560575Y-107481000D01*
X234339425Y-107481000D01*
X234297454Y-107476866D01*
X234262990Y-107466411D01*
X234231239Y-107449440D01*
X234203403Y-107426597D01*
X234180560Y-107398761D01*
X234163589Y-107367010D01*
X234153134Y-107332546D01*
X234149000Y-107290575D01*
X234149000Y-106069425D01*
X234153134Y-106027454D01*
X234163589Y-105992990D01*
X234180560Y-105961239D01*
X234203403Y-105933403D01*
X234231239Y-105910560D01*
X234262990Y-105893589D01*
X234297454Y-105883134D01*
X234339425Y-105879000D01*
X235560575Y-105879000D01*
X235602546Y-105883134D01*
X235602546Y-105883134D01*
G37*
G36*
X246443642Y-105554781D02*
G01*
X246589414Y-105615162D01*
X246589416Y-105615163D01*
X246720608Y-105702822D01*
X246832178Y-105814392D01*
X246909830Y-105930608D01*
X246919838Y-105945586D01*
X246980219Y-106091358D01*
X247011000Y-106246107D01*
X247011000Y-106403893D01*
X246980219Y-106558642D01*
X246919838Y-106704414D01*
X246919837Y-106704416D01*
X246832178Y-106835608D01*
X246720608Y-106947178D01*
X246589416Y-107034837D01*
X246589415Y-107034838D01*
X246589414Y-107034838D01*
X246443642Y-107095219D01*
X246288893Y-107126000D01*
X246131107Y-107126000D01*
X245976358Y-107095219D01*
X245830586Y-107034838D01*
X245830585Y-107034838D01*
X245830584Y-107034837D01*
X245699392Y-106947178D01*
X245587822Y-106835608D01*
X245500163Y-106704416D01*
X245500162Y-106704414D01*
X245439781Y-106558642D01*
X245409000Y-106403893D01*
X245409000Y-106246107D01*
X245439781Y-106091358D01*
X245500162Y-105945586D01*
X245510170Y-105930608D01*
X245587822Y-105814392D01*
X245699392Y-105702822D01*
X245830584Y-105615163D01*
X245830586Y-105615162D01*
X245976358Y-105554781D01*
X246131107Y-105524000D01*
X246288893Y-105524000D01*
X246443642Y-105554781D01*
X246443642Y-105554781D01*
G37*
G36*
X232643642Y-104649781D02*
G01*
X232789414Y-104710162D01*
X232789416Y-104710163D01*
X232920608Y-104797822D01*
X233032178Y-104909392D01*
X233119837Y-105040584D01*
X233119838Y-105040586D01*
X233180219Y-105186358D01*
X233211000Y-105341107D01*
X233211000Y-105498893D01*
X233180219Y-105653642D01*
X233119838Y-105799414D01*
X233119837Y-105799416D01*
X233032178Y-105930608D01*
X232920608Y-106042178D01*
X232789416Y-106129837D01*
X232789415Y-106129838D01*
X232789414Y-106129838D01*
X232643642Y-106190219D01*
X232488893Y-106221000D01*
X232331107Y-106221000D01*
X232176358Y-106190219D01*
X232030586Y-106129838D01*
X232030585Y-106129838D01*
X232030584Y-106129837D01*
X231899392Y-106042178D01*
X231787822Y-105930608D01*
X231700163Y-105799416D01*
X231700162Y-105799414D01*
X231639781Y-105653642D01*
X231609000Y-105498893D01*
X231609000Y-105341107D01*
X231639781Y-105186358D01*
X231700162Y-105040586D01*
X231700163Y-105040584D01*
X231787822Y-104909392D01*
X231899392Y-104797822D01*
X232030584Y-104710163D01*
X232030586Y-104710162D01*
X232176358Y-104649781D01*
X232331107Y-104619000D01*
X232488893Y-104619000D01*
X232643642Y-104649781D01*
X232643642Y-104649781D01*
G37*
G36*
X235183642Y-103369781D02*
G01*
X235329414Y-103430162D01*
X235329416Y-103430163D01*
X235460608Y-103517822D01*
X235572178Y-103629392D01*
X235606661Y-103681000D01*
X235659838Y-103760586D01*
X235720219Y-103906358D01*
X235751000Y-104061107D01*
X235751000Y-104218893D01*
X235720219Y-104373642D01*
X235659838Y-104519414D01*
X235659837Y-104519416D01*
X235572178Y-104650608D01*
X235460608Y-104762178D01*
X235329416Y-104849837D01*
X235329415Y-104849838D01*
X235329414Y-104849838D01*
X235183642Y-104910219D01*
X235028893Y-104941000D01*
X234871107Y-104941000D01*
X234716358Y-104910219D01*
X234570586Y-104849838D01*
X234570585Y-104849838D01*
X234570584Y-104849837D01*
X234439392Y-104762178D01*
X234327822Y-104650608D01*
X234240163Y-104519416D01*
X234240162Y-104519414D01*
X234179781Y-104373642D01*
X234149000Y-104218893D01*
X234149000Y-104061107D01*
X234179781Y-103906358D01*
X234240162Y-103760586D01*
X234293339Y-103681000D01*
X234327822Y-103629392D01*
X234439392Y-103517822D01*
X234570584Y-103430163D01*
X234570586Y-103430162D01*
X234716358Y-103369781D01*
X234871107Y-103339000D01*
X235028893Y-103339000D01*
X235183642Y-103369781D01*
X235183642Y-103369781D01*
G37*
G36*
X232643642Y-102109781D02*
G01*
X232789414Y-102170162D01*
X232789416Y-102170163D01*
X232920608Y-102257822D01*
X233032178Y-102369392D01*
X233119837Y-102500584D01*
X233119838Y-102500586D01*
X233180219Y-102646358D01*
X233211000Y-102801107D01*
X233211000Y-102958893D01*
X233180219Y-103113642D01*
X233119838Y-103259414D01*
X233119837Y-103259416D01*
X233032178Y-103390608D01*
X232920608Y-103502178D01*
X232789416Y-103589837D01*
X232789415Y-103589838D01*
X232789414Y-103589838D01*
X232643642Y-103650219D01*
X232488893Y-103681000D01*
X232331107Y-103681000D01*
X232176358Y-103650219D01*
X232030586Y-103589838D01*
X232030585Y-103589838D01*
X232030584Y-103589837D01*
X231899392Y-103502178D01*
X231787822Y-103390608D01*
X231700163Y-103259416D01*
X231700162Y-103259414D01*
X231639781Y-103113642D01*
X231609000Y-102958893D01*
X231609000Y-102801107D01*
X231639781Y-102646358D01*
X231700162Y-102500586D01*
X231700163Y-102500584D01*
X231787822Y-102369392D01*
X231899392Y-102257822D01*
X232030584Y-102170163D01*
X232030586Y-102170162D01*
X232176358Y-102109781D01*
X232331107Y-102079000D01*
X232488893Y-102079000D01*
X232643642Y-102109781D01*
X232643642Y-102109781D01*
G37*
G36*
X235183642Y-100829781D02*
G01*
X235329414Y-100890162D01*
X235329416Y-100890163D01*
X235460608Y-100977822D01*
X235572178Y-101089392D01*
X235606661Y-101141000D01*
X235659838Y-101220586D01*
X235720219Y-101366358D01*
X235751000Y-101521107D01*
X235751000Y-101678893D01*
X235720219Y-101833642D01*
X235659838Y-101979414D01*
X235659837Y-101979416D01*
X235572178Y-102110608D01*
X235460608Y-102222178D01*
X235329416Y-102309837D01*
X235329415Y-102309838D01*
X235329414Y-102309838D01*
X235183642Y-102370219D01*
X235028893Y-102401000D01*
X234871107Y-102401000D01*
X234716358Y-102370219D01*
X234570586Y-102309838D01*
X234570585Y-102309838D01*
X234570584Y-102309837D01*
X234439392Y-102222178D01*
X234327822Y-102110608D01*
X234240163Y-101979416D01*
X234240162Y-101979414D01*
X234179781Y-101833642D01*
X234149000Y-101678893D01*
X234149000Y-101521107D01*
X234179781Y-101366358D01*
X234240162Y-101220586D01*
X234293339Y-101141000D01*
X234327822Y-101089392D01*
X234439392Y-100977822D01*
X234570584Y-100890163D01*
X234570586Y-100890162D01*
X234716358Y-100829781D01*
X234871107Y-100799000D01*
X235028893Y-100799000D01*
X235183642Y-100829781D01*
X235183642Y-100829781D01*
G37*
G36*
X232643642Y-99569781D02*
G01*
X232789414Y-99630162D01*
X232789416Y-99630163D01*
X232920608Y-99717822D01*
X233032178Y-99829392D01*
X233119837Y-99960584D01*
X233119838Y-99960586D01*
X233180219Y-100106358D01*
X233211000Y-100261107D01*
X233211000Y-100418893D01*
X233180219Y-100573642D01*
X233119838Y-100719414D01*
X233119837Y-100719416D01*
X233032178Y-100850608D01*
X232920608Y-100962178D01*
X232789416Y-101049837D01*
X232789415Y-101049838D01*
X232789414Y-101049838D01*
X232643642Y-101110219D01*
X232488893Y-101141000D01*
X232331107Y-101141000D01*
X232176358Y-101110219D01*
X232030586Y-101049838D01*
X232030585Y-101049838D01*
X232030584Y-101049837D01*
X231899392Y-100962178D01*
X231787822Y-100850608D01*
X231700163Y-100719416D01*
X231700162Y-100719414D01*
X231639781Y-100573642D01*
X231609000Y-100418893D01*
X231609000Y-100261107D01*
X231639781Y-100106358D01*
X231700162Y-99960586D01*
X231700163Y-99960584D01*
X231787822Y-99829392D01*
X231899392Y-99717822D01*
X232030584Y-99630163D01*
X232030586Y-99630162D01*
X232176358Y-99569781D01*
X232331107Y-99539000D01*
X232488893Y-99539000D01*
X232643642Y-99569781D01*
X232643642Y-99569781D01*
G37*
G36*
X235183642Y-98289781D02*
G01*
X235329414Y-98350162D01*
X235329416Y-98350163D01*
X235460608Y-98437822D01*
X235572178Y-98549392D01*
X235649830Y-98665608D01*
X235659838Y-98680586D01*
X235720219Y-98826358D01*
X235751000Y-98981107D01*
X235751000Y-99138893D01*
X235720219Y-99293642D01*
X235659838Y-99439414D01*
X235659837Y-99439416D01*
X235572178Y-99570608D01*
X235460608Y-99682178D01*
X235329416Y-99769837D01*
X235329415Y-99769838D01*
X235329414Y-99769838D01*
X235183642Y-99830219D01*
X235028893Y-99861000D01*
X234871107Y-99861000D01*
X234716358Y-99830219D01*
X234570586Y-99769838D01*
X234570585Y-99769838D01*
X234570584Y-99769837D01*
X234439392Y-99682178D01*
X234327822Y-99570608D01*
X234240163Y-99439416D01*
X234240162Y-99439414D01*
X234179781Y-99293642D01*
X234149000Y-99138893D01*
X234149000Y-98981107D01*
X234179781Y-98826358D01*
X234240162Y-98680586D01*
X234250170Y-98665608D01*
X234327822Y-98549392D01*
X234439392Y-98437822D01*
X234570584Y-98350163D01*
X234570586Y-98350162D01*
X234716358Y-98289781D01*
X234871107Y-98259000D01*
X235028893Y-98259000D01*
X235183642Y-98289781D01*
X235183642Y-98289781D01*
G37*
G36*
X246443642Y-97384781D02*
G01*
X246589414Y-97445162D01*
X246589416Y-97445163D01*
X246720608Y-97532822D01*
X246832178Y-97644392D01*
X246919837Y-97775584D01*
X246919838Y-97775586D01*
X246980219Y-97921358D01*
X247011000Y-98076107D01*
X247011000Y-98233893D01*
X246980219Y-98388642D01*
X246930018Y-98509837D01*
X246919837Y-98534416D01*
X246832178Y-98665608D01*
X246720608Y-98777178D01*
X246589416Y-98864837D01*
X246589415Y-98864838D01*
X246589414Y-98864838D01*
X246443642Y-98925219D01*
X246288893Y-98956000D01*
X246131107Y-98956000D01*
X245976358Y-98925219D01*
X245830586Y-98864838D01*
X245830585Y-98864838D01*
X245830584Y-98864837D01*
X245699392Y-98777178D01*
X245587822Y-98665608D01*
X245500163Y-98534416D01*
X245489982Y-98509837D01*
X245439781Y-98388642D01*
X245409000Y-98233893D01*
X245409000Y-98076107D01*
X245439781Y-97921358D01*
X245500162Y-97775586D01*
X245500163Y-97775584D01*
X245587822Y-97644392D01*
X245699392Y-97532822D01*
X245830584Y-97445163D01*
X245830586Y-97445162D01*
X245976358Y-97384781D01*
X246131107Y-97354000D01*
X246288893Y-97354000D01*
X246443642Y-97384781D01*
X246443642Y-97384781D01*
G37*
G36*
X232643642Y-97029781D02*
G01*
X232789414Y-97090162D01*
X232789416Y-97090163D01*
X232920608Y-97177822D01*
X233032178Y-97289392D01*
X233051882Y-97318882D01*
X233119838Y-97420586D01*
X233180219Y-97566358D01*
X233211000Y-97721107D01*
X233211000Y-97878893D01*
X233180219Y-98033642D01*
X233119838Y-98179414D01*
X233119837Y-98179416D01*
X233032178Y-98310608D01*
X232920608Y-98422178D01*
X232789416Y-98509837D01*
X232789415Y-98509838D01*
X232789414Y-98509838D01*
X232643642Y-98570219D01*
X232488893Y-98601000D01*
X232331107Y-98601000D01*
X232176358Y-98570219D01*
X232030586Y-98509838D01*
X232030585Y-98509838D01*
X232030584Y-98509837D01*
X231899392Y-98422178D01*
X231787822Y-98310608D01*
X231700163Y-98179416D01*
X231700162Y-98179414D01*
X231639781Y-98033642D01*
X231609000Y-97878893D01*
X231609000Y-97721107D01*
X231639781Y-97566358D01*
X231700162Y-97420586D01*
X231768118Y-97318882D01*
X231787822Y-97289392D01*
X231899392Y-97177822D01*
X232030584Y-97090163D01*
X232030586Y-97090162D01*
X232176358Y-97029781D01*
X232331107Y-96999000D01*
X232488893Y-96999000D01*
X232643642Y-97029781D01*
X232643642Y-97029781D01*
G37*
G36*
X241603203Y-94874487D02*
G01*
X241798871Y-94913408D01*
X242103883Y-95039748D01*
X242378387Y-95223166D01*
X242611834Y-95456613D01*
X242795252Y-95731117D01*
X242921592Y-96036129D01*
X242986000Y-96359928D01*
X242986000Y-96690072D01*
X242921592Y-97013871D01*
X242795252Y-97318883D01*
X242611834Y-97593387D01*
X242378387Y-97826834D01*
X242103883Y-98010252D01*
X241798871Y-98136592D01*
X241636971Y-98168796D01*
X241475073Y-98201000D01*
X241144927Y-98201000D01*
X240821129Y-98136592D01*
X240516117Y-98010252D01*
X240241613Y-97826834D01*
X240008166Y-97593387D01*
X239824748Y-97318883D01*
X239698408Y-97013871D01*
X239634000Y-96690072D01*
X239634000Y-96359928D01*
X239698408Y-96036129D01*
X239824748Y-95731117D01*
X240008166Y-95456613D01*
X240241613Y-95223166D01*
X240516117Y-95039748D01*
X240821129Y-94913408D01*
X241016797Y-94874487D01*
X241144927Y-94849000D01*
X241475073Y-94849000D01*
X241603203Y-94874487D01*
X241603203Y-94874487D01*
G37*
G36*
X246443642Y-94844781D02*
G01*
X246589414Y-94905162D01*
X246589416Y-94905163D01*
X246720608Y-94992822D01*
X246832178Y-95104392D01*
X246919837Y-95235584D01*
X246919838Y-95235586D01*
X246980219Y-95381358D01*
X247011000Y-95536107D01*
X247011000Y-95693893D01*
X246980219Y-95848642D01*
X246919838Y-95994414D01*
X246919837Y-95994416D01*
X246832178Y-96125608D01*
X246720608Y-96237178D01*
X246589416Y-96324837D01*
X246589415Y-96324838D01*
X246589414Y-96324838D01*
X246443642Y-96385219D01*
X246288893Y-96416000D01*
X246131107Y-96416000D01*
X245976358Y-96385219D01*
X245830586Y-96324838D01*
X245830585Y-96324838D01*
X245830584Y-96324837D01*
X245699392Y-96237178D01*
X245587822Y-96125608D01*
X245500163Y-95994416D01*
X245500162Y-95994414D01*
X245439781Y-95848642D01*
X245409000Y-95693893D01*
X245409000Y-95536107D01*
X245439781Y-95381358D01*
X245500162Y-95235586D01*
X245500163Y-95235584D01*
X245587822Y-95104392D01*
X245699392Y-94992822D01*
X245830584Y-94905163D01*
X245830586Y-94905162D01*
X245976358Y-94844781D01*
X246131107Y-94814000D01*
X246288893Y-94814000D01*
X246443642Y-94844781D01*
X246443642Y-94844781D01*
G37*
G36*
X238639487Y-93243996D02*
G01*
X238876253Y-93342068D01*
X238876255Y-93342069D01*
X239089339Y-93484447D01*
X239270553Y-93665661D01*
X239412932Y-93878747D01*
X239511004Y-94115513D01*
X239561000Y-94366861D01*
X239561000Y-94623139D01*
X239511004Y-94874487D01*
X239412932Y-95111253D01*
X239412931Y-95111255D01*
X239270553Y-95324339D01*
X239089339Y-95505553D01*
X238876255Y-95647931D01*
X238876254Y-95647932D01*
X238876253Y-95647932D01*
X238639487Y-95746004D01*
X238388139Y-95796000D01*
X238131861Y-95796000D01*
X237880513Y-95746004D01*
X237643747Y-95647932D01*
X237643746Y-95647932D01*
X237643745Y-95647931D01*
X237430661Y-95505553D01*
X237249447Y-95324339D01*
X237107069Y-95111255D01*
X237107068Y-95111253D01*
X237008996Y-94874487D01*
X236959000Y-94623139D01*
X236959000Y-94366861D01*
X237008996Y-94115513D01*
X237107068Y-93878747D01*
X237249447Y-93665661D01*
X237430661Y-93484447D01*
X237643745Y-93342069D01*
X237643747Y-93342068D01*
X237880513Y-93243996D01*
X238131861Y-93194000D01*
X238388139Y-93194000D01*
X238639487Y-93243996D01*
X238639487Y-93243996D01*
G37*
G36*
X178726823Y-87961313D02*
G01*
X178887242Y-88009976D01*
X179019906Y-88080886D01*
X179035078Y-88088996D01*
X179164659Y-88195341D01*
X179271004Y-88324922D01*
X179271005Y-88324924D01*
X179350024Y-88472758D01*
X179398687Y-88633177D01*
X179415117Y-88800000D01*
X179398687Y-88966823D01*
X179350024Y-89127242D01*
X179279114Y-89259906D01*
X179271004Y-89275078D01*
X179164659Y-89404659D01*
X179035078Y-89511004D01*
X179035076Y-89511005D01*
X178887242Y-89590024D01*
X178726823Y-89638687D01*
X178601804Y-89651000D01*
X178518196Y-89651000D01*
X178393177Y-89638687D01*
X178232758Y-89590024D01*
X178084924Y-89511005D01*
X178084922Y-89511004D01*
X177955341Y-89404659D01*
X177848996Y-89275078D01*
X177840886Y-89259906D01*
X177769976Y-89127242D01*
X177721313Y-88966823D01*
X177704883Y-88800000D01*
X177721313Y-88633177D01*
X177769976Y-88472758D01*
X177848995Y-88324924D01*
X177848996Y-88324922D01*
X177955341Y-88195341D01*
X178084922Y-88088996D01*
X178100094Y-88080886D01*
X178232758Y-88009976D01*
X178393177Y-87961313D01*
X178518196Y-87949000D01*
X178601804Y-87949000D01*
X178726823Y-87961313D01*
X178726823Y-87961313D01*
G37*
G36*
X183806823Y-87961313D02*
G01*
X183967242Y-88009976D01*
X184099906Y-88080886D01*
X184115078Y-88088996D01*
X184244659Y-88195341D01*
X184351004Y-88324922D01*
X184351005Y-88324924D01*
X184430024Y-88472758D01*
X184478687Y-88633177D01*
X184495117Y-88800000D01*
X184478687Y-88966823D01*
X184430024Y-89127242D01*
X184359114Y-89259906D01*
X184351004Y-89275078D01*
X184244659Y-89404659D01*
X184115078Y-89511004D01*
X184115076Y-89511005D01*
X183967242Y-89590024D01*
X183806823Y-89638687D01*
X183681804Y-89651000D01*
X183598196Y-89651000D01*
X183473177Y-89638687D01*
X183312758Y-89590024D01*
X183164924Y-89511005D01*
X183164922Y-89511004D01*
X183035341Y-89404659D01*
X182928996Y-89275078D01*
X182920886Y-89259906D01*
X182849976Y-89127242D01*
X182801313Y-88966823D01*
X182784883Y-88800000D01*
X182801313Y-88633177D01*
X182849976Y-88472758D01*
X182928995Y-88324924D01*
X182928996Y-88324922D01*
X183035341Y-88195341D01*
X183164922Y-88088996D01*
X183180094Y-88080886D01*
X183312758Y-88009976D01*
X183473177Y-87961313D01*
X183598196Y-87949000D01*
X183681804Y-87949000D01*
X183806823Y-87961313D01*
X183806823Y-87961313D01*
G37*
G36*
X216826823Y-87961313D02*
G01*
X216987242Y-88009976D01*
X217119906Y-88080886D01*
X217135078Y-88088996D01*
X217264659Y-88195341D01*
X217371004Y-88324922D01*
X217371005Y-88324924D01*
X217450024Y-88472758D01*
X217498687Y-88633177D01*
X217515117Y-88800000D01*
X217498687Y-88966823D01*
X217450024Y-89127242D01*
X217379114Y-89259906D01*
X217371004Y-89275078D01*
X217264659Y-89404659D01*
X217135078Y-89511004D01*
X217135076Y-89511005D01*
X216987242Y-89590024D01*
X216826823Y-89638687D01*
X216701804Y-89651000D01*
X216618196Y-89651000D01*
X216493177Y-89638687D01*
X216332758Y-89590024D01*
X216184924Y-89511005D01*
X216184922Y-89511004D01*
X216055341Y-89404659D01*
X215948996Y-89275078D01*
X215940886Y-89259906D01*
X215869976Y-89127242D01*
X215821313Y-88966823D01*
X215804883Y-88800000D01*
X215821313Y-88633177D01*
X215869976Y-88472758D01*
X215948995Y-88324924D01*
X215948996Y-88324922D01*
X216055341Y-88195341D01*
X216184922Y-88088996D01*
X216200094Y-88080886D01*
X216332758Y-88009976D01*
X216493177Y-87961313D01*
X216618196Y-87949000D01*
X216701804Y-87949000D01*
X216826823Y-87961313D01*
X216826823Y-87961313D01*
G37*
G36*
X214286823Y-87961313D02*
G01*
X214447242Y-88009976D01*
X214579906Y-88080886D01*
X214595078Y-88088996D01*
X214724659Y-88195341D01*
X214831004Y-88324922D01*
X214831005Y-88324924D01*
X214910024Y-88472758D01*
X214958687Y-88633177D01*
X214975117Y-88800000D01*
X214958687Y-88966823D01*
X214910024Y-89127242D01*
X214839114Y-89259906D01*
X214831004Y-89275078D01*
X214724659Y-89404659D01*
X214595078Y-89511004D01*
X214595076Y-89511005D01*
X214447242Y-89590024D01*
X214286823Y-89638687D01*
X214161804Y-89651000D01*
X214078196Y-89651000D01*
X213953177Y-89638687D01*
X213792758Y-89590024D01*
X213644924Y-89511005D01*
X213644922Y-89511004D01*
X213515341Y-89404659D01*
X213408996Y-89275078D01*
X213400886Y-89259906D01*
X213329976Y-89127242D01*
X213281313Y-88966823D01*
X213264883Y-88800000D01*
X213281313Y-88633177D01*
X213329976Y-88472758D01*
X213408995Y-88324924D01*
X213408996Y-88324922D01*
X213515341Y-88195341D01*
X213644922Y-88088996D01*
X213660094Y-88080886D01*
X213792758Y-88009976D01*
X213953177Y-87961313D01*
X214078196Y-87949000D01*
X214161804Y-87949000D01*
X214286823Y-87961313D01*
X214286823Y-87961313D01*
G37*
G36*
X211746823Y-87961313D02*
G01*
X211907242Y-88009976D01*
X212039906Y-88080886D01*
X212055078Y-88088996D01*
X212184659Y-88195341D01*
X212291004Y-88324922D01*
X212291005Y-88324924D01*
X212370024Y-88472758D01*
X212418687Y-88633177D01*
X212435117Y-88800000D01*
X212418687Y-88966823D01*
X212370024Y-89127242D01*
X212299114Y-89259906D01*
X212291004Y-89275078D01*
X212184659Y-89404659D01*
X212055078Y-89511004D01*
X212055076Y-89511005D01*
X211907242Y-89590024D01*
X211746823Y-89638687D01*
X211621804Y-89651000D01*
X211538196Y-89651000D01*
X211413177Y-89638687D01*
X211252758Y-89590024D01*
X211104924Y-89511005D01*
X211104922Y-89511004D01*
X210975341Y-89404659D01*
X210868996Y-89275078D01*
X210860886Y-89259906D01*
X210789976Y-89127242D01*
X210741313Y-88966823D01*
X210724883Y-88800000D01*
X210741313Y-88633177D01*
X210789976Y-88472758D01*
X210868995Y-88324924D01*
X210868996Y-88324922D01*
X210975341Y-88195341D01*
X211104922Y-88088996D01*
X211120094Y-88080886D01*
X211252758Y-88009976D01*
X211413177Y-87961313D01*
X211538196Y-87949000D01*
X211621804Y-87949000D01*
X211746823Y-87961313D01*
X211746823Y-87961313D01*
G37*
G36*
X209206823Y-87961313D02*
G01*
X209367242Y-88009976D01*
X209499906Y-88080886D01*
X209515078Y-88088996D01*
X209644659Y-88195341D01*
X209751004Y-88324922D01*
X209751005Y-88324924D01*
X209830024Y-88472758D01*
X209878687Y-88633177D01*
X209895117Y-88800000D01*
X209878687Y-88966823D01*
X209830024Y-89127242D01*
X209759114Y-89259906D01*
X209751004Y-89275078D01*
X209644659Y-89404659D01*
X209515078Y-89511004D01*
X209515076Y-89511005D01*
X209367242Y-89590024D01*
X209206823Y-89638687D01*
X209081804Y-89651000D01*
X208998196Y-89651000D01*
X208873177Y-89638687D01*
X208712758Y-89590024D01*
X208564924Y-89511005D01*
X208564922Y-89511004D01*
X208435341Y-89404659D01*
X208328996Y-89275078D01*
X208320886Y-89259906D01*
X208249976Y-89127242D01*
X208201313Y-88966823D01*
X208184883Y-88800000D01*
X208201313Y-88633177D01*
X208249976Y-88472758D01*
X208328995Y-88324924D01*
X208328996Y-88324922D01*
X208435341Y-88195341D01*
X208564922Y-88088996D01*
X208580094Y-88080886D01*
X208712758Y-88009976D01*
X208873177Y-87961313D01*
X208998196Y-87949000D01*
X209081804Y-87949000D01*
X209206823Y-87961313D01*
X209206823Y-87961313D01*
G37*
G36*
X206666823Y-87961313D02*
G01*
X206827242Y-88009976D01*
X206959906Y-88080886D01*
X206975078Y-88088996D01*
X207104659Y-88195341D01*
X207211004Y-88324922D01*
X207211005Y-88324924D01*
X207290024Y-88472758D01*
X207338687Y-88633177D01*
X207355117Y-88800000D01*
X207338687Y-88966823D01*
X207290024Y-89127242D01*
X207219114Y-89259906D01*
X207211004Y-89275078D01*
X207104659Y-89404659D01*
X206975078Y-89511004D01*
X206975076Y-89511005D01*
X206827242Y-89590024D01*
X206666823Y-89638687D01*
X206541804Y-89651000D01*
X206458196Y-89651000D01*
X206333177Y-89638687D01*
X206172758Y-89590024D01*
X206024924Y-89511005D01*
X206024922Y-89511004D01*
X205895341Y-89404659D01*
X205788996Y-89275078D01*
X205780886Y-89259906D01*
X205709976Y-89127242D01*
X205661313Y-88966823D01*
X205644883Y-88800000D01*
X205661313Y-88633177D01*
X205709976Y-88472758D01*
X205788995Y-88324924D01*
X205788996Y-88324922D01*
X205895341Y-88195341D01*
X206024922Y-88088996D01*
X206040094Y-88080886D01*
X206172758Y-88009976D01*
X206333177Y-87961313D01*
X206458196Y-87949000D01*
X206541804Y-87949000D01*
X206666823Y-87961313D01*
X206666823Y-87961313D01*
G37*
G36*
X204126823Y-87961313D02*
G01*
X204287242Y-88009976D01*
X204419906Y-88080886D01*
X204435078Y-88088996D01*
X204564659Y-88195341D01*
X204671004Y-88324922D01*
X204671005Y-88324924D01*
X204750024Y-88472758D01*
X204798687Y-88633177D01*
X204815117Y-88800000D01*
X204798687Y-88966823D01*
X204750024Y-89127242D01*
X204679114Y-89259906D01*
X204671004Y-89275078D01*
X204564659Y-89404659D01*
X204435078Y-89511004D01*
X204435076Y-89511005D01*
X204287242Y-89590024D01*
X204126823Y-89638687D01*
X204001804Y-89651000D01*
X203918196Y-89651000D01*
X203793177Y-89638687D01*
X203632758Y-89590024D01*
X203484924Y-89511005D01*
X203484922Y-89511004D01*
X203355341Y-89404659D01*
X203248996Y-89275078D01*
X203240886Y-89259906D01*
X203169976Y-89127242D01*
X203121313Y-88966823D01*
X203104883Y-88800000D01*
X203121313Y-88633177D01*
X203169976Y-88472758D01*
X203248995Y-88324924D01*
X203248996Y-88324922D01*
X203355341Y-88195341D01*
X203484922Y-88088996D01*
X203500094Y-88080886D01*
X203632758Y-88009976D01*
X203793177Y-87961313D01*
X203918196Y-87949000D01*
X204001804Y-87949000D01*
X204126823Y-87961313D01*
X204126823Y-87961313D01*
G37*
G36*
X201586823Y-87961313D02*
G01*
X201747242Y-88009976D01*
X201879906Y-88080886D01*
X201895078Y-88088996D01*
X202024659Y-88195341D01*
X202131004Y-88324922D01*
X202131005Y-88324924D01*
X202210024Y-88472758D01*
X202258687Y-88633177D01*
X202275117Y-88800000D01*
X202258687Y-88966823D01*
X202210024Y-89127242D01*
X202139114Y-89259906D01*
X202131004Y-89275078D01*
X202024659Y-89404659D01*
X201895078Y-89511004D01*
X201895076Y-89511005D01*
X201747242Y-89590024D01*
X201586823Y-89638687D01*
X201461804Y-89651000D01*
X201378196Y-89651000D01*
X201253177Y-89638687D01*
X201092758Y-89590024D01*
X200944924Y-89511005D01*
X200944922Y-89511004D01*
X200815341Y-89404659D01*
X200708996Y-89275078D01*
X200700886Y-89259906D01*
X200629976Y-89127242D01*
X200581313Y-88966823D01*
X200564883Y-88800000D01*
X200581313Y-88633177D01*
X200629976Y-88472758D01*
X200708995Y-88324924D01*
X200708996Y-88324922D01*
X200815341Y-88195341D01*
X200944922Y-88088996D01*
X200960094Y-88080886D01*
X201092758Y-88009976D01*
X201253177Y-87961313D01*
X201378196Y-87949000D01*
X201461804Y-87949000D01*
X201586823Y-87961313D01*
X201586823Y-87961313D01*
G37*
G36*
X199046823Y-87961313D02*
G01*
X199207242Y-88009976D01*
X199339906Y-88080886D01*
X199355078Y-88088996D01*
X199484659Y-88195341D01*
X199591004Y-88324922D01*
X199591005Y-88324924D01*
X199670024Y-88472758D01*
X199718687Y-88633177D01*
X199735117Y-88800000D01*
X199718687Y-88966823D01*
X199670024Y-89127242D01*
X199599114Y-89259906D01*
X199591004Y-89275078D01*
X199484659Y-89404659D01*
X199355078Y-89511004D01*
X199355076Y-89511005D01*
X199207242Y-89590024D01*
X199046823Y-89638687D01*
X198921804Y-89651000D01*
X198838196Y-89651000D01*
X198713177Y-89638687D01*
X198552758Y-89590024D01*
X198404924Y-89511005D01*
X198404922Y-89511004D01*
X198275341Y-89404659D01*
X198168996Y-89275078D01*
X198160886Y-89259906D01*
X198089976Y-89127242D01*
X198041313Y-88966823D01*
X198024883Y-88800000D01*
X198041313Y-88633177D01*
X198089976Y-88472758D01*
X198168995Y-88324924D01*
X198168996Y-88324922D01*
X198275341Y-88195341D01*
X198404922Y-88088996D01*
X198420094Y-88080886D01*
X198552758Y-88009976D01*
X198713177Y-87961313D01*
X198838196Y-87949000D01*
X198921804Y-87949000D01*
X199046823Y-87961313D01*
X199046823Y-87961313D01*
G37*
G36*
X196506823Y-87961313D02*
G01*
X196667242Y-88009976D01*
X196799906Y-88080886D01*
X196815078Y-88088996D01*
X196944659Y-88195341D01*
X197051004Y-88324922D01*
X197051005Y-88324924D01*
X197130024Y-88472758D01*
X197178687Y-88633177D01*
X197195117Y-88800000D01*
X197178687Y-88966823D01*
X197130024Y-89127242D01*
X197059114Y-89259906D01*
X197051004Y-89275078D01*
X196944659Y-89404659D01*
X196815078Y-89511004D01*
X196815076Y-89511005D01*
X196667242Y-89590024D01*
X196506823Y-89638687D01*
X196381804Y-89651000D01*
X196298196Y-89651000D01*
X196173177Y-89638687D01*
X196012758Y-89590024D01*
X195864924Y-89511005D01*
X195864922Y-89511004D01*
X195735341Y-89404659D01*
X195628996Y-89275078D01*
X195620886Y-89259906D01*
X195549976Y-89127242D01*
X195501313Y-88966823D01*
X195484883Y-88800000D01*
X195501313Y-88633177D01*
X195549976Y-88472758D01*
X195628995Y-88324924D01*
X195628996Y-88324922D01*
X195735341Y-88195341D01*
X195864922Y-88088996D01*
X195880094Y-88080886D01*
X196012758Y-88009976D01*
X196173177Y-87961313D01*
X196298196Y-87949000D01*
X196381804Y-87949000D01*
X196506823Y-87961313D01*
X196506823Y-87961313D01*
G37*
G36*
X193966823Y-87961313D02*
G01*
X194127242Y-88009976D01*
X194259906Y-88080886D01*
X194275078Y-88088996D01*
X194404659Y-88195341D01*
X194511004Y-88324922D01*
X194511005Y-88324924D01*
X194590024Y-88472758D01*
X194638687Y-88633177D01*
X194655117Y-88800000D01*
X194638687Y-88966823D01*
X194590024Y-89127242D01*
X194519114Y-89259906D01*
X194511004Y-89275078D01*
X194404659Y-89404659D01*
X194275078Y-89511004D01*
X194275076Y-89511005D01*
X194127242Y-89590024D01*
X193966823Y-89638687D01*
X193841804Y-89651000D01*
X193758196Y-89651000D01*
X193633177Y-89638687D01*
X193472758Y-89590024D01*
X193324924Y-89511005D01*
X193324922Y-89511004D01*
X193195341Y-89404659D01*
X193088996Y-89275078D01*
X193080886Y-89259906D01*
X193009976Y-89127242D01*
X192961313Y-88966823D01*
X192944883Y-88800000D01*
X192961313Y-88633177D01*
X193009976Y-88472758D01*
X193088995Y-88324924D01*
X193088996Y-88324922D01*
X193195341Y-88195341D01*
X193324922Y-88088996D01*
X193340094Y-88080886D01*
X193472758Y-88009976D01*
X193633177Y-87961313D01*
X193758196Y-87949000D01*
X193841804Y-87949000D01*
X193966823Y-87961313D01*
X193966823Y-87961313D01*
G37*
G36*
X191426823Y-87961313D02*
G01*
X191587242Y-88009976D01*
X191719906Y-88080886D01*
X191735078Y-88088996D01*
X191864659Y-88195341D01*
X191971004Y-88324922D01*
X191971005Y-88324924D01*
X192050024Y-88472758D01*
X192098687Y-88633177D01*
X192115117Y-88800000D01*
X192098687Y-88966823D01*
X192050024Y-89127242D01*
X191979114Y-89259906D01*
X191971004Y-89275078D01*
X191864659Y-89404659D01*
X191735078Y-89511004D01*
X191735076Y-89511005D01*
X191587242Y-89590024D01*
X191426823Y-89638687D01*
X191301804Y-89651000D01*
X191218196Y-89651000D01*
X191093177Y-89638687D01*
X190932758Y-89590024D01*
X190784924Y-89511005D01*
X190784922Y-89511004D01*
X190655341Y-89404659D01*
X190548996Y-89275078D01*
X190540886Y-89259906D01*
X190469976Y-89127242D01*
X190421313Y-88966823D01*
X190404883Y-88800000D01*
X190421313Y-88633177D01*
X190469976Y-88472758D01*
X190548995Y-88324924D01*
X190548996Y-88324922D01*
X190655341Y-88195341D01*
X190784922Y-88088996D01*
X190800094Y-88080886D01*
X190932758Y-88009976D01*
X191093177Y-87961313D01*
X191218196Y-87949000D01*
X191301804Y-87949000D01*
X191426823Y-87961313D01*
X191426823Y-87961313D01*
G37*
G36*
X188886823Y-87961313D02*
G01*
X189047242Y-88009976D01*
X189179906Y-88080886D01*
X189195078Y-88088996D01*
X189324659Y-88195341D01*
X189431004Y-88324922D01*
X189431005Y-88324924D01*
X189510024Y-88472758D01*
X189558687Y-88633177D01*
X189575117Y-88800000D01*
X189558687Y-88966823D01*
X189510024Y-89127242D01*
X189439114Y-89259906D01*
X189431004Y-89275078D01*
X189324659Y-89404659D01*
X189195078Y-89511004D01*
X189195076Y-89511005D01*
X189047242Y-89590024D01*
X188886823Y-89638687D01*
X188761804Y-89651000D01*
X188678196Y-89651000D01*
X188553177Y-89638687D01*
X188392758Y-89590024D01*
X188244924Y-89511005D01*
X188244922Y-89511004D01*
X188115341Y-89404659D01*
X188008996Y-89275078D01*
X188000886Y-89259906D01*
X187929976Y-89127242D01*
X187881313Y-88966823D01*
X187864883Y-88800000D01*
X187881313Y-88633177D01*
X187929976Y-88472758D01*
X188008995Y-88324924D01*
X188008996Y-88324922D01*
X188115341Y-88195341D01*
X188244922Y-88088996D01*
X188260094Y-88080886D01*
X188392758Y-88009976D01*
X188553177Y-87961313D01*
X188678196Y-87949000D01*
X188761804Y-87949000D01*
X188886823Y-87961313D01*
X188886823Y-87961313D01*
G37*
G36*
X186346823Y-87961313D02*
G01*
X186507242Y-88009976D01*
X186639906Y-88080886D01*
X186655078Y-88088996D01*
X186784659Y-88195341D01*
X186891004Y-88324922D01*
X186891005Y-88324924D01*
X186970024Y-88472758D01*
X187018687Y-88633177D01*
X187035117Y-88800000D01*
X187018687Y-88966823D01*
X186970024Y-89127242D01*
X186899114Y-89259906D01*
X186891004Y-89275078D01*
X186784659Y-89404659D01*
X186655078Y-89511004D01*
X186655076Y-89511005D01*
X186507242Y-89590024D01*
X186346823Y-89638687D01*
X186221804Y-89651000D01*
X186138196Y-89651000D01*
X186013177Y-89638687D01*
X185852758Y-89590024D01*
X185704924Y-89511005D01*
X185704922Y-89511004D01*
X185575341Y-89404659D01*
X185468996Y-89275078D01*
X185460886Y-89259906D01*
X185389976Y-89127242D01*
X185341313Y-88966823D01*
X185324883Y-88800000D01*
X185341313Y-88633177D01*
X185389976Y-88472758D01*
X185468995Y-88324924D01*
X185468996Y-88324922D01*
X185575341Y-88195341D01*
X185704922Y-88088996D01*
X185720094Y-88080886D01*
X185852758Y-88009976D01*
X186013177Y-87961313D01*
X186138196Y-87949000D01*
X186221804Y-87949000D01*
X186346823Y-87961313D01*
X186346823Y-87961313D01*
G37*
G36*
X181266823Y-87961313D02*
G01*
X181427242Y-88009976D01*
X181559906Y-88080886D01*
X181575078Y-88088996D01*
X181704659Y-88195341D01*
X181811004Y-88324922D01*
X181811005Y-88324924D01*
X181890024Y-88472758D01*
X181938687Y-88633177D01*
X181955117Y-88800000D01*
X181938687Y-88966823D01*
X181890024Y-89127242D01*
X181819114Y-89259906D01*
X181811004Y-89275078D01*
X181704659Y-89404659D01*
X181575078Y-89511004D01*
X181575076Y-89511005D01*
X181427242Y-89590024D01*
X181266823Y-89638687D01*
X181141804Y-89651000D01*
X181058196Y-89651000D01*
X180933177Y-89638687D01*
X180772758Y-89590024D01*
X180624924Y-89511005D01*
X180624922Y-89511004D01*
X180495341Y-89404659D01*
X180388996Y-89275078D01*
X180380886Y-89259906D01*
X180309976Y-89127242D01*
X180261313Y-88966823D01*
X180244883Y-88800000D01*
X180261313Y-88633177D01*
X180309976Y-88472758D01*
X180388995Y-88324924D01*
X180388996Y-88324922D01*
X180495341Y-88195341D01*
X180624922Y-88088996D01*
X180640094Y-88080886D01*
X180772758Y-88009976D01*
X180933177Y-87961313D01*
X181058196Y-87949000D01*
X181141804Y-87949000D01*
X181266823Y-87961313D01*
X181266823Y-87961313D01*
G37*
G36*
X176186823Y-87961313D02*
G01*
X176347242Y-88009976D01*
X176479906Y-88080886D01*
X176495078Y-88088996D01*
X176624659Y-88195341D01*
X176731004Y-88324922D01*
X176731005Y-88324924D01*
X176810024Y-88472758D01*
X176858687Y-88633177D01*
X176875117Y-88800000D01*
X176858687Y-88966823D01*
X176810024Y-89127242D01*
X176739114Y-89259906D01*
X176731004Y-89275078D01*
X176624659Y-89404659D01*
X176495078Y-89511004D01*
X176495076Y-89511005D01*
X176347242Y-89590024D01*
X176186823Y-89638687D01*
X176061804Y-89651000D01*
X175978196Y-89651000D01*
X175853177Y-89638687D01*
X175692758Y-89590024D01*
X175544924Y-89511005D01*
X175544922Y-89511004D01*
X175415341Y-89404659D01*
X175308996Y-89275078D01*
X175300886Y-89259906D01*
X175229976Y-89127242D01*
X175181313Y-88966823D01*
X175164883Y-88800000D01*
X175181313Y-88633177D01*
X175229976Y-88472758D01*
X175308995Y-88324924D01*
X175308996Y-88324922D01*
X175415341Y-88195341D01*
X175544922Y-88088996D01*
X175560094Y-88080886D01*
X175692758Y-88009976D01*
X175853177Y-87961313D01*
X175978196Y-87949000D01*
X176061804Y-87949000D01*
X176186823Y-87961313D01*
X176186823Y-87961313D01*
G37*
G36*
X173646823Y-87961313D02*
G01*
X173807242Y-88009976D01*
X173939906Y-88080886D01*
X173955078Y-88088996D01*
X174084659Y-88195341D01*
X174191004Y-88324922D01*
X174191005Y-88324924D01*
X174270024Y-88472758D01*
X174318687Y-88633177D01*
X174335117Y-88800000D01*
X174318687Y-88966823D01*
X174270024Y-89127242D01*
X174199114Y-89259906D01*
X174191004Y-89275078D01*
X174084659Y-89404659D01*
X173955078Y-89511004D01*
X173955076Y-89511005D01*
X173807242Y-89590024D01*
X173646823Y-89638687D01*
X173521804Y-89651000D01*
X173438196Y-89651000D01*
X173313177Y-89638687D01*
X173152758Y-89590024D01*
X173004924Y-89511005D01*
X173004922Y-89511004D01*
X172875341Y-89404659D01*
X172768996Y-89275078D01*
X172760886Y-89259906D01*
X172689976Y-89127242D01*
X172641313Y-88966823D01*
X172624883Y-88800000D01*
X172641313Y-88633177D01*
X172689976Y-88472758D01*
X172768995Y-88324924D01*
X172768996Y-88324922D01*
X172875341Y-88195341D01*
X173004922Y-88088996D01*
X173020094Y-88080886D01*
X173152758Y-88009976D01*
X173313177Y-87961313D01*
X173438196Y-87949000D01*
X173521804Y-87949000D01*
X173646823Y-87961313D01*
X173646823Y-87961313D01*
G37*
G36*
X169251000Y-89651000D02*
G01*
X167549000Y-89651000D01*
X167549000Y-87949000D01*
X169251000Y-87949000D01*
X169251000Y-89651000D01*
X169251000Y-89651000D01*
G37*
G36*
X171106823Y-87961313D02*
G01*
X171267242Y-88009976D01*
X171399906Y-88080886D01*
X171415078Y-88088996D01*
X171544659Y-88195341D01*
X171651004Y-88324922D01*
X171651005Y-88324924D01*
X171730024Y-88472758D01*
X171778687Y-88633177D01*
X171795117Y-88800000D01*
X171778687Y-88966823D01*
X171730024Y-89127242D01*
X171659114Y-89259906D01*
X171651004Y-89275078D01*
X171544659Y-89404659D01*
X171415078Y-89511004D01*
X171415076Y-89511005D01*
X171267242Y-89590024D01*
X171106823Y-89638687D01*
X170981804Y-89651000D01*
X170898196Y-89651000D01*
X170773177Y-89638687D01*
X170612758Y-89590024D01*
X170464924Y-89511005D01*
X170464922Y-89511004D01*
X170335341Y-89404659D01*
X170228996Y-89275078D01*
X170220886Y-89259906D01*
X170149976Y-89127242D01*
X170101313Y-88966823D01*
X170084883Y-88800000D01*
X170101313Y-88633177D01*
X170149976Y-88472758D01*
X170228995Y-88324924D01*
X170228996Y-88324922D01*
X170335341Y-88195341D01*
X170464922Y-88088996D01*
X170480094Y-88080886D01*
X170612758Y-88009976D01*
X170773177Y-87961313D01*
X170898196Y-87949000D01*
X170981804Y-87949000D01*
X171106823Y-87961313D01*
X171106823Y-87961313D01*
G37*
G36*
X248207797Y-87130567D02*
G01*
X248262575Y-87153257D01*
X248262577Y-87153258D01*
X248311876Y-87186198D01*
X248353802Y-87228124D01*
X248386742Y-87277423D01*
X248386743Y-87277425D01*
X248409433Y-87332203D01*
X248421000Y-87390353D01*
X248421000Y-87449647D01*
X248409433Y-87507797D01*
X248386743Y-87562575D01*
X248386742Y-87562577D01*
X248353802Y-87611876D01*
X248311876Y-87653802D01*
X248262577Y-87686742D01*
X248262576Y-87686743D01*
X248262575Y-87686743D01*
X248207797Y-87709433D01*
X248149647Y-87721000D01*
X248090353Y-87721000D01*
X248032203Y-87709433D01*
X247977425Y-87686743D01*
X247977424Y-87686743D01*
X247977423Y-87686742D01*
X247928124Y-87653802D01*
X247886198Y-87611876D01*
X247853258Y-87562577D01*
X247853257Y-87562575D01*
X247830567Y-87507797D01*
X247819000Y-87449647D01*
X247819000Y-87390353D01*
X247830567Y-87332203D01*
X247853257Y-87277425D01*
X247853258Y-87277423D01*
X247886198Y-87228124D01*
X247928124Y-87186198D01*
X247977423Y-87153258D01*
X247977425Y-87153257D01*
X248032203Y-87130567D01*
X248090353Y-87119000D01*
X248149647Y-87119000D01*
X248207797Y-87130567D01*
X248207797Y-87130567D01*
G37*
G36*
X248207797Y-83130567D02*
G01*
X248262575Y-83153257D01*
X248262577Y-83153258D01*
X248311876Y-83186198D01*
X248353802Y-83228124D01*
X248386742Y-83277423D01*
X248386743Y-83277425D01*
X248409433Y-83332203D01*
X248421000Y-83390353D01*
X248421000Y-83449647D01*
X248409433Y-83507797D01*
X248386743Y-83562575D01*
X248386742Y-83562577D01*
X248353802Y-83611876D01*
X248311876Y-83653802D01*
X248262577Y-83686742D01*
X248262576Y-83686743D01*
X248262575Y-83686743D01*
X248207797Y-83709433D01*
X248149647Y-83721000D01*
X248090353Y-83721000D01*
X248032203Y-83709433D01*
X247977425Y-83686743D01*
X247977424Y-83686743D01*
X247977423Y-83686742D01*
X247928124Y-83653802D01*
X247886198Y-83611876D01*
X247853258Y-83562577D01*
X247853257Y-83562575D01*
X247830567Y-83507797D01*
X247819000Y-83449647D01*
X247819000Y-83390353D01*
X247830567Y-83332203D01*
X247853257Y-83277425D01*
X247853258Y-83277423D01*
X247886198Y-83228124D01*
X247928124Y-83186198D01*
X247977423Y-83153258D01*
X247977425Y-83153257D01*
X248032203Y-83130567D01*
X248090353Y-83119000D01*
X248149647Y-83119000D01*
X248207797Y-83130567D01*
X248207797Y-83130567D01*
G37*
G36*
X229501000Y-80101000D02*
G01*
X227699000Y-80101000D01*
X227699000Y-78299000D01*
X229501000Y-78299000D01*
X229501000Y-80101000D01*
X229501000Y-80101000D01*
G37*
G36*
X231250443Y-78305519D02*
G01*
X231316627Y-78312037D01*
X231486466Y-78363557D01*
X231642991Y-78447222D01*
X231678729Y-78476552D01*
X231780186Y-78559814D01*
X231863448Y-78661271D01*
X231892778Y-78697009D01*
X231976443Y-78853534D01*
X232027963Y-79023373D01*
X232045359Y-79200000D01*
X232027963Y-79376627D01*
X231976443Y-79546466D01*
X231892778Y-79702991D01*
X231863448Y-79738729D01*
X231780186Y-79840186D01*
X231678729Y-79923448D01*
X231642991Y-79952778D01*
X231486466Y-80036443D01*
X231316627Y-80087963D01*
X231250443Y-80094481D01*
X231184260Y-80101000D01*
X231095740Y-80101000D01*
X231029557Y-80094481D01*
X230963373Y-80087963D01*
X230793534Y-80036443D01*
X230637009Y-79952778D01*
X230601271Y-79923448D01*
X230499814Y-79840186D01*
X230416552Y-79738729D01*
X230387222Y-79702991D01*
X230303557Y-79546466D01*
X230252037Y-79376627D01*
X230234641Y-79200000D01*
X230252037Y-79023373D01*
X230303557Y-78853534D01*
X230387222Y-78697009D01*
X230416552Y-78661271D01*
X230499814Y-78559814D01*
X230601271Y-78476552D01*
X230637009Y-78447222D01*
X230793534Y-78363557D01*
X230963373Y-78312037D01*
X231029557Y-78305519D01*
X231095740Y-78299000D01*
X231184260Y-78299000D01*
X231250443Y-78305519D01*
X231250443Y-78305519D01*
G37*
G36*
X214286823Y-72721313D02*
G01*
X214447242Y-72769976D01*
X214579906Y-72840886D01*
X214595078Y-72848996D01*
X214724659Y-72955341D01*
X214831004Y-73084922D01*
X214831005Y-73084924D01*
X214910024Y-73232758D01*
X214958687Y-73393177D01*
X214975117Y-73560000D01*
X214958687Y-73726823D01*
X214910024Y-73887242D01*
X214839114Y-74019906D01*
X214831004Y-74035078D01*
X214724659Y-74164659D01*
X214595078Y-74271004D01*
X214595076Y-74271005D01*
X214447242Y-74350024D01*
X214286823Y-74398687D01*
X214161804Y-74411000D01*
X214078196Y-74411000D01*
X213953177Y-74398687D01*
X213792758Y-74350024D01*
X213644924Y-74271005D01*
X213644922Y-74271004D01*
X213515341Y-74164659D01*
X213408996Y-74035078D01*
X213400886Y-74019906D01*
X213329976Y-73887242D01*
X213281313Y-73726823D01*
X213264883Y-73560000D01*
X213281313Y-73393177D01*
X213329976Y-73232758D01*
X213408995Y-73084924D01*
X213408996Y-73084922D01*
X213515341Y-72955341D01*
X213644922Y-72848996D01*
X213660094Y-72840886D01*
X213792758Y-72769976D01*
X213953177Y-72721313D01*
X214078196Y-72709000D01*
X214161804Y-72709000D01*
X214286823Y-72721313D01*
X214286823Y-72721313D01*
G37*
G36*
X216826823Y-72721313D02*
G01*
X216987242Y-72769976D01*
X217119906Y-72840886D01*
X217135078Y-72848996D01*
X217264659Y-72955341D01*
X217371004Y-73084922D01*
X217371005Y-73084924D01*
X217450024Y-73232758D01*
X217498687Y-73393177D01*
X217515117Y-73560000D01*
X217498687Y-73726823D01*
X217450024Y-73887242D01*
X217379114Y-74019906D01*
X217371004Y-74035078D01*
X217264659Y-74164659D01*
X217135078Y-74271004D01*
X217135076Y-74271005D01*
X216987242Y-74350024D01*
X216826823Y-74398687D01*
X216701804Y-74411000D01*
X216618196Y-74411000D01*
X216493177Y-74398687D01*
X216332758Y-74350024D01*
X216184924Y-74271005D01*
X216184922Y-74271004D01*
X216055341Y-74164659D01*
X215948996Y-74035078D01*
X215940886Y-74019906D01*
X215869976Y-73887242D01*
X215821313Y-73726823D01*
X215804883Y-73560000D01*
X215821313Y-73393177D01*
X215869976Y-73232758D01*
X215948995Y-73084924D01*
X215948996Y-73084922D01*
X216055341Y-72955341D01*
X216184922Y-72848996D01*
X216200094Y-72840886D01*
X216332758Y-72769976D01*
X216493177Y-72721313D01*
X216618196Y-72709000D01*
X216701804Y-72709000D01*
X216826823Y-72721313D01*
X216826823Y-72721313D01*
G37*
G36*
X168566823Y-72721313D02*
G01*
X168727242Y-72769976D01*
X168859906Y-72840886D01*
X168875078Y-72848996D01*
X169004659Y-72955341D01*
X169111004Y-73084922D01*
X169111005Y-73084924D01*
X169190024Y-73232758D01*
X169238687Y-73393177D01*
X169255117Y-73560000D01*
X169238687Y-73726823D01*
X169190024Y-73887242D01*
X169119114Y-74019906D01*
X169111004Y-74035078D01*
X169004659Y-74164659D01*
X168875078Y-74271004D01*
X168875076Y-74271005D01*
X168727242Y-74350024D01*
X168566823Y-74398687D01*
X168441804Y-74411000D01*
X168358196Y-74411000D01*
X168233177Y-74398687D01*
X168072758Y-74350024D01*
X167924924Y-74271005D01*
X167924922Y-74271004D01*
X167795341Y-74164659D01*
X167688996Y-74035078D01*
X167680886Y-74019906D01*
X167609976Y-73887242D01*
X167561313Y-73726823D01*
X167544883Y-73560000D01*
X167561313Y-73393177D01*
X167609976Y-73232758D01*
X167688995Y-73084924D01*
X167688996Y-73084922D01*
X167795341Y-72955341D01*
X167924922Y-72848996D01*
X167940094Y-72840886D01*
X168072758Y-72769976D01*
X168233177Y-72721313D01*
X168358196Y-72709000D01*
X168441804Y-72709000D01*
X168566823Y-72721313D01*
X168566823Y-72721313D01*
G37*
G36*
X211746823Y-72721313D02*
G01*
X211907242Y-72769976D01*
X212039906Y-72840886D01*
X212055078Y-72848996D01*
X212184659Y-72955341D01*
X212291004Y-73084922D01*
X212291005Y-73084924D01*
X212370024Y-73232758D01*
X212418687Y-73393177D01*
X212435117Y-73560000D01*
X212418687Y-73726823D01*
X212370024Y-73887242D01*
X212299114Y-74019906D01*
X212291004Y-74035078D01*
X212184659Y-74164659D01*
X212055078Y-74271004D01*
X212055076Y-74271005D01*
X211907242Y-74350024D01*
X211746823Y-74398687D01*
X211621804Y-74411000D01*
X211538196Y-74411000D01*
X211413177Y-74398687D01*
X211252758Y-74350024D01*
X211104924Y-74271005D01*
X211104922Y-74271004D01*
X210975341Y-74164659D01*
X210868996Y-74035078D01*
X210860886Y-74019906D01*
X210789976Y-73887242D01*
X210741313Y-73726823D01*
X210724883Y-73560000D01*
X210741313Y-73393177D01*
X210789976Y-73232758D01*
X210868995Y-73084924D01*
X210868996Y-73084922D01*
X210975341Y-72955341D01*
X211104922Y-72848996D01*
X211120094Y-72840886D01*
X211252758Y-72769976D01*
X211413177Y-72721313D01*
X211538196Y-72709000D01*
X211621804Y-72709000D01*
X211746823Y-72721313D01*
X211746823Y-72721313D01*
G37*
G36*
X171106823Y-72721313D02*
G01*
X171267242Y-72769976D01*
X171399906Y-72840886D01*
X171415078Y-72848996D01*
X171544659Y-72955341D01*
X171651004Y-73084922D01*
X171651005Y-73084924D01*
X171730024Y-73232758D01*
X171778687Y-73393177D01*
X171795117Y-73560000D01*
X171778687Y-73726823D01*
X171730024Y-73887242D01*
X171659114Y-74019906D01*
X171651004Y-74035078D01*
X171544659Y-74164659D01*
X171415078Y-74271004D01*
X171415076Y-74271005D01*
X171267242Y-74350024D01*
X171106823Y-74398687D01*
X170981804Y-74411000D01*
X170898196Y-74411000D01*
X170773177Y-74398687D01*
X170612758Y-74350024D01*
X170464924Y-74271005D01*
X170464922Y-74271004D01*
X170335341Y-74164659D01*
X170228996Y-74035078D01*
X170220886Y-74019906D01*
X170149976Y-73887242D01*
X170101313Y-73726823D01*
X170084883Y-73560000D01*
X170101313Y-73393177D01*
X170149976Y-73232758D01*
X170228995Y-73084924D01*
X170228996Y-73084922D01*
X170335341Y-72955341D01*
X170464922Y-72848996D01*
X170480094Y-72840886D01*
X170612758Y-72769976D01*
X170773177Y-72721313D01*
X170898196Y-72709000D01*
X170981804Y-72709000D01*
X171106823Y-72721313D01*
X171106823Y-72721313D01*
G37*
G36*
X209206823Y-72721313D02*
G01*
X209367242Y-72769976D01*
X209499906Y-72840886D01*
X209515078Y-72848996D01*
X209644659Y-72955341D01*
X209751004Y-73084922D01*
X209751005Y-73084924D01*
X209830024Y-73232758D01*
X209878687Y-73393177D01*
X209895117Y-73560000D01*
X209878687Y-73726823D01*
X209830024Y-73887242D01*
X209759114Y-74019906D01*
X209751004Y-74035078D01*
X209644659Y-74164659D01*
X209515078Y-74271004D01*
X209515076Y-74271005D01*
X209367242Y-74350024D01*
X209206823Y-74398687D01*
X209081804Y-74411000D01*
X208998196Y-74411000D01*
X208873177Y-74398687D01*
X208712758Y-74350024D01*
X208564924Y-74271005D01*
X208564922Y-74271004D01*
X208435341Y-74164659D01*
X208328996Y-74035078D01*
X208320886Y-74019906D01*
X208249976Y-73887242D01*
X208201313Y-73726823D01*
X208184883Y-73560000D01*
X208201313Y-73393177D01*
X208249976Y-73232758D01*
X208328995Y-73084924D01*
X208328996Y-73084922D01*
X208435341Y-72955341D01*
X208564922Y-72848996D01*
X208580094Y-72840886D01*
X208712758Y-72769976D01*
X208873177Y-72721313D01*
X208998196Y-72709000D01*
X209081804Y-72709000D01*
X209206823Y-72721313D01*
X209206823Y-72721313D01*
G37*
G36*
X173646823Y-72721313D02*
G01*
X173807242Y-72769976D01*
X173939906Y-72840886D01*
X173955078Y-72848996D01*
X174084659Y-72955341D01*
X174191004Y-73084922D01*
X174191005Y-73084924D01*
X174270024Y-73232758D01*
X174318687Y-73393177D01*
X174335117Y-73560000D01*
X174318687Y-73726823D01*
X174270024Y-73887242D01*
X174199114Y-74019906D01*
X174191004Y-74035078D01*
X174084659Y-74164659D01*
X173955078Y-74271004D01*
X173955076Y-74271005D01*
X173807242Y-74350024D01*
X173646823Y-74398687D01*
X173521804Y-74411000D01*
X173438196Y-74411000D01*
X173313177Y-74398687D01*
X173152758Y-74350024D01*
X173004924Y-74271005D01*
X173004922Y-74271004D01*
X172875341Y-74164659D01*
X172768996Y-74035078D01*
X172760886Y-74019906D01*
X172689976Y-73887242D01*
X172641313Y-73726823D01*
X172624883Y-73560000D01*
X172641313Y-73393177D01*
X172689976Y-73232758D01*
X172768995Y-73084924D01*
X172768996Y-73084922D01*
X172875341Y-72955341D01*
X173004922Y-72848996D01*
X173020094Y-72840886D01*
X173152758Y-72769976D01*
X173313177Y-72721313D01*
X173438196Y-72709000D01*
X173521804Y-72709000D01*
X173646823Y-72721313D01*
X173646823Y-72721313D01*
G37*
G36*
X206666823Y-72721313D02*
G01*
X206827242Y-72769976D01*
X206959906Y-72840886D01*
X206975078Y-72848996D01*
X207104659Y-72955341D01*
X207211004Y-73084922D01*
X207211005Y-73084924D01*
X207290024Y-73232758D01*
X207338687Y-73393177D01*
X207355117Y-73560000D01*
X207338687Y-73726823D01*
X207290024Y-73887242D01*
X207219114Y-74019906D01*
X207211004Y-74035078D01*
X207104659Y-74164659D01*
X206975078Y-74271004D01*
X206975076Y-74271005D01*
X206827242Y-74350024D01*
X206666823Y-74398687D01*
X206541804Y-74411000D01*
X206458196Y-74411000D01*
X206333177Y-74398687D01*
X206172758Y-74350024D01*
X206024924Y-74271005D01*
X206024922Y-74271004D01*
X205895341Y-74164659D01*
X205788996Y-74035078D01*
X205780886Y-74019906D01*
X205709976Y-73887242D01*
X205661313Y-73726823D01*
X205644883Y-73560000D01*
X205661313Y-73393177D01*
X205709976Y-73232758D01*
X205788995Y-73084924D01*
X205788996Y-73084922D01*
X205895341Y-72955341D01*
X206024922Y-72848996D01*
X206040094Y-72840886D01*
X206172758Y-72769976D01*
X206333177Y-72721313D01*
X206458196Y-72709000D01*
X206541804Y-72709000D01*
X206666823Y-72721313D01*
X206666823Y-72721313D01*
G37*
G36*
X176186823Y-72721313D02*
G01*
X176347242Y-72769976D01*
X176479906Y-72840886D01*
X176495078Y-72848996D01*
X176624659Y-72955341D01*
X176731004Y-73084922D01*
X176731005Y-73084924D01*
X176810024Y-73232758D01*
X176858687Y-73393177D01*
X176875117Y-73560000D01*
X176858687Y-73726823D01*
X176810024Y-73887242D01*
X176739114Y-74019906D01*
X176731004Y-74035078D01*
X176624659Y-74164659D01*
X176495078Y-74271004D01*
X176495076Y-74271005D01*
X176347242Y-74350024D01*
X176186823Y-74398687D01*
X176061804Y-74411000D01*
X175978196Y-74411000D01*
X175853177Y-74398687D01*
X175692758Y-74350024D01*
X175544924Y-74271005D01*
X175544922Y-74271004D01*
X175415341Y-74164659D01*
X175308996Y-74035078D01*
X175300886Y-74019906D01*
X175229976Y-73887242D01*
X175181313Y-73726823D01*
X175164883Y-73560000D01*
X175181313Y-73393177D01*
X175229976Y-73232758D01*
X175308995Y-73084924D01*
X175308996Y-73084922D01*
X175415341Y-72955341D01*
X175544922Y-72848996D01*
X175560094Y-72840886D01*
X175692758Y-72769976D01*
X175853177Y-72721313D01*
X175978196Y-72709000D01*
X176061804Y-72709000D01*
X176186823Y-72721313D01*
X176186823Y-72721313D01*
G37*
G36*
X204126823Y-72721313D02*
G01*
X204287242Y-72769976D01*
X204419906Y-72840886D01*
X204435078Y-72848996D01*
X204564659Y-72955341D01*
X204671004Y-73084922D01*
X204671005Y-73084924D01*
X204750024Y-73232758D01*
X204798687Y-73393177D01*
X204815117Y-73560000D01*
X204798687Y-73726823D01*
X204750024Y-73887242D01*
X204679114Y-74019906D01*
X204671004Y-74035078D01*
X204564659Y-74164659D01*
X204435078Y-74271004D01*
X204435076Y-74271005D01*
X204287242Y-74350024D01*
X204126823Y-74398687D01*
X204001804Y-74411000D01*
X203918196Y-74411000D01*
X203793177Y-74398687D01*
X203632758Y-74350024D01*
X203484924Y-74271005D01*
X203484922Y-74271004D01*
X203355341Y-74164659D01*
X203248996Y-74035078D01*
X203240886Y-74019906D01*
X203169976Y-73887242D01*
X203121313Y-73726823D01*
X203104883Y-73560000D01*
X203121313Y-73393177D01*
X203169976Y-73232758D01*
X203248995Y-73084924D01*
X203248996Y-73084922D01*
X203355341Y-72955341D01*
X203484922Y-72848996D01*
X203500094Y-72840886D01*
X203632758Y-72769976D01*
X203793177Y-72721313D01*
X203918196Y-72709000D01*
X204001804Y-72709000D01*
X204126823Y-72721313D01*
X204126823Y-72721313D01*
G37*
G36*
X178726823Y-72721313D02*
G01*
X178887242Y-72769976D01*
X179019906Y-72840886D01*
X179035078Y-72848996D01*
X179164659Y-72955341D01*
X179271004Y-73084922D01*
X179271005Y-73084924D01*
X179350024Y-73232758D01*
X179398687Y-73393177D01*
X179415117Y-73560000D01*
X179398687Y-73726823D01*
X179350024Y-73887242D01*
X179279114Y-74019906D01*
X179271004Y-74035078D01*
X179164659Y-74164659D01*
X179035078Y-74271004D01*
X179035076Y-74271005D01*
X178887242Y-74350024D01*
X178726823Y-74398687D01*
X178601804Y-74411000D01*
X178518196Y-74411000D01*
X178393177Y-74398687D01*
X178232758Y-74350024D01*
X178084924Y-74271005D01*
X178084922Y-74271004D01*
X177955341Y-74164659D01*
X177848996Y-74035078D01*
X177840886Y-74019906D01*
X177769976Y-73887242D01*
X177721313Y-73726823D01*
X177704883Y-73560000D01*
X177721313Y-73393177D01*
X177769976Y-73232758D01*
X177848995Y-73084924D01*
X177848996Y-73084922D01*
X177955341Y-72955341D01*
X178084922Y-72848996D01*
X178100094Y-72840886D01*
X178232758Y-72769976D01*
X178393177Y-72721313D01*
X178518196Y-72709000D01*
X178601804Y-72709000D01*
X178726823Y-72721313D01*
X178726823Y-72721313D01*
G37*
G36*
X201586823Y-72721313D02*
G01*
X201747242Y-72769976D01*
X201879906Y-72840886D01*
X201895078Y-72848996D01*
X202024659Y-72955341D01*
X202131004Y-73084922D01*
X202131005Y-73084924D01*
X202210024Y-73232758D01*
X202258687Y-73393177D01*
X202275117Y-73560000D01*
X202258687Y-73726823D01*
X202210024Y-73887242D01*
X202139114Y-74019906D01*
X202131004Y-74035078D01*
X202024659Y-74164659D01*
X201895078Y-74271004D01*
X201895076Y-74271005D01*
X201747242Y-74350024D01*
X201586823Y-74398687D01*
X201461804Y-74411000D01*
X201378196Y-74411000D01*
X201253177Y-74398687D01*
X201092758Y-74350024D01*
X200944924Y-74271005D01*
X200944922Y-74271004D01*
X200815341Y-74164659D01*
X200708996Y-74035078D01*
X200700886Y-74019906D01*
X200629976Y-73887242D01*
X200581313Y-73726823D01*
X200564883Y-73560000D01*
X200581313Y-73393177D01*
X200629976Y-73232758D01*
X200708995Y-73084924D01*
X200708996Y-73084922D01*
X200815341Y-72955341D01*
X200944922Y-72848996D01*
X200960094Y-72840886D01*
X201092758Y-72769976D01*
X201253177Y-72721313D01*
X201378196Y-72709000D01*
X201461804Y-72709000D01*
X201586823Y-72721313D01*
X201586823Y-72721313D01*
G37*
G36*
X181266823Y-72721313D02*
G01*
X181427242Y-72769976D01*
X181559906Y-72840886D01*
X181575078Y-72848996D01*
X181704659Y-72955341D01*
X181811004Y-73084922D01*
X181811005Y-73084924D01*
X181890024Y-73232758D01*
X181938687Y-73393177D01*
X181955117Y-73560000D01*
X181938687Y-73726823D01*
X181890024Y-73887242D01*
X181819114Y-74019906D01*
X181811004Y-74035078D01*
X181704659Y-74164659D01*
X181575078Y-74271004D01*
X181575076Y-74271005D01*
X181427242Y-74350024D01*
X181266823Y-74398687D01*
X181141804Y-74411000D01*
X181058196Y-74411000D01*
X180933177Y-74398687D01*
X180772758Y-74350024D01*
X180624924Y-74271005D01*
X180624922Y-74271004D01*
X180495341Y-74164659D01*
X180388996Y-74035078D01*
X180380886Y-74019906D01*
X180309976Y-73887242D01*
X180261313Y-73726823D01*
X180244883Y-73560000D01*
X180261313Y-73393177D01*
X180309976Y-73232758D01*
X180388995Y-73084924D01*
X180388996Y-73084922D01*
X180495341Y-72955341D01*
X180624922Y-72848996D01*
X180640094Y-72840886D01*
X180772758Y-72769976D01*
X180933177Y-72721313D01*
X181058196Y-72709000D01*
X181141804Y-72709000D01*
X181266823Y-72721313D01*
X181266823Y-72721313D01*
G37*
G36*
X199046823Y-72721313D02*
G01*
X199207242Y-72769976D01*
X199339906Y-72840886D01*
X199355078Y-72848996D01*
X199484659Y-72955341D01*
X199591004Y-73084922D01*
X199591005Y-73084924D01*
X199670024Y-73232758D01*
X199718687Y-73393177D01*
X199735117Y-73560000D01*
X199718687Y-73726823D01*
X199670024Y-73887242D01*
X199599114Y-74019906D01*
X199591004Y-74035078D01*
X199484659Y-74164659D01*
X199355078Y-74271004D01*
X199355076Y-74271005D01*
X199207242Y-74350024D01*
X199046823Y-74398687D01*
X198921804Y-74411000D01*
X198838196Y-74411000D01*
X198713177Y-74398687D01*
X198552758Y-74350024D01*
X198404924Y-74271005D01*
X198404922Y-74271004D01*
X198275341Y-74164659D01*
X198168996Y-74035078D01*
X198160886Y-74019906D01*
X198089976Y-73887242D01*
X198041313Y-73726823D01*
X198024883Y-73560000D01*
X198041313Y-73393177D01*
X198089976Y-73232758D01*
X198168995Y-73084924D01*
X198168996Y-73084922D01*
X198275341Y-72955341D01*
X198404922Y-72848996D01*
X198420094Y-72840886D01*
X198552758Y-72769976D01*
X198713177Y-72721313D01*
X198838196Y-72709000D01*
X198921804Y-72709000D01*
X199046823Y-72721313D01*
X199046823Y-72721313D01*
G37*
G36*
X183806823Y-72721313D02*
G01*
X183967242Y-72769976D01*
X184099906Y-72840886D01*
X184115078Y-72848996D01*
X184244659Y-72955341D01*
X184351004Y-73084922D01*
X184351005Y-73084924D01*
X184430024Y-73232758D01*
X184478687Y-73393177D01*
X184495117Y-73560000D01*
X184478687Y-73726823D01*
X184430024Y-73887242D01*
X184359114Y-74019906D01*
X184351004Y-74035078D01*
X184244659Y-74164659D01*
X184115078Y-74271004D01*
X184115076Y-74271005D01*
X183967242Y-74350024D01*
X183806823Y-74398687D01*
X183681804Y-74411000D01*
X183598196Y-74411000D01*
X183473177Y-74398687D01*
X183312758Y-74350024D01*
X183164924Y-74271005D01*
X183164922Y-74271004D01*
X183035341Y-74164659D01*
X182928996Y-74035078D01*
X182920886Y-74019906D01*
X182849976Y-73887242D01*
X182801313Y-73726823D01*
X182784883Y-73560000D01*
X182801313Y-73393177D01*
X182849976Y-73232758D01*
X182928995Y-73084924D01*
X182928996Y-73084922D01*
X183035341Y-72955341D01*
X183164922Y-72848996D01*
X183180094Y-72840886D01*
X183312758Y-72769976D01*
X183473177Y-72721313D01*
X183598196Y-72709000D01*
X183681804Y-72709000D01*
X183806823Y-72721313D01*
X183806823Y-72721313D01*
G37*
G36*
X196506823Y-72721313D02*
G01*
X196667242Y-72769976D01*
X196799906Y-72840886D01*
X196815078Y-72848996D01*
X196944659Y-72955341D01*
X197051004Y-73084922D01*
X197051005Y-73084924D01*
X197130024Y-73232758D01*
X197178687Y-73393177D01*
X197195117Y-73560000D01*
X197178687Y-73726823D01*
X197130024Y-73887242D01*
X197059114Y-74019906D01*
X197051004Y-74035078D01*
X196944659Y-74164659D01*
X196815078Y-74271004D01*
X196815076Y-74271005D01*
X196667242Y-74350024D01*
X196506823Y-74398687D01*
X196381804Y-74411000D01*
X196298196Y-74411000D01*
X196173177Y-74398687D01*
X196012758Y-74350024D01*
X195864924Y-74271005D01*
X195864922Y-74271004D01*
X195735341Y-74164659D01*
X195628996Y-74035078D01*
X195620886Y-74019906D01*
X195549976Y-73887242D01*
X195501313Y-73726823D01*
X195484883Y-73560000D01*
X195501313Y-73393177D01*
X195549976Y-73232758D01*
X195628995Y-73084924D01*
X195628996Y-73084922D01*
X195735341Y-72955341D01*
X195864922Y-72848996D01*
X195880094Y-72840886D01*
X196012758Y-72769976D01*
X196173177Y-72721313D01*
X196298196Y-72709000D01*
X196381804Y-72709000D01*
X196506823Y-72721313D01*
X196506823Y-72721313D01*
G37*
G36*
X186346823Y-72721313D02*
G01*
X186507242Y-72769976D01*
X186639906Y-72840886D01*
X186655078Y-72848996D01*
X186784659Y-72955341D01*
X186891004Y-73084922D01*
X186891005Y-73084924D01*
X186970024Y-73232758D01*
X187018687Y-73393177D01*
X187035117Y-73560000D01*
X187018687Y-73726823D01*
X186970024Y-73887242D01*
X186899114Y-74019906D01*
X186891004Y-74035078D01*
X186784659Y-74164659D01*
X186655078Y-74271004D01*
X186655076Y-74271005D01*
X186507242Y-74350024D01*
X186346823Y-74398687D01*
X186221804Y-74411000D01*
X186138196Y-74411000D01*
X186013177Y-74398687D01*
X185852758Y-74350024D01*
X185704924Y-74271005D01*
X185704922Y-74271004D01*
X185575341Y-74164659D01*
X185468996Y-74035078D01*
X185460886Y-74019906D01*
X185389976Y-73887242D01*
X185341313Y-73726823D01*
X185324883Y-73560000D01*
X185341313Y-73393177D01*
X185389976Y-73232758D01*
X185468995Y-73084924D01*
X185468996Y-73084922D01*
X185575341Y-72955341D01*
X185704922Y-72848996D01*
X185720094Y-72840886D01*
X185852758Y-72769976D01*
X186013177Y-72721313D01*
X186138196Y-72709000D01*
X186221804Y-72709000D01*
X186346823Y-72721313D01*
X186346823Y-72721313D01*
G37*
G36*
X193966823Y-72721313D02*
G01*
X194127242Y-72769976D01*
X194259906Y-72840886D01*
X194275078Y-72848996D01*
X194404659Y-72955341D01*
X194511004Y-73084922D01*
X194511005Y-73084924D01*
X194590024Y-73232758D01*
X194638687Y-73393177D01*
X194655117Y-73560000D01*
X194638687Y-73726823D01*
X194590024Y-73887242D01*
X194519114Y-74019906D01*
X194511004Y-74035078D01*
X194404659Y-74164659D01*
X194275078Y-74271004D01*
X194275076Y-74271005D01*
X194127242Y-74350024D01*
X193966823Y-74398687D01*
X193841804Y-74411000D01*
X193758196Y-74411000D01*
X193633177Y-74398687D01*
X193472758Y-74350024D01*
X193324924Y-74271005D01*
X193324922Y-74271004D01*
X193195341Y-74164659D01*
X193088996Y-74035078D01*
X193080886Y-74019906D01*
X193009976Y-73887242D01*
X192961313Y-73726823D01*
X192944883Y-73560000D01*
X192961313Y-73393177D01*
X193009976Y-73232758D01*
X193088995Y-73084924D01*
X193088996Y-73084922D01*
X193195341Y-72955341D01*
X193324922Y-72848996D01*
X193340094Y-72840886D01*
X193472758Y-72769976D01*
X193633177Y-72721313D01*
X193758196Y-72709000D01*
X193841804Y-72709000D01*
X193966823Y-72721313D01*
X193966823Y-72721313D01*
G37*
G36*
X188886823Y-72721313D02*
G01*
X189047242Y-72769976D01*
X189179906Y-72840886D01*
X189195078Y-72848996D01*
X189324659Y-72955341D01*
X189431004Y-73084922D01*
X189431005Y-73084924D01*
X189510024Y-73232758D01*
X189558687Y-73393177D01*
X189575117Y-73560000D01*
X189558687Y-73726823D01*
X189510024Y-73887242D01*
X189439114Y-74019906D01*
X189431004Y-74035078D01*
X189324659Y-74164659D01*
X189195078Y-74271004D01*
X189195076Y-74271005D01*
X189047242Y-74350024D01*
X188886823Y-74398687D01*
X188761804Y-74411000D01*
X188678196Y-74411000D01*
X188553177Y-74398687D01*
X188392758Y-74350024D01*
X188244924Y-74271005D01*
X188244922Y-74271004D01*
X188115341Y-74164659D01*
X188008996Y-74035078D01*
X188000886Y-74019906D01*
X187929976Y-73887242D01*
X187881313Y-73726823D01*
X187864883Y-73560000D01*
X187881313Y-73393177D01*
X187929976Y-73232758D01*
X188008995Y-73084924D01*
X188008996Y-73084922D01*
X188115341Y-72955341D01*
X188244922Y-72848996D01*
X188260094Y-72840886D01*
X188392758Y-72769976D01*
X188553177Y-72721313D01*
X188678196Y-72709000D01*
X188761804Y-72709000D01*
X188886823Y-72721313D01*
X188886823Y-72721313D01*
G37*
G36*
X191426823Y-72721313D02*
G01*
X191587242Y-72769976D01*
X191719906Y-72840886D01*
X191735078Y-72848996D01*
X191864659Y-72955341D01*
X191971004Y-73084922D01*
X191971005Y-73084924D01*
X192050024Y-73232758D01*
X192098687Y-73393177D01*
X192115117Y-73560000D01*
X192098687Y-73726823D01*
X192050024Y-73887242D01*
X191979114Y-74019906D01*
X191971004Y-74035078D01*
X191864659Y-74164659D01*
X191735078Y-74271004D01*
X191735076Y-74271005D01*
X191587242Y-74350024D01*
X191426823Y-74398687D01*
X191301804Y-74411000D01*
X191218196Y-74411000D01*
X191093177Y-74398687D01*
X190932758Y-74350024D01*
X190784924Y-74271005D01*
X190784922Y-74271004D01*
X190655341Y-74164659D01*
X190548996Y-74035078D01*
X190540886Y-74019906D01*
X190469976Y-73887242D01*
X190421313Y-73726823D01*
X190404883Y-73560000D01*
X190421313Y-73393177D01*
X190469976Y-73232758D01*
X190548995Y-73084924D01*
X190548996Y-73084922D01*
X190655341Y-72955341D01*
X190784922Y-72848996D01*
X190800094Y-72840886D01*
X190932758Y-72769976D01*
X191093177Y-72721313D01*
X191218196Y-72709000D01*
X191301804Y-72709000D01*
X191426823Y-72721313D01*
X191426823Y-72721313D01*
G37*
M02*
