G04 #@! TF.GenerationSoftware,KiCad,Pcbnew,(5.1.2-1)-1*
G04 #@! TF.CreationDate,2019-06-14T19:54:31-04:00*
G04 #@! TF.ProjectId,100base-t1-converter,31303062-6173-4652-9d74-312d636f6e76,rev?*
G04 #@! TF.SameCoordinates,Original*
G04 #@! TF.FileFunction,Legend,Top*
G04 #@! TF.FilePolarity,Positive*
%FSLAX46Y46*%
G04 Gerber Fmt 4.6, Leading zero omitted, Abs format (unit mm)*
G04 Created by KiCad (PCBNEW (5.1.2-1)-1) date 2019-06-14 19:54:31*
%MOMM*%
%LPD*%
G04 APERTURE LIST*
%ADD10C,0.150000*%
%ADD11C,0.120000*%
G04 APERTURE END LIST*
D10*
X225180952Y-76328571D02*
X225323809Y-76376190D01*
X225371428Y-76423809D01*
X225419047Y-76519047D01*
X225419047Y-76661904D01*
X225371428Y-76757142D01*
X225323809Y-76804761D01*
X225228571Y-76852380D01*
X224847619Y-76852380D01*
X224847619Y-75852380D01*
X225180952Y-75852380D01*
X225276190Y-75900000D01*
X225323809Y-75947619D01*
X225371428Y-76042857D01*
X225371428Y-76138095D01*
X225323809Y-76233333D01*
X225276190Y-76280952D01*
X225180952Y-76328571D01*
X224847619Y-76328571D01*
X225990476Y-76852380D02*
X225895238Y-76804761D01*
X225847619Y-76709523D01*
X225847619Y-75852380D01*
X226800000Y-76185714D02*
X226800000Y-76852380D01*
X226371428Y-76185714D02*
X226371428Y-76709523D01*
X226419047Y-76804761D01*
X226514285Y-76852380D01*
X226657142Y-76852380D01*
X226752380Y-76804761D01*
X226800000Y-76757142D01*
X227657142Y-76804761D02*
X227561904Y-76852380D01*
X227371428Y-76852380D01*
X227276190Y-76804761D01*
X227228571Y-76709523D01*
X227228571Y-76328571D01*
X227276190Y-76233333D01*
X227371428Y-76185714D01*
X227561904Y-76185714D01*
X227657142Y-76233333D01*
X227704761Y-76328571D01*
X227704761Y-76423809D01*
X227228571Y-76519047D01*
X228895238Y-76852380D02*
X228895238Y-75852380D01*
X229276190Y-75852380D01*
X229371428Y-75900000D01*
X229419047Y-75947619D01*
X229466666Y-76042857D01*
X229466666Y-76185714D01*
X229419047Y-76280952D01*
X229371428Y-76328571D01*
X229276190Y-76376190D01*
X228895238Y-76376190D01*
X229895238Y-76852380D02*
X229895238Y-76185714D01*
X229895238Y-75852380D02*
X229847619Y-75900000D01*
X229895238Y-75947619D01*
X229942857Y-75900000D01*
X229895238Y-75852380D01*
X229895238Y-75947619D01*
X230514285Y-76852380D02*
X230419047Y-76804761D01*
X230371428Y-76709523D01*
X230371428Y-75852380D01*
X231038095Y-76852380D02*
X230942857Y-76804761D01*
X230895238Y-76709523D01*
X230895238Y-75852380D01*
X232180952Y-76471428D02*
X232942857Y-76471428D01*
X232561904Y-76852380D02*
X232561904Y-76090476D01*
X233895238Y-75852380D02*
X233419047Y-75852380D01*
X233371428Y-76328571D01*
X233419047Y-76280952D01*
X233514285Y-76233333D01*
X233752380Y-76233333D01*
X233847619Y-76280952D01*
X233895238Y-76328571D01*
X233942857Y-76423809D01*
X233942857Y-76661904D01*
X233895238Y-76757142D01*
X233847619Y-76804761D01*
X233752380Y-76852380D01*
X233514285Y-76852380D01*
X233419047Y-76804761D01*
X233371428Y-76757142D01*
X234228571Y-75852380D02*
X234561904Y-76852380D01*
X234895238Y-75852380D01*
X198790476Y-120404761D02*
X198933333Y-120452380D01*
X199171428Y-120452380D01*
X199266666Y-120404761D01*
X199314285Y-120357142D01*
X199361904Y-120261904D01*
X199361904Y-120166666D01*
X199314285Y-120071428D01*
X199266666Y-120023809D01*
X199171428Y-119976190D01*
X198980952Y-119928571D01*
X198885714Y-119880952D01*
X198838095Y-119833333D01*
X198790476Y-119738095D01*
X198790476Y-119642857D01*
X198838095Y-119547619D01*
X198885714Y-119500000D01*
X198980952Y-119452380D01*
X199219047Y-119452380D01*
X199361904Y-119500000D01*
X199933333Y-120452380D02*
X199838095Y-120404761D01*
X199790476Y-120309523D01*
X199790476Y-119452380D01*
X200742857Y-120452380D02*
X200742857Y-119928571D01*
X200695238Y-119833333D01*
X200600000Y-119785714D01*
X200409523Y-119785714D01*
X200314285Y-119833333D01*
X200742857Y-120404761D02*
X200647619Y-120452380D01*
X200409523Y-120452380D01*
X200314285Y-120404761D01*
X200266666Y-120309523D01*
X200266666Y-120214285D01*
X200314285Y-120119047D01*
X200409523Y-120071428D01*
X200647619Y-120071428D01*
X200742857Y-120023809D01*
X201123809Y-119785714D02*
X201361904Y-120452380D01*
X201600000Y-119785714D01*
X202361904Y-120404761D02*
X202266666Y-120452380D01*
X202076190Y-120452380D01*
X201980952Y-120404761D01*
X201933333Y-120309523D01*
X201933333Y-119928571D01*
X201980952Y-119833333D01*
X202076190Y-119785714D01*
X202266666Y-119785714D01*
X202361904Y-119833333D01*
X202409523Y-119928571D01*
X202409523Y-120023809D01*
X201933333Y-120119047D01*
X211585714Y-120452380D02*
X211585714Y-119452380D01*
X211919047Y-120166666D01*
X212252380Y-119452380D01*
X212252380Y-120452380D01*
X213157142Y-120452380D02*
X213157142Y-119928571D01*
X213109523Y-119833333D01*
X213014285Y-119785714D01*
X212823809Y-119785714D01*
X212728571Y-119833333D01*
X213157142Y-120404761D02*
X213061904Y-120452380D01*
X212823809Y-120452380D01*
X212728571Y-120404761D01*
X212680952Y-120309523D01*
X212680952Y-120214285D01*
X212728571Y-120119047D01*
X212823809Y-120071428D01*
X213061904Y-120071428D01*
X213157142Y-120023809D01*
X213585714Y-120404761D02*
X213680952Y-120452380D01*
X213871428Y-120452380D01*
X213966666Y-120404761D01*
X214014285Y-120309523D01*
X214014285Y-120261904D01*
X213966666Y-120166666D01*
X213871428Y-120119047D01*
X213728571Y-120119047D01*
X213633333Y-120071428D01*
X213585714Y-119976190D01*
X213585714Y-119928571D01*
X213633333Y-119833333D01*
X213728571Y-119785714D01*
X213871428Y-119785714D01*
X213966666Y-119833333D01*
X214300000Y-119785714D02*
X214680952Y-119785714D01*
X214442857Y-119452380D02*
X214442857Y-120309523D01*
X214490476Y-120404761D01*
X214585714Y-120452380D01*
X214680952Y-120452380D01*
X215395238Y-120404761D02*
X215300000Y-120452380D01*
X215109523Y-120452380D01*
X215014285Y-120404761D01*
X214966666Y-120309523D01*
X214966666Y-119928571D01*
X215014285Y-119833333D01*
X215109523Y-119785714D01*
X215300000Y-119785714D01*
X215395238Y-119833333D01*
X215442857Y-119928571D01*
X215442857Y-120023809D01*
X214966666Y-120119047D01*
X215871428Y-120452380D02*
X215871428Y-119785714D01*
X215871428Y-119976190D02*
X215919047Y-119880952D01*
X215966666Y-119833333D01*
X216061904Y-119785714D01*
X216157142Y-119785714D01*
X196376190Y-114252380D02*
X196376190Y-113252380D01*
X196709523Y-113966666D01*
X197042857Y-113252380D01*
X197042857Y-114252380D01*
X197947619Y-114252380D02*
X197947619Y-113728571D01*
X197900000Y-113633333D01*
X197804761Y-113585714D01*
X197614285Y-113585714D01*
X197519047Y-113633333D01*
X197947619Y-114204761D02*
X197852380Y-114252380D01*
X197614285Y-114252380D01*
X197519047Y-114204761D01*
X197471428Y-114109523D01*
X197471428Y-114014285D01*
X197519047Y-113919047D01*
X197614285Y-113871428D01*
X197852380Y-113871428D01*
X197947619Y-113823809D01*
X198423809Y-113585714D02*
X198423809Y-114252380D01*
X198423809Y-113680952D02*
X198471428Y-113633333D01*
X198566666Y-113585714D01*
X198709523Y-113585714D01*
X198804761Y-113633333D01*
X198852380Y-113728571D01*
X198852380Y-114252380D01*
X199757142Y-114252380D02*
X199757142Y-113728571D01*
X199709523Y-113633333D01*
X199614285Y-113585714D01*
X199423809Y-113585714D01*
X199328571Y-113633333D01*
X199757142Y-114204761D02*
X199661904Y-114252380D01*
X199423809Y-114252380D01*
X199328571Y-114204761D01*
X199280952Y-114109523D01*
X199280952Y-114014285D01*
X199328571Y-113919047D01*
X199423809Y-113871428D01*
X199661904Y-113871428D01*
X199757142Y-113823809D01*
X200661904Y-113585714D02*
X200661904Y-114395238D01*
X200614285Y-114490476D01*
X200566666Y-114538095D01*
X200471428Y-114585714D01*
X200328571Y-114585714D01*
X200233333Y-114538095D01*
X200661904Y-114204761D02*
X200566666Y-114252380D01*
X200376190Y-114252380D01*
X200280952Y-114204761D01*
X200233333Y-114157142D01*
X200185714Y-114061904D01*
X200185714Y-113776190D01*
X200233333Y-113680952D01*
X200280952Y-113633333D01*
X200376190Y-113585714D01*
X200566666Y-113585714D01*
X200661904Y-113633333D01*
X201519047Y-114204761D02*
X201423809Y-114252380D01*
X201233333Y-114252380D01*
X201138095Y-114204761D01*
X201090476Y-114109523D01*
X201090476Y-113728571D01*
X201138095Y-113633333D01*
X201233333Y-113585714D01*
X201423809Y-113585714D01*
X201519047Y-113633333D01*
X201566666Y-113728571D01*
X201566666Y-113823809D01*
X201090476Y-113919047D01*
X202423809Y-114252380D02*
X202423809Y-113252380D01*
X202423809Y-114204761D02*
X202328571Y-114252380D01*
X202138095Y-114252380D01*
X202042857Y-114204761D01*
X201995238Y-114157142D01*
X201947619Y-114061904D01*
X201947619Y-113776190D01*
X201995238Y-113680952D01*
X202042857Y-113633333D01*
X202138095Y-113585714D01*
X202328571Y-113585714D01*
X202423809Y-113633333D01*
X211690476Y-113966666D02*
X212166666Y-113966666D01*
X211595238Y-114252380D02*
X211928571Y-113252380D01*
X212261904Y-114252380D01*
X213023809Y-113585714D02*
X213023809Y-114252380D01*
X212595238Y-113585714D02*
X212595238Y-114109523D01*
X212642857Y-114204761D01*
X212738095Y-114252380D01*
X212880952Y-114252380D01*
X212976190Y-114204761D01*
X213023809Y-114157142D01*
X213357142Y-113585714D02*
X213738095Y-113585714D01*
X213500000Y-113252380D02*
X213500000Y-114109523D01*
X213547619Y-114204761D01*
X213642857Y-114252380D01*
X213738095Y-114252380D01*
X214214285Y-114252380D02*
X214119047Y-114204761D01*
X214071428Y-114157142D01*
X214023809Y-114061904D01*
X214023809Y-113776190D01*
X214071428Y-113680952D01*
X214119047Y-113633333D01*
X214214285Y-113585714D01*
X214357142Y-113585714D01*
X214452380Y-113633333D01*
X214500000Y-113680952D01*
X214547619Y-113776190D01*
X214547619Y-114061904D01*
X214500000Y-114157142D01*
X214452380Y-114204761D01*
X214357142Y-114252380D01*
X214214285Y-114252380D01*
X214976190Y-113585714D02*
X214976190Y-114252380D01*
X214976190Y-113680952D02*
X215023809Y-113633333D01*
X215119047Y-113585714D01*
X215261904Y-113585714D01*
X215357142Y-113633333D01*
X215404761Y-113728571D01*
X215404761Y-114252380D01*
X216023809Y-114252380D02*
X215928571Y-114204761D01*
X215880952Y-114157142D01*
X215833333Y-114061904D01*
X215833333Y-113776190D01*
X215880952Y-113680952D01*
X215928571Y-113633333D01*
X216023809Y-113585714D01*
X216166666Y-113585714D01*
X216261904Y-113633333D01*
X216309523Y-113680952D01*
X216357142Y-113776190D01*
X216357142Y-114061904D01*
X216309523Y-114157142D01*
X216261904Y-114204761D01*
X216166666Y-114252380D01*
X216023809Y-114252380D01*
X216785714Y-114252380D02*
X216785714Y-113585714D01*
X216785714Y-113680952D02*
X216833333Y-113633333D01*
X216928571Y-113585714D01*
X217071428Y-113585714D01*
X217166666Y-113633333D01*
X217214285Y-113728571D01*
X217214285Y-114252380D01*
X217214285Y-113728571D02*
X217261904Y-113633333D01*
X217357142Y-113585714D01*
X217500000Y-113585714D01*
X217595238Y-113633333D01*
X217642857Y-113728571D01*
X217642857Y-114252380D01*
X218261904Y-114252380D02*
X218166666Y-114204761D01*
X218119047Y-114157142D01*
X218071428Y-114061904D01*
X218071428Y-113776190D01*
X218119047Y-113680952D01*
X218166666Y-113633333D01*
X218261904Y-113585714D01*
X218404761Y-113585714D01*
X218500000Y-113633333D01*
X218547619Y-113680952D01*
X218595238Y-113776190D01*
X218595238Y-114061904D01*
X218547619Y-114157142D01*
X218500000Y-114204761D01*
X218404761Y-114252380D01*
X218261904Y-114252380D01*
X219452380Y-113585714D02*
X219452380Y-114252380D01*
X219023809Y-113585714D02*
X219023809Y-114109523D01*
X219071428Y-114204761D01*
X219166666Y-114252380D01*
X219309523Y-114252380D01*
X219404761Y-114204761D01*
X219452380Y-114157142D01*
X219880952Y-114204761D02*
X219976190Y-114252380D01*
X220166666Y-114252380D01*
X220261904Y-114204761D01*
X220309523Y-114109523D01*
X220309523Y-114061904D01*
X220261904Y-113966666D01*
X220166666Y-113919047D01*
X220023809Y-113919047D01*
X219928571Y-113871428D01*
X219880952Y-113776190D01*
X219880952Y-113728571D01*
X219928571Y-113633333D01*
X220023809Y-113585714D01*
X220166666Y-113585714D01*
X220261904Y-113633333D01*
D11*
X252210000Y-110140000D02*
X252460000Y-110140000D01*
X252060000Y-110240000D02*
X252060000Y-110490000D01*
X239880000Y-94120000D02*
X252330000Y-94120000D01*
X252330000Y-94120000D02*
X252330000Y-110360000D01*
X239880000Y-110360000D02*
X252330000Y-110360000D01*
X230690000Y-110360000D02*
X236600000Y-110360000D01*
X230690000Y-94120000D02*
X236600000Y-94120000D01*
X230690000Y-110360000D02*
X230690000Y-94120000D01*
X213090000Y-98446267D02*
X213090000Y-98103733D01*
X214110000Y-98446267D02*
X214110000Y-98103733D01*
X220953733Y-98090000D02*
X221296267Y-98090000D01*
X220953733Y-99110000D02*
X221296267Y-99110000D01*
X226490000Y-95953733D02*
X226490000Y-96296267D01*
X227510000Y-95953733D02*
X227510000Y-96296267D01*
X238250000Y-87406267D02*
X238250000Y-87063733D01*
X239270000Y-87406267D02*
X239270000Y-87063733D01*
X230093733Y-90930000D02*
X230436267Y-90930000D01*
X230093733Y-91950000D02*
X230436267Y-91950000D01*
X198510000Y-98896267D02*
X198510000Y-98553733D01*
X197490000Y-98896267D02*
X197490000Y-98553733D01*
X208246267Y-106710000D02*
X207903733Y-106710000D01*
X208246267Y-105690000D02*
X207903733Y-105690000D01*
X196828733Y-103290000D02*
X197171267Y-103290000D01*
X196828733Y-104310000D02*
X197171267Y-104310000D01*
X196903733Y-102710000D02*
X197246267Y-102710000D01*
X196903733Y-101690000D02*
X197246267Y-101690000D01*
X208246267Y-102890000D02*
X207903733Y-102890000D01*
X208246267Y-103910000D02*
X207903733Y-103910000D01*
X207753733Y-97490000D02*
X208096267Y-97490000D01*
X207753733Y-98510000D02*
X208096267Y-98510000D01*
X202503733Y-109510000D02*
X202846267Y-109510000D01*
X202503733Y-108490000D02*
X202846267Y-108490000D01*
X202503733Y-110090000D02*
X202846267Y-110090000D01*
X202503733Y-111110000D02*
X202846267Y-111110000D01*
X202490000Y-106446267D02*
X202490000Y-106103733D01*
X203510000Y-106446267D02*
X203510000Y-106103733D01*
X199446267Y-105910000D02*
X199103733Y-105910000D01*
X199446267Y-104890000D02*
X199103733Y-104890000D01*
X180710000Y-102153733D02*
X180710000Y-102496267D01*
X179690000Y-102153733D02*
X179690000Y-102496267D01*
X180710000Y-99046267D02*
X180710000Y-98703733D01*
X179690000Y-99046267D02*
X179690000Y-98703733D01*
X185753733Y-113510000D02*
X186096267Y-113510000D01*
X185753733Y-112490000D02*
X186096267Y-112490000D01*
X186096267Y-115110000D02*
X185753733Y-115110000D01*
X186096267Y-114090000D02*
X185753733Y-114090000D01*
X170553733Y-103290000D02*
X170896267Y-103290000D01*
X170553733Y-104310000D02*
X170896267Y-104310000D01*
X221753733Y-110910000D02*
X222096267Y-110910000D01*
X221753733Y-109890000D02*
X222096267Y-109890000D01*
X229010000Y-95953733D02*
X229010000Y-96296267D01*
X227990000Y-95953733D02*
X227990000Y-96296267D01*
X215696267Y-108310000D02*
X215353733Y-108310000D01*
X215696267Y-107290000D02*
X215353733Y-107290000D01*
X221753733Y-108290000D02*
X222096267Y-108290000D01*
X221753733Y-109310000D02*
X222096267Y-109310000D01*
X221753733Y-106690000D02*
X222096267Y-106690000D01*
X221753733Y-107710000D02*
X222096267Y-107710000D01*
X229260000Y-107953733D02*
X229260000Y-108296267D01*
X228240000Y-107953733D02*
X228240000Y-108296267D01*
X222446267Y-119490000D02*
X222103733Y-119490000D01*
X222446267Y-120510000D02*
X222103733Y-120510000D01*
X225753733Y-119490000D02*
X226096267Y-119490000D01*
X225753733Y-120510000D02*
X226096267Y-120510000D01*
X242308748Y-88190000D02*
X242831252Y-88190000D01*
X242308748Y-89610000D02*
X242831252Y-89610000D01*
X195096267Y-104890000D02*
X194753733Y-104890000D01*
X195096267Y-105910000D02*
X194753733Y-105910000D01*
X191896267Y-102710000D02*
X191553733Y-102710000D01*
X191896267Y-101690000D02*
X191553733Y-101690000D01*
X207903733Y-107290000D02*
X208246267Y-107290000D01*
X207903733Y-108310000D02*
X208246267Y-108310000D01*
X199290000Y-109846267D02*
X199290000Y-109503733D01*
X200310000Y-109846267D02*
X200310000Y-109503733D01*
X222096267Y-111490000D02*
X221753733Y-111490000D01*
X222096267Y-112510000D02*
X221753733Y-112510000D01*
X193150000Y-114300000D02*
X192350000Y-115100000D01*
X192350000Y-115100000D02*
X188050000Y-115100000D01*
X188050000Y-115100000D02*
X188050000Y-112500000D01*
X188050000Y-112500000D02*
X193150000Y-112500000D01*
X193150000Y-112500000D02*
X193150000Y-114300000D01*
X176600000Y-108600000D02*
X176600000Y-118600000D01*
X176600000Y-118600000D02*
X166600000Y-118600000D01*
X166600000Y-118600000D02*
X166600000Y-108600000D01*
X166600000Y-108600000D02*
X176600000Y-108600000D01*
X176600000Y-113600000D02*
X166600000Y-113600000D01*
X203130000Y-118800000D02*
X203130000Y-117470000D01*
X203130000Y-117470000D02*
X204460000Y-117470000D01*
X205730000Y-117470000D02*
X210870000Y-117470000D01*
X210870000Y-120130000D02*
X210870000Y-117470000D01*
X205730000Y-120130000D02*
X210870000Y-120130000D01*
X205730000Y-120130000D02*
X205730000Y-117470000D01*
X205730000Y-116330000D02*
X205730000Y-113670000D01*
X205730000Y-116330000D02*
X210870000Y-116330000D01*
X210870000Y-116330000D02*
X210870000Y-113670000D01*
X205730000Y-113670000D02*
X210870000Y-113670000D01*
X203130000Y-113670000D02*
X204460000Y-113670000D01*
X203130000Y-115000000D02*
X203130000Y-113670000D01*
X229870000Y-80530000D02*
X229870000Y-77870000D01*
X229870000Y-80530000D02*
X232470000Y-80530000D01*
X232470000Y-80530000D02*
X232470000Y-77870000D01*
X229870000Y-77870000D02*
X232470000Y-77870000D01*
X227270000Y-77870000D02*
X228600000Y-77870000D01*
X227270000Y-79200000D02*
X227270000Y-77870000D01*
X246420000Y-90920000D02*
X252420000Y-90920000D01*
X246420000Y-79920000D02*
X246420000Y-90920000D01*
X252420000Y-79920000D02*
X246420000Y-79920000D01*
X252420000Y-90920000D02*
X252420000Y-79920000D01*
X203490000Y-91753733D02*
X203490000Y-92096267D01*
X204510000Y-91753733D02*
X204510000Y-92096267D01*
X199753733Y-90290000D02*
X200096267Y-90290000D01*
X199753733Y-91310000D02*
X200096267Y-91310000D01*
X214690000Y-102046267D02*
X214690000Y-101703733D01*
X215710000Y-102046267D02*
X215710000Y-101703733D01*
X212510000Y-98446267D02*
X212510000Y-98103733D01*
X211490000Y-98446267D02*
X211490000Y-98103733D01*
X213090000Y-102846267D02*
X213090000Y-102503733D01*
X214110000Y-102846267D02*
X214110000Y-102503733D01*
X218090000Y-100246267D02*
X218090000Y-99903733D01*
X219110000Y-100246267D02*
X219110000Y-99903733D01*
X217510000Y-100246267D02*
X217510000Y-99903733D01*
X216490000Y-100246267D02*
X216490000Y-99903733D01*
X201710000Y-93896267D02*
X201710000Y-93553733D01*
X200690000Y-93896267D02*
X200690000Y-93553733D01*
X215353733Y-105690000D02*
X215696267Y-105690000D01*
X215353733Y-106710000D02*
X215696267Y-106710000D01*
X206296267Y-111110000D02*
X205953733Y-111110000D01*
X206296267Y-110090000D02*
X205953733Y-110090000D01*
X195890000Y-97896267D02*
X195890000Y-97553733D01*
X196910000Y-97896267D02*
X196910000Y-97553733D01*
X215953733Y-103890000D02*
X216296267Y-103890000D01*
X215953733Y-104910000D02*
X216296267Y-104910000D01*
X205710000Y-106303733D02*
X205710000Y-106646267D01*
X204690000Y-106303733D02*
X204690000Y-106646267D01*
X191510000Y-98896267D02*
X191510000Y-98553733D01*
X190490000Y-98896267D02*
X190490000Y-98553733D01*
X193110000Y-98553733D02*
X193110000Y-98896267D01*
X192090000Y-98553733D02*
X192090000Y-98896267D01*
X196090000Y-109553733D02*
X196090000Y-109896267D01*
X197110000Y-109553733D02*
X197110000Y-109896267D01*
X170896267Y-106110000D02*
X170553733Y-106110000D01*
X170896267Y-105090000D02*
X170553733Y-105090000D01*
X170503733Y-119090000D02*
X170846267Y-119090000D01*
X170503733Y-120110000D02*
X170846267Y-120110000D01*
X170553733Y-107910000D02*
X170896267Y-107910000D01*
X170553733Y-106890000D02*
X170896267Y-106890000D01*
X248696267Y-93220000D02*
X248353733Y-93220000D01*
X248696267Y-92200000D02*
X248353733Y-92200000D01*
X242510000Y-92296267D02*
X242510000Y-91953733D01*
X241490000Y-92296267D02*
X241490000Y-91953733D01*
X242953733Y-112270000D02*
X243296267Y-112270000D01*
X242953733Y-111250000D02*
X243296267Y-111250000D01*
X229260000Y-111796267D02*
X229260000Y-111453733D01*
X228240000Y-111796267D02*
X228240000Y-111453733D01*
X243246267Y-114110000D02*
X242903733Y-114110000D01*
X243246267Y-113090000D02*
X242903733Y-113090000D01*
X215696267Y-109910000D02*
X215353733Y-109910000D01*
X215696267Y-108890000D02*
X215353733Y-108890000D01*
X220903733Y-96490000D02*
X221246267Y-96490000D01*
X220903733Y-97510000D02*
X221246267Y-97510000D01*
X216553733Y-97310000D02*
X216896267Y-97310000D01*
X216553733Y-96290000D02*
X216896267Y-96290000D01*
X212110000Y-106646267D02*
X212110000Y-106303733D01*
X211090000Y-106646267D02*
X211090000Y-106303733D01*
X217110000Y-92353733D02*
X217110000Y-92696267D01*
X216090000Y-92353733D02*
X216090000Y-92696267D01*
X220490000Y-90153733D02*
X220490000Y-90496267D01*
X221510000Y-90153733D02*
X221510000Y-90496267D01*
X210910000Y-96246267D02*
X210910000Y-95903733D01*
X209890000Y-96246267D02*
X209890000Y-95903733D01*
X223953733Y-91710000D02*
X224296267Y-91710000D01*
X223953733Y-90690000D02*
X224296267Y-90690000D01*
X227960000Y-82950000D02*
X227960000Y-84210000D01*
X227960000Y-89770000D02*
X227960000Y-88510000D01*
X231720000Y-82950000D02*
X227960000Y-82950000D01*
X233970000Y-89770000D02*
X227960000Y-89770000D01*
X204985000Y-97890000D02*
X205710000Y-97890000D01*
X205710000Y-97890000D02*
X205710000Y-98615000D01*
X200215000Y-104110000D02*
X199490000Y-104110000D01*
X199490000Y-104110000D02*
X199490000Y-103385000D01*
X204985000Y-104110000D02*
X205710000Y-104110000D01*
X205710000Y-104110000D02*
X205710000Y-103385000D01*
X200215000Y-97890000D02*
X199490000Y-97890000D01*
X167070000Y-80180000D02*
G75*
G02X167070000Y-82180000I0J-1000000D01*
G01*
X167070000Y-82180000D02*
X167070000Y-87640000D01*
X167070000Y-87640000D02*
X217990000Y-87640000D01*
X217990000Y-87640000D02*
X217990000Y-74720000D01*
X217990000Y-74720000D02*
X167070000Y-74720000D01*
X167070000Y-74720000D02*
X167070000Y-80180000D01*
X220865000Y-105610000D02*
X220390000Y-105610000D01*
X220390000Y-105610000D02*
X220390000Y-105135000D01*
X225135000Y-100390000D02*
X225610000Y-100390000D01*
X225610000Y-100390000D02*
X225610000Y-100865000D01*
X220865000Y-100390000D02*
X220390000Y-100390000D01*
X220390000Y-100390000D02*
X220390000Y-100865000D01*
X225135000Y-105610000D02*
X225610000Y-105610000D01*
X181250000Y-90862500D02*
X181250000Y-106837500D01*
X186350000Y-90862500D02*
X181250000Y-90862500D01*
X186350000Y-106837500D02*
X186350000Y-90862500D01*
X229762500Y-113650000D02*
X213787500Y-113650000D01*
X213787500Y-113650000D02*
X213787500Y-118750000D01*
X213787500Y-118750000D02*
X229762500Y-118750000D01*
X227953733Y-99740000D02*
X228296267Y-99740000D01*
X227953733Y-100760000D02*
X228296267Y-100760000D01*
X209200000Y-102480000D02*
X210200000Y-102480000D01*
X209200000Y-99120000D02*
X210200000Y-99120000D01*
X221000000Y-95680000D02*
X222000000Y-95680000D01*
X221000000Y-92320000D02*
X222000000Y-92320000D01*
D10*
X229442380Y-102563333D02*
X230156666Y-102563333D01*
X230299523Y-102610952D01*
X230394761Y-102706190D01*
X230442380Y-102849047D01*
X230442380Y-102944285D01*
X229442380Y-101610952D02*
X229442380Y-102087142D01*
X229918571Y-102134761D01*
X229870952Y-102087142D01*
X229823333Y-101991904D01*
X229823333Y-101753809D01*
X229870952Y-101658571D01*
X229918571Y-101610952D01*
X230013809Y-101563333D01*
X230251904Y-101563333D01*
X230347142Y-101610952D01*
X230394761Y-101658571D01*
X230442380Y-101753809D01*
X230442380Y-101991904D01*
X230394761Y-102087142D01*
X230347142Y-102134761D01*
X213433333Y-96452380D02*
X213100000Y-95976190D01*
X212861904Y-96452380D02*
X212861904Y-95452380D01*
X213242857Y-95452380D01*
X213338095Y-95500000D01*
X213385714Y-95547619D01*
X213433333Y-95642857D01*
X213433333Y-95785714D01*
X213385714Y-95880952D01*
X213338095Y-95928571D01*
X213242857Y-95976190D01*
X212861904Y-95976190D01*
X214290476Y-95785714D02*
X214290476Y-96452380D01*
X214052380Y-95404761D02*
X213814285Y-96119047D01*
X214433333Y-96119047D01*
X223557142Y-98957142D02*
X223509523Y-99004761D01*
X223366666Y-99052380D01*
X223271428Y-99052380D01*
X223128571Y-99004761D01*
X223033333Y-98909523D01*
X222985714Y-98814285D01*
X222938095Y-98623809D01*
X222938095Y-98480952D01*
X222985714Y-98290476D01*
X223033333Y-98195238D01*
X223128571Y-98100000D01*
X223271428Y-98052380D01*
X223366666Y-98052380D01*
X223509523Y-98100000D01*
X223557142Y-98147619D01*
X223938095Y-98147619D02*
X223985714Y-98100000D01*
X224080952Y-98052380D01*
X224319047Y-98052380D01*
X224414285Y-98100000D01*
X224461904Y-98147619D01*
X224509523Y-98242857D01*
X224509523Y-98338095D01*
X224461904Y-98480952D01*
X223890476Y-99052380D01*
X224509523Y-99052380D01*
X225461904Y-99052380D02*
X224890476Y-99052380D01*
X225176190Y-99052380D02*
X225176190Y-98052380D01*
X225080952Y-98195238D01*
X224985714Y-98290476D01*
X224890476Y-98338095D01*
X225357142Y-94157142D02*
X225309523Y-94204761D01*
X225166666Y-94252380D01*
X225071428Y-94252380D01*
X224928571Y-94204761D01*
X224833333Y-94109523D01*
X224785714Y-94014285D01*
X224738095Y-93823809D01*
X224738095Y-93680952D01*
X224785714Y-93490476D01*
X224833333Y-93395238D01*
X224928571Y-93300000D01*
X225071428Y-93252380D01*
X225166666Y-93252380D01*
X225309523Y-93300000D01*
X225357142Y-93347619D01*
X226309523Y-94252380D02*
X225738095Y-94252380D01*
X226023809Y-94252380D02*
X226023809Y-93252380D01*
X225928571Y-93395238D01*
X225833333Y-93490476D01*
X225738095Y-93538095D01*
X226785714Y-94252380D02*
X226976190Y-94252380D01*
X227071428Y-94204761D01*
X227119047Y-94157142D01*
X227214285Y-94014285D01*
X227261904Y-93823809D01*
X227261904Y-93442857D01*
X227214285Y-93347619D01*
X227166666Y-93300000D01*
X227071428Y-93252380D01*
X226880952Y-93252380D01*
X226785714Y-93300000D01*
X226738095Y-93347619D01*
X226690476Y-93442857D01*
X226690476Y-93680952D01*
X226738095Y-93776190D01*
X226785714Y-93823809D01*
X226880952Y-93871428D01*
X227071428Y-93871428D01*
X227166666Y-93823809D01*
X227214285Y-93776190D01*
X227261904Y-93680952D01*
X237687142Y-87401666D02*
X237734761Y-87449285D01*
X237782380Y-87592142D01*
X237782380Y-87687380D01*
X237734761Y-87830238D01*
X237639523Y-87925476D01*
X237544285Y-87973095D01*
X237353809Y-88020714D01*
X237210952Y-88020714D01*
X237020476Y-87973095D01*
X236925238Y-87925476D01*
X236830000Y-87830238D01*
X236782380Y-87687380D01*
X236782380Y-87592142D01*
X236830000Y-87449285D01*
X236877619Y-87401666D01*
X237782380Y-86449285D02*
X237782380Y-87020714D01*
X237782380Y-86735000D02*
X236782380Y-86735000D01*
X236925238Y-86830238D01*
X237020476Y-86925476D01*
X237068095Y-87020714D01*
X230098333Y-90367142D02*
X230050714Y-90414761D01*
X229907857Y-90462380D01*
X229812619Y-90462380D01*
X229669761Y-90414761D01*
X229574523Y-90319523D01*
X229526904Y-90224285D01*
X229479285Y-90033809D01*
X229479285Y-89890952D01*
X229526904Y-89700476D01*
X229574523Y-89605238D01*
X229669761Y-89510000D01*
X229812619Y-89462380D01*
X229907857Y-89462380D01*
X230050714Y-89510000D01*
X230098333Y-89557619D01*
X230479285Y-89557619D02*
X230526904Y-89510000D01*
X230622142Y-89462380D01*
X230860238Y-89462380D01*
X230955476Y-89510000D01*
X231003095Y-89557619D01*
X231050714Y-89652857D01*
X231050714Y-89748095D01*
X231003095Y-89890952D01*
X230431666Y-90462380D01*
X231050714Y-90462380D01*
X197833333Y-96757142D02*
X197785714Y-96804761D01*
X197642857Y-96852380D01*
X197547619Y-96852380D01*
X197404761Y-96804761D01*
X197309523Y-96709523D01*
X197261904Y-96614285D01*
X197214285Y-96423809D01*
X197214285Y-96280952D01*
X197261904Y-96090476D01*
X197309523Y-95995238D01*
X197404761Y-95900000D01*
X197547619Y-95852380D01*
X197642857Y-95852380D01*
X197785714Y-95900000D01*
X197833333Y-95947619D01*
X198166666Y-95852380D02*
X198785714Y-95852380D01*
X198452380Y-96233333D01*
X198595238Y-96233333D01*
X198690476Y-96280952D01*
X198738095Y-96328571D01*
X198785714Y-96423809D01*
X198785714Y-96661904D01*
X198738095Y-96757142D01*
X198690476Y-96804761D01*
X198595238Y-96852380D01*
X198309523Y-96852380D01*
X198214285Y-96804761D01*
X198166666Y-96757142D01*
X207633333Y-105357142D02*
X207585714Y-105404761D01*
X207442857Y-105452380D01*
X207347619Y-105452380D01*
X207204761Y-105404761D01*
X207109523Y-105309523D01*
X207061904Y-105214285D01*
X207014285Y-105023809D01*
X207014285Y-104880952D01*
X207061904Y-104690476D01*
X207109523Y-104595238D01*
X207204761Y-104500000D01*
X207347619Y-104452380D01*
X207442857Y-104452380D01*
X207585714Y-104500000D01*
X207633333Y-104547619D01*
X208490476Y-104785714D02*
X208490476Y-105452380D01*
X208252380Y-104404761D02*
X208014285Y-105119047D01*
X208633333Y-105119047D01*
X194033333Y-104157142D02*
X193985714Y-104204761D01*
X193842857Y-104252380D01*
X193747619Y-104252380D01*
X193604761Y-104204761D01*
X193509523Y-104109523D01*
X193461904Y-104014285D01*
X193414285Y-103823809D01*
X193414285Y-103680952D01*
X193461904Y-103490476D01*
X193509523Y-103395238D01*
X193604761Y-103300000D01*
X193747619Y-103252380D01*
X193842857Y-103252380D01*
X193985714Y-103300000D01*
X194033333Y-103347619D01*
X194938095Y-103252380D02*
X194461904Y-103252380D01*
X194414285Y-103728571D01*
X194461904Y-103680952D01*
X194557142Y-103633333D01*
X194795238Y-103633333D01*
X194890476Y-103680952D01*
X194938095Y-103728571D01*
X194985714Y-103823809D01*
X194985714Y-104061904D01*
X194938095Y-104157142D01*
X194890476Y-104204761D01*
X194795238Y-104252380D01*
X194557142Y-104252380D01*
X194461904Y-104204761D01*
X194414285Y-104157142D01*
X194233333Y-102557142D02*
X194185714Y-102604761D01*
X194042857Y-102652380D01*
X193947619Y-102652380D01*
X193804761Y-102604761D01*
X193709523Y-102509523D01*
X193661904Y-102414285D01*
X193614285Y-102223809D01*
X193614285Y-102080952D01*
X193661904Y-101890476D01*
X193709523Y-101795238D01*
X193804761Y-101700000D01*
X193947619Y-101652380D01*
X194042857Y-101652380D01*
X194185714Y-101700000D01*
X194233333Y-101747619D01*
X195090476Y-101652380D02*
X194900000Y-101652380D01*
X194804761Y-101700000D01*
X194757142Y-101747619D01*
X194661904Y-101890476D01*
X194614285Y-102080952D01*
X194614285Y-102461904D01*
X194661904Y-102557142D01*
X194709523Y-102604761D01*
X194804761Y-102652380D01*
X194995238Y-102652380D01*
X195090476Y-102604761D01*
X195138095Y-102557142D01*
X195185714Y-102461904D01*
X195185714Y-102223809D01*
X195138095Y-102128571D01*
X195090476Y-102080952D01*
X194995238Y-102033333D01*
X194804761Y-102033333D01*
X194709523Y-102080952D01*
X194661904Y-102128571D01*
X194614285Y-102223809D01*
X210433333Y-103957142D02*
X210385714Y-104004761D01*
X210242857Y-104052380D01*
X210147619Y-104052380D01*
X210004761Y-104004761D01*
X209909523Y-103909523D01*
X209861904Y-103814285D01*
X209814285Y-103623809D01*
X209814285Y-103480952D01*
X209861904Y-103290476D01*
X209909523Y-103195238D01*
X210004761Y-103100000D01*
X210147619Y-103052380D01*
X210242857Y-103052380D01*
X210385714Y-103100000D01*
X210433333Y-103147619D01*
X210766666Y-103052380D02*
X211433333Y-103052380D01*
X211004761Y-104052380D01*
X207758333Y-96927142D02*
X207710714Y-96974761D01*
X207567857Y-97022380D01*
X207472619Y-97022380D01*
X207329761Y-96974761D01*
X207234523Y-96879523D01*
X207186904Y-96784285D01*
X207139285Y-96593809D01*
X207139285Y-96450952D01*
X207186904Y-96260476D01*
X207234523Y-96165238D01*
X207329761Y-96070000D01*
X207472619Y-96022380D01*
X207567857Y-96022380D01*
X207710714Y-96070000D01*
X207758333Y-96117619D01*
X208329761Y-96450952D02*
X208234523Y-96403333D01*
X208186904Y-96355714D01*
X208139285Y-96260476D01*
X208139285Y-96212857D01*
X208186904Y-96117619D01*
X208234523Y-96070000D01*
X208329761Y-96022380D01*
X208520238Y-96022380D01*
X208615476Y-96070000D01*
X208663095Y-96117619D01*
X208710714Y-96212857D01*
X208710714Y-96260476D01*
X208663095Y-96355714D01*
X208615476Y-96403333D01*
X208520238Y-96450952D01*
X208329761Y-96450952D01*
X208234523Y-96498571D01*
X208186904Y-96546190D01*
X208139285Y-96641428D01*
X208139285Y-96831904D01*
X208186904Y-96927142D01*
X208234523Y-96974761D01*
X208329761Y-97022380D01*
X208520238Y-97022380D01*
X208615476Y-96974761D01*
X208663095Y-96927142D01*
X208710714Y-96831904D01*
X208710714Y-96641428D01*
X208663095Y-96546190D01*
X208615476Y-96498571D01*
X208520238Y-96450952D01*
X205033333Y-109357142D02*
X204985714Y-109404761D01*
X204842857Y-109452380D01*
X204747619Y-109452380D01*
X204604761Y-109404761D01*
X204509523Y-109309523D01*
X204461904Y-109214285D01*
X204414285Y-109023809D01*
X204414285Y-108880952D01*
X204461904Y-108690476D01*
X204509523Y-108595238D01*
X204604761Y-108500000D01*
X204747619Y-108452380D01*
X204842857Y-108452380D01*
X204985714Y-108500000D01*
X205033333Y-108547619D01*
X205509523Y-109452380D02*
X205700000Y-109452380D01*
X205795238Y-109404761D01*
X205842857Y-109357142D01*
X205938095Y-109214285D01*
X205985714Y-109023809D01*
X205985714Y-108642857D01*
X205938095Y-108547619D01*
X205890476Y-108500000D01*
X205795238Y-108452380D01*
X205604761Y-108452380D01*
X205509523Y-108500000D01*
X205461904Y-108547619D01*
X205414285Y-108642857D01*
X205414285Y-108880952D01*
X205461904Y-108976190D01*
X205509523Y-109023809D01*
X205604761Y-109071428D01*
X205795238Y-109071428D01*
X205890476Y-109023809D01*
X205938095Y-108976190D01*
X205985714Y-108880952D01*
X202032142Y-112357142D02*
X201984523Y-112404761D01*
X201841666Y-112452380D01*
X201746428Y-112452380D01*
X201603571Y-112404761D01*
X201508333Y-112309523D01*
X201460714Y-112214285D01*
X201413095Y-112023809D01*
X201413095Y-111880952D01*
X201460714Y-111690476D01*
X201508333Y-111595238D01*
X201603571Y-111500000D01*
X201746428Y-111452380D01*
X201841666Y-111452380D01*
X201984523Y-111500000D01*
X202032142Y-111547619D01*
X202984523Y-112452380D02*
X202413095Y-112452380D01*
X202698809Y-112452380D02*
X202698809Y-111452380D01*
X202603571Y-111595238D01*
X202508333Y-111690476D01*
X202413095Y-111738095D01*
X203603571Y-111452380D02*
X203698809Y-111452380D01*
X203794047Y-111500000D01*
X203841666Y-111547619D01*
X203889285Y-111642857D01*
X203936904Y-111833333D01*
X203936904Y-112071428D01*
X203889285Y-112261904D01*
X203841666Y-112357142D01*
X203794047Y-112404761D01*
X203698809Y-112452380D01*
X203603571Y-112452380D01*
X203508333Y-112404761D01*
X203460714Y-112357142D01*
X203413095Y-112261904D01*
X203365476Y-112071428D01*
X203365476Y-111833333D01*
X203413095Y-111642857D01*
X203460714Y-111547619D01*
X203508333Y-111500000D01*
X203603571Y-111452380D01*
X200357142Y-107757142D02*
X200309523Y-107804761D01*
X200166666Y-107852380D01*
X200071428Y-107852380D01*
X199928571Y-107804761D01*
X199833333Y-107709523D01*
X199785714Y-107614285D01*
X199738095Y-107423809D01*
X199738095Y-107280952D01*
X199785714Y-107090476D01*
X199833333Y-106995238D01*
X199928571Y-106900000D01*
X200071428Y-106852380D01*
X200166666Y-106852380D01*
X200309523Y-106900000D01*
X200357142Y-106947619D01*
X201309523Y-107852380D02*
X200738095Y-107852380D01*
X201023809Y-107852380D02*
X201023809Y-106852380D01*
X200928571Y-106995238D01*
X200833333Y-107090476D01*
X200738095Y-107138095D01*
X202261904Y-107852380D02*
X201690476Y-107852380D01*
X201976190Y-107852380D02*
X201976190Y-106852380D01*
X201880952Y-106995238D01*
X201785714Y-107090476D01*
X201690476Y-107138095D01*
X198632142Y-107187142D02*
X198584523Y-107234761D01*
X198441666Y-107282380D01*
X198346428Y-107282380D01*
X198203571Y-107234761D01*
X198108333Y-107139523D01*
X198060714Y-107044285D01*
X198013095Y-106853809D01*
X198013095Y-106710952D01*
X198060714Y-106520476D01*
X198108333Y-106425238D01*
X198203571Y-106330000D01*
X198346428Y-106282380D01*
X198441666Y-106282380D01*
X198584523Y-106330000D01*
X198632142Y-106377619D01*
X199584523Y-107282380D02*
X199013095Y-107282380D01*
X199298809Y-107282380D02*
X199298809Y-106282380D01*
X199203571Y-106425238D01*
X199108333Y-106520476D01*
X199013095Y-106568095D01*
X199965476Y-106377619D02*
X200013095Y-106330000D01*
X200108333Y-106282380D01*
X200346428Y-106282380D01*
X200441666Y-106330000D01*
X200489285Y-106377619D01*
X200536904Y-106472857D01*
X200536904Y-106568095D01*
X200489285Y-106710952D01*
X199917857Y-107282380D01*
X200536904Y-107282380D01*
X179157142Y-102842857D02*
X179204761Y-102890476D01*
X179252380Y-103033333D01*
X179252380Y-103128571D01*
X179204761Y-103271428D01*
X179109523Y-103366666D01*
X179014285Y-103414285D01*
X178823809Y-103461904D01*
X178680952Y-103461904D01*
X178490476Y-103414285D01*
X178395238Y-103366666D01*
X178300000Y-103271428D01*
X178252380Y-103128571D01*
X178252380Y-103033333D01*
X178300000Y-102890476D01*
X178347619Y-102842857D01*
X179252380Y-101890476D02*
X179252380Y-102461904D01*
X179252380Y-102176190D02*
X178252380Y-102176190D01*
X178395238Y-102271428D01*
X178490476Y-102366666D01*
X178538095Y-102461904D01*
X178252380Y-101557142D02*
X178252380Y-100938095D01*
X178633333Y-101271428D01*
X178633333Y-101128571D01*
X178680952Y-101033333D01*
X178728571Y-100985714D01*
X178823809Y-100938095D01*
X179061904Y-100938095D01*
X179157142Y-100985714D01*
X179204761Y-101033333D01*
X179252380Y-101128571D01*
X179252380Y-101414285D01*
X179204761Y-101509523D01*
X179157142Y-101557142D01*
X179127142Y-99517857D02*
X179174761Y-99565476D01*
X179222380Y-99708333D01*
X179222380Y-99803571D01*
X179174761Y-99946428D01*
X179079523Y-100041666D01*
X178984285Y-100089285D01*
X178793809Y-100136904D01*
X178650952Y-100136904D01*
X178460476Y-100089285D01*
X178365238Y-100041666D01*
X178270000Y-99946428D01*
X178222380Y-99803571D01*
X178222380Y-99708333D01*
X178270000Y-99565476D01*
X178317619Y-99517857D01*
X179222380Y-98565476D02*
X179222380Y-99136904D01*
X179222380Y-98851190D02*
X178222380Y-98851190D01*
X178365238Y-98946428D01*
X178460476Y-99041666D01*
X178508095Y-99136904D01*
X178555714Y-97708333D02*
X179222380Y-97708333D01*
X178174761Y-97946428D02*
X178889047Y-98184523D01*
X178889047Y-97565476D01*
X185282142Y-111927142D02*
X185234523Y-111974761D01*
X185091666Y-112022380D01*
X184996428Y-112022380D01*
X184853571Y-111974761D01*
X184758333Y-111879523D01*
X184710714Y-111784285D01*
X184663095Y-111593809D01*
X184663095Y-111450952D01*
X184710714Y-111260476D01*
X184758333Y-111165238D01*
X184853571Y-111070000D01*
X184996428Y-111022380D01*
X185091666Y-111022380D01*
X185234523Y-111070000D01*
X185282142Y-111117619D01*
X186234523Y-112022380D02*
X185663095Y-112022380D01*
X185948809Y-112022380D02*
X185948809Y-111022380D01*
X185853571Y-111165238D01*
X185758333Y-111260476D01*
X185663095Y-111308095D01*
X187139285Y-111022380D02*
X186663095Y-111022380D01*
X186615476Y-111498571D01*
X186663095Y-111450952D01*
X186758333Y-111403333D01*
X186996428Y-111403333D01*
X187091666Y-111450952D01*
X187139285Y-111498571D01*
X187186904Y-111593809D01*
X187186904Y-111831904D01*
X187139285Y-111927142D01*
X187091666Y-111974761D01*
X186996428Y-112022380D01*
X186758333Y-112022380D01*
X186663095Y-111974761D01*
X186615476Y-111927142D01*
X185282142Y-116387142D02*
X185234523Y-116434761D01*
X185091666Y-116482380D01*
X184996428Y-116482380D01*
X184853571Y-116434761D01*
X184758333Y-116339523D01*
X184710714Y-116244285D01*
X184663095Y-116053809D01*
X184663095Y-115910952D01*
X184710714Y-115720476D01*
X184758333Y-115625238D01*
X184853571Y-115530000D01*
X184996428Y-115482380D01*
X185091666Y-115482380D01*
X185234523Y-115530000D01*
X185282142Y-115577619D01*
X186234523Y-116482380D02*
X185663095Y-116482380D01*
X185948809Y-116482380D02*
X185948809Y-115482380D01*
X185853571Y-115625238D01*
X185758333Y-115720476D01*
X185663095Y-115768095D01*
X187091666Y-115482380D02*
X186901190Y-115482380D01*
X186805952Y-115530000D01*
X186758333Y-115577619D01*
X186663095Y-115720476D01*
X186615476Y-115910952D01*
X186615476Y-116291904D01*
X186663095Y-116387142D01*
X186710714Y-116434761D01*
X186805952Y-116482380D01*
X186996428Y-116482380D01*
X187091666Y-116434761D01*
X187139285Y-116387142D01*
X187186904Y-116291904D01*
X187186904Y-116053809D01*
X187139285Y-115958571D01*
X187091666Y-115910952D01*
X186996428Y-115863333D01*
X186805952Y-115863333D01*
X186710714Y-115910952D01*
X186663095Y-115958571D01*
X186615476Y-116053809D01*
X173357142Y-104157142D02*
X173309523Y-104204761D01*
X173166666Y-104252380D01*
X173071428Y-104252380D01*
X172928571Y-104204761D01*
X172833333Y-104109523D01*
X172785714Y-104014285D01*
X172738095Y-103823809D01*
X172738095Y-103680952D01*
X172785714Y-103490476D01*
X172833333Y-103395238D01*
X172928571Y-103300000D01*
X173071428Y-103252380D01*
X173166666Y-103252380D01*
X173309523Y-103300000D01*
X173357142Y-103347619D01*
X174309523Y-104252380D02*
X173738095Y-104252380D01*
X174023809Y-104252380D02*
X174023809Y-103252380D01*
X173928571Y-103395238D01*
X173833333Y-103490476D01*
X173738095Y-103538095D01*
X174642857Y-103252380D02*
X175309523Y-103252380D01*
X174880952Y-104252380D01*
X218157142Y-110757142D02*
X218109523Y-110804761D01*
X217966666Y-110852380D01*
X217871428Y-110852380D01*
X217728571Y-110804761D01*
X217633333Y-110709523D01*
X217585714Y-110614285D01*
X217538095Y-110423809D01*
X217538095Y-110280952D01*
X217585714Y-110090476D01*
X217633333Y-109995238D01*
X217728571Y-109900000D01*
X217871428Y-109852380D01*
X217966666Y-109852380D01*
X218109523Y-109900000D01*
X218157142Y-109947619D01*
X219109523Y-110852380D02*
X218538095Y-110852380D01*
X218823809Y-110852380D02*
X218823809Y-109852380D01*
X218728571Y-109995238D01*
X218633333Y-110090476D01*
X218538095Y-110138095D01*
X219680952Y-110280952D02*
X219585714Y-110233333D01*
X219538095Y-110185714D01*
X219490476Y-110090476D01*
X219490476Y-110042857D01*
X219538095Y-109947619D01*
X219585714Y-109900000D01*
X219680952Y-109852380D01*
X219871428Y-109852380D01*
X219966666Y-109900000D01*
X220014285Y-109947619D01*
X220061904Y-110042857D01*
X220061904Y-110090476D01*
X220014285Y-110185714D01*
X219966666Y-110233333D01*
X219871428Y-110280952D01*
X219680952Y-110280952D01*
X219585714Y-110328571D01*
X219538095Y-110376190D01*
X219490476Y-110471428D01*
X219490476Y-110661904D01*
X219538095Y-110757142D01*
X219585714Y-110804761D01*
X219680952Y-110852380D01*
X219871428Y-110852380D01*
X219966666Y-110804761D01*
X220014285Y-110757142D01*
X220061904Y-110661904D01*
X220061904Y-110471428D01*
X220014285Y-110376190D01*
X219966666Y-110328571D01*
X219871428Y-110280952D01*
X228357142Y-94157142D02*
X228309523Y-94204761D01*
X228166666Y-94252380D01*
X228071428Y-94252380D01*
X227928571Y-94204761D01*
X227833333Y-94109523D01*
X227785714Y-94014285D01*
X227738095Y-93823809D01*
X227738095Y-93680952D01*
X227785714Y-93490476D01*
X227833333Y-93395238D01*
X227928571Y-93300000D01*
X228071428Y-93252380D01*
X228166666Y-93252380D01*
X228309523Y-93300000D01*
X228357142Y-93347619D01*
X228738095Y-93347619D02*
X228785714Y-93300000D01*
X228880952Y-93252380D01*
X229119047Y-93252380D01*
X229214285Y-93300000D01*
X229261904Y-93347619D01*
X229309523Y-93442857D01*
X229309523Y-93538095D01*
X229261904Y-93680952D01*
X228690476Y-94252380D01*
X229309523Y-94252380D01*
X229928571Y-93252380D02*
X230023809Y-93252380D01*
X230119047Y-93300000D01*
X230166666Y-93347619D01*
X230214285Y-93442857D01*
X230261904Y-93633333D01*
X230261904Y-93871428D01*
X230214285Y-94061904D01*
X230166666Y-94157142D01*
X230119047Y-94204761D01*
X230023809Y-94252380D01*
X229928571Y-94252380D01*
X229833333Y-94204761D01*
X229785714Y-94157142D01*
X229738095Y-94061904D01*
X229690476Y-93871428D01*
X229690476Y-93633333D01*
X229738095Y-93442857D01*
X229785714Y-93347619D01*
X229833333Y-93300000D01*
X229928571Y-93252380D01*
X213557142Y-109042857D02*
X213604761Y-109090476D01*
X213652380Y-109233333D01*
X213652380Y-109328571D01*
X213604761Y-109471428D01*
X213509523Y-109566666D01*
X213414285Y-109614285D01*
X213223809Y-109661904D01*
X213080952Y-109661904D01*
X212890476Y-109614285D01*
X212795238Y-109566666D01*
X212700000Y-109471428D01*
X212652380Y-109328571D01*
X212652380Y-109233333D01*
X212700000Y-109090476D01*
X212747619Y-109042857D01*
X212747619Y-108661904D02*
X212700000Y-108614285D01*
X212652380Y-108519047D01*
X212652380Y-108280952D01*
X212700000Y-108185714D01*
X212747619Y-108138095D01*
X212842857Y-108090476D01*
X212938095Y-108090476D01*
X213080952Y-108138095D01*
X213652380Y-108709523D01*
X213652380Y-108090476D01*
X212747619Y-107709523D02*
X212700000Y-107661904D01*
X212652380Y-107566666D01*
X212652380Y-107328571D01*
X212700000Y-107233333D01*
X212747619Y-107185714D01*
X212842857Y-107138095D01*
X212938095Y-107138095D01*
X213080952Y-107185714D01*
X213652380Y-107757142D01*
X213652380Y-107138095D01*
X218157142Y-109157142D02*
X218109523Y-109204761D01*
X217966666Y-109252380D01*
X217871428Y-109252380D01*
X217728571Y-109204761D01*
X217633333Y-109109523D01*
X217585714Y-109014285D01*
X217538095Y-108823809D01*
X217538095Y-108680952D01*
X217585714Y-108490476D01*
X217633333Y-108395238D01*
X217728571Y-108300000D01*
X217871428Y-108252380D01*
X217966666Y-108252380D01*
X218109523Y-108300000D01*
X218157142Y-108347619D01*
X218538095Y-108347619D02*
X218585714Y-108300000D01*
X218680952Y-108252380D01*
X218919047Y-108252380D01*
X219014285Y-108300000D01*
X219061904Y-108347619D01*
X219109523Y-108442857D01*
X219109523Y-108538095D01*
X219061904Y-108680952D01*
X218490476Y-109252380D01*
X219109523Y-109252380D01*
X219442857Y-108252380D02*
X220061904Y-108252380D01*
X219728571Y-108633333D01*
X219871428Y-108633333D01*
X219966666Y-108680952D01*
X220014285Y-108728571D01*
X220061904Y-108823809D01*
X220061904Y-109061904D01*
X220014285Y-109157142D01*
X219966666Y-109204761D01*
X219871428Y-109252380D01*
X219585714Y-109252380D01*
X219490476Y-109204761D01*
X219442857Y-109157142D01*
X218157142Y-107557142D02*
X218109523Y-107604761D01*
X217966666Y-107652380D01*
X217871428Y-107652380D01*
X217728571Y-107604761D01*
X217633333Y-107509523D01*
X217585714Y-107414285D01*
X217538095Y-107223809D01*
X217538095Y-107080952D01*
X217585714Y-106890476D01*
X217633333Y-106795238D01*
X217728571Y-106700000D01*
X217871428Y-106652380D01*
X217966666Y-106652380D01*
X218109523Y-106700000D01*
X218157142Y-106747619D01*
X218538095Y-106747619D02*
X218585714Y-106700000D01*
X218680952Y-106652380D01*
X218919047Y-106652380D01*
X219014285Y-106700000D01*
X219061904Y-106747619D01*
X219109523Y-106842857D01*
X219109523Y-106938095D01*
X219061904Y-107080952D01*
X218490476Y-107652380D01*
X219109523Y-107652380D01*
X219966666Y-106985714D02*
X219966666Y-107652380D01*
X219728571Y-106604761D02*
X219490476Y-107319047D01*
X220109523Y-107319047D01*
X230537142Y-108767857D02*
X230584761Y-108815476D01*
X230632380Y-108958333D01*
X230632380Y-109053571D01*
X230584761Y-109196428D01*
X230489523Y-109291666D01*
X230394285Y-109339285D01*
X230203809Y-109386904D01*
X230060952Y-109386904D01*
X229870476Y-109339285D01*
X229775238Y-109291666D01*
X229680000Y-109196428D01*
X229632380Y-109053571D01*
X229632380Y-108958333D01*
X229680000Y-108815476D01*
X229727619Y-108767857D01*
X229727619Y-108386904D02*
X229680000Y-108339285D01*
X229632380Y-108244047D01*
X229632380Y-108005952D01*
X229680000Y-107910714D01*
X229727619Y-107863095D01*
X229822857Y-107815476D01*
X229918095Y-107815476D01*
X230060952Y-107863095D01*
X230632380Y-108434523D01*
X230632380Y-107815476D01*
X229632380Y-106910714D02*
X229632380Y-107386904D01*
X230108571Y-107434523D01*
X230060952Y-107386904D01*
X230013333Y-107291666D01*
X230013333Y-107053571D01*
X230060952Y-106958333D01*
X230108571Y-106910714D01*
X230203809Y-106863095D01*
X230441904Y-106863095D01*
X230537142Y-106910714D01*
X230584761Y-106958333D01*
X230632380Y-107053571D01*
X230632380Y-107291666D01*
X230584761Y-107386904D01*
X230537142Y-107434523D01*
X218357142Y-120357142D02*
X218309523Y-120404761D01*
X218166666Y-120452380D01*
X218071428Y-120452380D01*
X217928571Y-120404761D01*
X217833333Y-120309523D01*
X217785714Y-120214285D01*
X217738095Y-120023809D01*
X217738095Y-119880952D01*
X217785714Y-119690476D01*
X217833333Y-119595238D01*
X217928571Y-119500000D01*
X218071428Y-119452380D01*
X218166666Y-119452380D01*
X218309523Y-119500000D01*
X218357142Y-119547619D01*
X218738095Y-119547619D02*
X218785714Y-119500000D01*
X218880952Y-119452380D01*
X219119047Y-119452380D01*
X219214285Y-119500000D01*
X219261904Y-119547619D01*
X219309523Y-119642857D01*
X219309523Y-119738095D01*
X219261904Y-119880952D01*
X218690476Y-120452380D01*
X219309523Y-120452380D01*
X220166666Y-119452380D02*
X219976190Y-119452380D01*
X219880952Y-119500000D01*
X219833333Y-119547619D01*
X219738095Y-119690476D01*
X219690476Y-119880952D01*
X219690476Y-120261904D01*
X219738095Y-120357142D01*
X219785714Y-120404761D01*
X219880952Y-120452380D01*
X220071428Y-120452380D01*
X220166666Y-120404761D01*
X220214285Y-120357142D01*
X220261904Y-120261904D01*
X220261904Y-120023809D01*
X220214285Y-119928571D01*
X220166666Y-119880952D01*
X220071428Y-119833333D01*
X219880952Y-119833333D01*
X219785714Y-119880952D01*
X219738095Y-119928571D01*
X219690476Y-120023809D01*
X228557142Y-120357142D02*
X228509523Y-120404761D01*
X228366666Y-120452380D01*
X228271428Y-120452380D01*
X228128571Y-120404761D01*
X228033333Y-120309523D01*
X227985714Y-120214285D01*
X227938095Y-120023809D01*
X227938095Y-119880952D01*
X227985714Y-119690476D01*
X228033333Y-119595238D01*
X228128571Y-119500000D01*
X228271428Y-119452380D01*
X228366666Y-119452380D01*
X228509523Y-119500000D01*
X228557142Y-119547619D01*
X228938095Y-119547619D02*
X228985714Y-119500000D01*
X229080952Y-119452380D01*
X229319047Y-119452380D01*
X229414285Y-119500000D01*
X229461904Y-119547619D01*
X229509523Y-119642857D01*
X229509523Y-119738095D01*
X229461904Y-119880952D01*
X228890476Y-120452380D01*
X229509523Y-120452380D01*
X229842857Y-119452380D02*
X230509523Y-119452380D01*
X230080952Y-120452380D01*
X242236666Y-87178571D02*
X241903333Y-87178571D01*
X241903333Y-87702380D02*
X241903333Y-86702380D01*
X242379523Y-86702380D01*
X243284285Y-87702380D02*
X242712857Y-87702380D01*
X242998571Y-87702380D02*
X242998571Y-86702380D01*
X242903333Y-86845238D01*
X242808095Y-86940476D01*
X242712857Y-86988095D01*
X194091666Y-106758571D02*
X193758333Y-106758571D01*
X193758333Y-107282380D02*
X193758333Y-106282380D01*
X194234523Y-106282380D01*
X194948809Y-106758571D02*
X195091666Y-106806190D01*
X195139285Y-106853809D01*
X195186904Y-106949047D01*
X195186904Y-107091904D01*
X195139285Y-107187142D01*
X195091666Y-107234761D01*
X194996428Y-107282380D01*
X194615476Y-107282380D01*
X194615476Y-106282380D01*
X194948809Y-106282380D01*
X195044047Y-106330000D01*
X195091666Y-106377619D01*
X195139285Y-106472857D01*
X195139285Y-106568095D01*
X195091666Y-106663333D01*
X195044047Y-106710952D01*
X194948809Y-106758571D01*
X194615476Y-106758571D01*
X196139285Y-107282380D02*
X195567857Y-107282380D01*
X195853571Y-107282380D02*
X195853571Y-106282380D01*
X195758333Y-106425238D01*
X195663095Y-106520476D01*
X195567857Y-106568095D01*
X187766666Y-102328571D02*
X187433333Y-102328571D01*
X187433333Y-102852380D02*
X187433333Y-101852380D01*
X187909523Y-101852380D01*
X188623809Y-102328571D02*
X188766666Y-102376190D01*
X188814285Y-102423809D01*
X188861904Y-102519047D01*
X188861904Y-102661904D01*
X188814285Y-102757142D01*
X188766666Y-102804761D01*
X188671428Y-102852380D01*
X188290476Y-102852380D01*
X188290476Y-101852380D01*
X188623809Y-101852380D01*
X188719047Y-101900000D01*
X188766666Y-101947619D01*
X188814285Y-102042857D01*
X188814285Y-102138095D01*
X188766666Y-102233333D01*
X188719047Y-102280952D01*
X188623809Y-102328571D01*
X188290476Y-102328571D01*
X189242857Y-101947619D02*
X189290476Y-101900000D01*
X189385714Y-101852380D01*
X189623809Y-101852380D01*
X189719047Y-101900000D01*
X189766666Y-101947619D01*
X189814285Y-102042857D01*
X189814285Y-102138095D01*
X189766666Y-102280952D01*
X189195238Y-102852380D01*
X189814285Y-102852380D01*
X207366666Y-109328571D02*
X207033333Y-109328571D01*
X207033333Y-109852380D02*
X207033333Y-108852380D01*
X207509523Y-108852380D01*
X208223809Y-109328571D02*
X208366666Y-109376190D01*
X208414285Y-109423809D01*
X208461904Y-109519047D01*
X208461904Y-109661904D01*
X208414285Y-109757142D01*
X208366666Y-109804761D01*
X208271428Y-109852380D01*
X207890476Y-109852380D01*
X207890476Y-108852380D01*
X208223809Y-108852380D01*
X208319047Y-108900000D01*
X208366666Y-108947619D01*
X208414285Y-109042857D01*
X208414285Y-109138095D01*
X208366666Y-109233333D01*
X208319047Y-109280952D01*
X208223809Y-109328571D01*
X207890476Y-109328571D01*
X208795238Y-108852380D02*
X209414285Y-108852380D01*
X209080952Y-109233333D01*
X209223809Y-109233333D01*
X209319047Y-109280952D01*
X209366666Y-109328571D01*
X209414285Y-109423809D01*
X209414285Y-109661904D01*
X209366666Y-109757142D01*
X209319047Y-109804761D01*
X209223809Y-109852380D01*
X208938095Y-109852380D01*
X208842857Y-109804761D01*
X208795238Y-109757142D01*
X198298571Y-110508333D02*
X198298571Y-110841666D01*
X198822380Y-110841666D02*
X197822380Y-110841666D01*
X197822380Y-110365476D01*
X198298571Y-109651190D02*
X198346190Y-109508333D01*
X198393809Y-109460714D01*
X198489047Y-109413095D01*
X198631904Y-109413095D01*
X198727142Y-109460714D01*
X198774761Y-109508333D01*
X198822380Y-109603571D01*
X198822380Y-109984523D01*
X197822380Y-109984523D01*
X197822380Y-109651190D01*
X197870000Y-109555952D01*
X197917619Y-109508333D01*
X198012857Y-109460714D01*
X198108095Y-109460714D01*
X198203333Y-109508333D01*
X198250952Y-109555952D01*
X198298571Y-109651190D01*
X198298571Y-109984523D01*
X198155714Y-108555952D02*
X198822380Y-108555952D01*
X197774761Y-108794047D02*
X198489047Y-109032142D01*
X198489047Y-108413095D01*
X217966666Y-111928571D02*
X217633333Y-111928571D01*
X217633333Y-112452380D02*
X217633333Y-111452380D01*
X218109523Y-111452380D01*
X218823809Y-111928571D02*
X218966666Y-111976190D01*
X219014285Y-112023809D01*
X219061904Y-112119047D01*
X219061904Y-112261904D01*
X219014285Y-112357142D01*
X218966666Y-112404761D01*
X218871428Y-112452380D01*
X218490476Y-112452380D01*
X218490476Y-111452380D01*
X218823809Y-111452380D01*
X218919047Y-111500000D01*
X218966666Y-111547619D01*
X219014285Y-111642857D01*
X219014285Y-111738095D01*
X218966666Y-111833333D01*
X218919047Y-111880952D01*
X218823809Y-111928571D01*
X218490476Y-111928571D01*
X219966666Y-111452380D02*
X219490476Y-111452380D01*
X219442857Y-111928571D01*
X219490476Y-111880952D01*
X219585714Y-111833333D01*
X219823809Y-111833333D01*
X219919047Y-111880952D01*
X219966666Y-111928571D01*
X220014285Y-112023809D01*
X220014285Y-112261904D01*
X219966666Y-112357142D01*
X219919047Y-112404761D01*
X219823809Y-112452380D01*
X219585714Y-112452380D01*
X219490476Y-112404761D01*
X219442857Y-112357142D01*
X189861904Y-116028571D02*
X189528571Y-116028571D01*
X189528571Y-116552380D02*
X189528571Y-115552380D01*
X190004761Y-115552380D01*
X190861904Y-116552380D02*
X190385714Y-116552380D01*
X190385714Y-115552380D01*
X191719047Y-116552380D02*
X191147619Y-116552380D01*
X191433333Y-116552380D02*
X191433333Y-115552380D01*
X191338095Y-115695238D01*
X191242857Y-115790476D01*
X191147619Y-115838095D01*
X165052380Y-113933333D02*
X165766666Y-113933333D01*
X165909523Y-113980952D01*
X166004761Y-114076190D01*
X166052380Y-114219047D01*
X166052380Y-114314285D01*
X166052380Y-112933333D02*
X166052380Y-113504761D01*
X166052380Y-113219047D02*
X165052380Y-113219047D01*
X165195238Y-113314285D01*
X165290476Y-113409523D01*
X165338095Y-113504761D01*
X201466666Y-117052380D02*
X201466666Y-117766666D01*
X201419047Y-117909523D01*
X201323809Y-118004761D01*
X201180952Y-118052380D01*
X201085714Y-118052380D01*
X201895238Y-117147619D02*
X201942857Y-117100000D01*
X202038095Y-117052380D01*
X202276190Y-117052380D01*
X202371428Y-117100000D01*
X202419047Y-117147619D01*
X202466666Y-117242857D01*
X202466666Y-117338095D01*
X202419047Y-117480952D01*
X201847619Y-118052380D01*
X202466666Y-118052380D01*
X201466666Y-115452380D02*
X201466666Y-116166666D01*
X201419047Y-116309523D01*
X201323809Y-116404761D01*
X201180952Y-116452380D01*
X201085714Y-116452380D01*
X201847619Y-115452380D02*
X202466666Y-115452380D01*
X202133333Y-115833333D01*
X202276190Y-115833333D01*
X202371428Y-115880952D01*
X202419047Y-115928571D01*
X202466666Y-116023809D01*
X202466666Y-116261904D01*
X202419047Y-116357142D01*
X202371428Y-116404761D01*
X202276190Y-116452380D01*
X201990476Y-116452380D01*
X201895238Y-116404761D01*
X201847619Y-116357142D01*
X225282380Y-79533333D02*
X225996666Y-79533333D01*
X226139523Y-79580952D01*
X226234761Y-79676190D01*
X226282380Y-79819047D01*
X226282380Y-79914285D01*
X225615714Y-78628571D02*
X226282380Y-78628571D01*
X225234761Y-78866666D02*
X225949047Y-79104761D01*
X225949047Y-78485714D01*
X248872380Y-85753333D02*
X249586666Y-85753333D01*
X249729523Y-85800952D01*
X249824761Y-85896190D01*
X249872380Y-86039047D01*
X249872380Y-86134285D01*
X248872380Y-84848571D02*
X248872380Y-85039047D01*
X248920000Y-85134285D01*
X248967619Y-85181904D01*
X249110476Y-85277142D01*
X249300952Y-85324761D01*
X249681904Y-85324761D01*
X249777142Y-85277142D01*
X249824761Y-85229523D01*
X249872380Y-85134285D01*
X249872380Y-84943809D01*
X249824761Y-84848571D01*
X249777142Y-84800952D01*
X249681904Y-84753333D01*
X249443809Y-84753333D01*
X249348571Y-84800952D01*
X249300952Y-84848571D01*
X249253333Y-84943809D01*
X249253333Y-85134285D01*
X249300952Y-85229523D01*
X249348571Y-85277142D01*
X249443809Y-85324761D01*
X205882380Y-92091666D02*
X205406190Y-92425000D01*
X205882380Y-92663095D02*
X204882380Y-92663095D01*
X204882380Y-92282142D01*
X204930000Y-92186904D01*
X204977619Y-92139285D01*
X205072857Y-92091666D01*
X205215714Y-92091666D01*
X205310952Y-92139285D01*
X205358571Y-92186904D01*
X205406190Y-92282142D01*
X205406190Y-92663095D01*
X205882380Y-91139285D02*
X205882380Y-91710714D01*
X205882380Y-91425000D02*
X204882380Y-91425000D01*
X205025238Y-91520238D01*
X205120476Y-91615476D01*
X205168095Y-91710714D01*
X199758333Y-89822380D02*
X199425000Y-89346190D01*
X199186904Y-89822380D02*
X199186904Y-88822380D01*
X199567857Y-88822380D01*
X199663095Y-88870000D01*
X199710714Y-88917619D01*
X199758333Y-89012857D01*
X199758333Y-89155714D01*
X199710714Y-89250952D01*
X199663095Y-89298571D01*
X199567857Y-89346190D01*
X199186904Y-89346190D01*
X200139285Y-88917619D02*
X200186904Y-88870000D01*
X200282142Y-88822380D01*
X200520238Y-88822380D01*
X200615476Y-88870000D01*
X200663095Y-88917619D01*
X200710714Y-89012857D01*
X200710714Y-89108095D01*
X200663095Y-89250952D01*
X200091666Y-89822380D01*
X200710714Y-89822380D01*
X215033333Y-100052380D02*
X214700000Y-99576190D01*
X214461904Y-100052380D02*
X214461904Y-99052380D01*
X214842857Y-99052380D01*
X214938095Y-99100000D01*
X214985714Y-99147619D01*
X215033333Y-99242857D01*
X215033333Y-99385714D01*
X214985714Y-99480952D01*
X214938095Y-99528571D01*
X214842857Y-99576190D01*
X214461904Y-99576190D01*
X215366666Y-99052380D02*
X215985714Y-99052380D01*
X215652380Y-99433333D01*
X215795238Y-99433333D01*
X215890476Y-99480952D01*
X215938095Y-99528571D01*
X215985714Y-99623809D01*
X215985714Y-99861904D01*
X215938095Y-99957142D01*
X215890476Y-100004761D01*
X215795238Y-100052380D01*
X215509523Y-100052380D01*
X215414285Y-100004761D01*
X215366666Y-99957142D01*
X211022380Y-98441666D02*
X210546190Y-98775000D01*
X211022380Y-99013095D02*
X210022380Y-99013095D01*
X210022380Y-98632142D01*
X210070000Y-98536904D01*
X210117619Y-98489285D01*
X210212857Y-98441666D01*
X210355714Y-98441666D01*
X210450952Y-98489285D01*
X210498571Y-98536904D01*
X210546190Y-98632142D01*
X210546190Y-99013095D01*
X210022380Y-97536904D02*
X210022380Y-98013095D01*
X210498571Y-98060714D01*
X210450952Y-98013095D01*
X210403333Y-97917857D01*
X210403333Y-97679761D01*
X210450952Y-97584523D01*
X210498571Y-97536904D01*
X210593809Y-97489285D01*
X210831904Y-97489285D01*
X210927142Y-97536904D01*
X210974761Y-97584523D01*
X211022380Y-97679761D01*
X211022380Y-97917857D01*
X210974761Y-98013095D01*
X210927142Y-98060714D01*
X212652380Y-103966666D02*
X212176190Y-104300000D01*
X212652380Y-104538095D02*
X211652380Y-104538095D01*
X211652380Y-104157142D01*
X211700000Y-104061904D01*
X211747619Y-104014285D01*
X211842857Y-103966666D01*
X211985714Y-103966666D01*
X212080952Y-104014285D01*
X212128571Y-104061904D01*
X212176190Y-104157142D01*
X212176190Y-104538095D01*
X211652380Y-103109523D02*
X211652380Y-103300000D01*
X211700000Y-103395238D01*
X211747619Y-103442857D01*
X211890476Y-103538095D01*
X212080952Y-103585714D01*
X212461904Y-103585714D01*
X212557142Y-103538095D01*
X212604761Y-103490476D01*
X212652380Y-103395238D01*
X212652380Y-103204761D01*
X212604761Y-103109523D01*
X212557142Y-103061904D01*
X212461904Y-103014285D01*
X212223809Y-103014285D01*
X212128571Y-103061904D01*
X212080952Y-103109523D01*
X212033333Y-103204761D01*
X212033333Y-103395238D01*
X212080952Y-103490476D01*
X212128571Y-103538095D01*
X212223809Y-103585714D01*
X218433333Y-98252380D02*
X218100000Y-97776190D01*
X217861904Y-98252380D02*
X217861904Y-97252380D01*
X218242857Y-97252380D01*
X218338095Y-97300000D01*
X218385714Y-97347619D01*
X218433333Y-97442857D01*
X218433333Y-97585714D01*
X218385714Y-97680952D01*
X218338095Y-97728571D01*
X218242857Y-97776190D01*
X217861904Y-97776190D01*
X218766666Y-97252380D02*
X219433333Y-97252380D01*
X219004761Y-98252380D01*
X216633333Y-98252380D02*
X216300000Y-97776190D01*
X216061904Y-98252380D02*
X216061904Y-97252380D01*
X216442857Y-97252380D01*
X216538095Y-97300000D01*
X216585714Y-97347619D01*
X216633333Y-97442857D01*
X216633333Y-97585714D01*
X216585714Y-97680952D01*
X216538095Y-97728571D01*
X216442857Y-97776190D01*
X216061904Y-97776190D01*
X217204761Y-97680952D02*
X217109523Y-97633333D01*
X217061904Y-97585714D01*
X217014285Y-97490476D01*
X217014285Y-97442857D01*
X217061904Y-97347619D01*
X217109523Y-97300000D01*
X217204761Y-97252380D01*
X217395238Y-97252380D01*
X217490476Y-97300000D01*
X217538095Y-97347619D01*
X217585714Y-97442857D01*
X217585714Y-97490476D01*
X217538095Y-97585714D01*
X217490476Y-97633333D01*
X217395238Y-97680952D01*
X217204761Y-97680952D01*
X217109523Y-97728571D01*
X217061904Y-97776190D01*
X217014285Y-97871428D01*
X217014285Y-98061904D01*
X217061904Y-98157142D01*
X217109523Y-98204761D01*
X217204761Y-98252380D01*
X217395238Y-98252380D01*
X217490476Y-98204761D01*
X217538095Y-98157142D01*
X217585714Y-98061904D01*
X217585714Y-97871428D01*
X217538095Y-97776190D01*
X217490476Y-97728571D01*
X217395238Y-97680952D01*
X200222380Y-93891666D02*
X199746190Y-94225000D01*
X200222380Y-94463095D02*
X199222380Y-94463095D01*
X199222380Y-94082142D01*
X199270000Y-93986904D01*
X199317619Y-93939285D01*
X199412857Y-93891666D01*
X199555714Y-93891666D01*
X199650952Y-93939285D01*
X199698571Y-93986904D01*
X199746190Y-94082142D01*
X199746190Y-94463095D01*
X200222380Y-93415476D02*
X200222380Y-93225000D01*
X200174761Y-93129761D01*
X200127142Y-93082142D01*
X199984285Y-92986904D01*
X199793809Y-92939285D01*
X199412857Y-92939285D01*
X199317619Y-92986904D01*
X199270000Y-93034523D01*
X199222380Y-93129761D01*
X199222380Y-93320238D01*
X199270000Y-93415476D01*
X199317619Y-93463095D01*
X199412857Y-93510714D01*
X199650952Y-93510714D01*
X199746190Y-93463095D01*
X199793809Y-93415476D01*
X199841428Y-93320238D01*
X199841428Y-93129761D01*
X199793809Y-93034523D01*
X199746190Y-92986904D01*
X199650952Y-92939285D01*
X213852380Y-106442857D02*
X213376190Y-106776190D01*
X213852380Y-107014285D02*
X212852380Y-107014285D01*
X212852380Y-106633333D01*
X212900000Y-106538095D01*
X212947619Y-106490476D01*
X213042857Y-106442857D01*
X213185714Y-106442857D01*
X213280952Y-106490476D01*
X213328571Y-106538095D01*
X213376190Y-106633333D01*
X213376190Y-107014285D01*
X213852380Y-105490476D02*
X213852380Y-106061904D01*
X213852380Y-105776190D02*
X212852380Y-105776190D01*
X212995238Y-105871428D01*
X213090476Y-105966666D01*
X213138095Y-106061904D01*
X212852380Y-104871428D02*
X212852380Y-104776190D01*
X212900000Y-104680952D01*
X212947619Y-104633333D01*
X213042857Y-104585714D01*
X213233333Y-104538095D01*
X213471428Y-104538095D01*
X213661904Y-104585714D01*
X213757142Y-104633333D01*
X213804761Y-104680952D01*
X213852380Y-104776190D01*
X213852380Y-104871428D01*
X213804761Y-104966666D01*
X213757142Y-105014285D01*
X213661904Y-105061904D01*
X213471428Y-105109523D01*
X213233333Y-105109523D01*
X213042857Y-105061904D01*
X212947619Y-105014285D01*
X212900000Y-104966666D01*
X212852380Y-104871428D01*
X205557142Y-112452380D02*
X205223809Y-111976190D01*
X204985714Y-112452380D02*
X204985714Y-111452380D01*
X205366666Y-111452380D01*
X205461904Y-111500000D01*
X205509523Y-111547619D01*
X205557142Y-111642857D01*
X205557142Y-111785714D01*
X205509523Y-111880952D01*
X205461904Y-111928571D01*
X205366666Y-111976190D01*
X204985714Y-111976190D01*
X206509523Y-112452380D02*
X205938095Y-112452380D01*
X206223809Y-112452380D02*
X206223809Y-111452380D01*
X206128571Y-111595238D01*
X206033333Y-111690476D01*
X205938095Y-111738095D01*
X207461904Y-112452380D02*
X206890476Y-112452380D01*
X207176190Y-112452380D02*
X207176190Y-111452380D01*
X207080952Y-111595238D01*
X206985714Y-111690476D01*
X206890476Y-111738095D01*
X195357142Y-95852380D02*
X195023809Y-95376190D01*
X194785714Y-95852380D02*
X194785714Y-94852380D01*
X195166666Y-94852380D01*
X195261904Y-94900000D01*
X195309523Y-94947619D01*
X195357142Y-95042857D01*
X195357142Y-95185714D01*
X195309523Y-95280952D01*
X195261904Y-95328571D01*
X195166666Y-95376190D01*
X194785714Y-95376190D01*
X196309523Y-95852380D02*
X195738095Y-95852380D01*
X196023809Y-95852380D02*
X196023809Y-94852380D01*
X195928571Y-94995238D01*
X195833333Y-95090476D01*
X195738095Y-95138095D01*
X196690476Y-94947619D02*
X196738095Y-94900000D01*
X196833333Y-94852380D01*
X197071428Y-94852380D01*
X197166666Y-94900000D01*
X197214285Y-94947619D01*
X197261904Y-95042857D01*
X197261904Y-95138095D01*
X197214285Y-95280952D01*
X196642857Y-95852380D01*
X197261904Y-95852380D01*
X218852380Y-105442857D02*
X218376190Y-105776190D01*
X218852380Y-106014285D02*
X217852380Y-106014285D01*
X217852380Y-105633333D01*
X217900000Y-105538095D01*
X217947619Y-105490476D01*
X218042857Y-105442857D01*
X218185714Y-105442857D01*
X218280952Y-105490476D01*
X218328571Y-105538095D01*
X218376190Y-105633333D01*
X218376190Y-106014285D01*
X218852380Y-104490476D02*
X218852380Y-105061904D01*
X218852380Y-104776190D02*
X217852380Y-104776190D01*
X217995238Y-104871428D01*
X218090476Y-104966666D01*
X218138095Y-105061904D01*
X217852380Y-104157142D02*
X217852380Y-103538095D01*
X218233333Y-103871428D01*
X218233333Y-103728571D01*
X218280952Y-103633333D01*
X218328571Y-103585714D01*
X218423809Y-103538095D01*
X218661904Y-103538095D01*
X218757142Y-103585714D01*
X218804761Y-103633333D01*
X218852380Y-103728571D01*
X218852380Y-104014285D01*
X218804761Y-104109523D01*
X218757142Y-104157142D01*
X204452380Y-106842857D02*
X203976190Y-107176190D01*
X204452380Y-107414285D02*
X203452380Y-107414285D01*
X203452380Y-107033333D01*
X203500000Y-106938095D01*
X203547619Y-106890476D01*
X203642857Y-106842857D01*
X203785714Y-106842857D01*
X203880952Y-106890476D01*
X203928571Y-106938095D01*
X203976190Y-107033333D01*
X203976190Y-107414285D01*
X204452380Y-105890476D02*
X204452380Y-106461904D01*
X204452380Y-106176190D02*
X203452380Y-106176190D01*
X203595238Y-106271428D01*
X203690476Y-106366666D01*
X203738095Y-106461904D01*
X203785714Y-105033333D02*
X204452380Y-105033333D01*
X203404761Y-105271428D02*
X204119047Y-105509523D01*
X204119047Y-104890476D01*
X190022380Y-99367857D02*
X189546190Y-99701190D01*
X190022380Y-99939285D02*
X189022380Y-99939285D01*
X189022380Y-99558333D01*
X189070000Y-99463095D01*
X189117619Y-99415476D01*
X189212857Y-99367857D01*
X189355714Y-99367857D01*
X189450952Y-99415476D01*
X189498571Y-99463095D01*
X189546190Y-99558333D01*
X189546190Y-99939285D01*
X190022380Y-98415476D02*
X190022380Y-98986904D01*
X190022380Y-98701190D02*
X189022380Y-98701190D01*
X189165238Y-98796428D01*
X189260476Y-98891666D01*
X189308095Y-98986904D01*
X189022380Y-97510714D02*
X189022380Y-97986904D01*
X189498571Y-98034523D01*
X189450952Y-97986904D01*
X189403333Y-97891666D01*
X189403333Y-97653571D01*
X189450952Y-97558333D01*
X189498571Y-97510714D01*
X189593809Y-97463095D01*
X189831904Y-97463095D01*
X189927142Y-97510714D01*
X189974761Y-97558333D01*
X190022380Y-97653571D01*
X190022380Y-97891666D01*
X189974761Y-97986904D01*
X189927142Y-98034523D01*
X194482380Y-99367857D02*
X194006190Y-99701190D01*
X194482380Y-99939285D02*
X193482380Y-99939285D01*
X193482380Y-99558333D01*
X193530000Y-99463095D01*
X193577619Y-99415476D01*
X193672857Y-99367857D01*
X193815714Y-99367857D01*
X193910952Y-99415476D01*
X193958571Y-99463095D01*
X194006190Y-99558333D01*
X194006190Y-99939285D01*
X194482380Y-98415476D02*
X194482380Y-98986904D01*
X194482380Y-98701190D02*
X193482380Y-98701190D01*
X193625238Y-98796428D01*
X193720476Y-98891666D01*
X193768095Y-98986904D01*
X193482380Y-97558333D02*
X193482380Y-97748809D01*
X193530000Y-97844047D01*
X193577619Y-97891666D01*
X193720476Y-97986904D01*
X193910952Y-98034523D01*
X194291904Y-98034523D01*
X194387142Y-97986904D01*
X194434761Y-97939285D01*
X194482380Y-97844047D01*
X194482380Y-97653571D01*
X194434761Y-97558333D01*
X194387142Y-97510714D01*
X194291904Y-97463095D01*
X194053809Y-97463095D01*
X193958571Y-97510714D01*
X193910952Y-97558333D01*
X193863333Y-97653571D01*
X193863333Y-97844047D01*
X193910952Y-97939285D01*
X193958571Y-97986904D01*
X194053809Y-98034523D01*
X195957142Y-112452380D02*
X195623809Y-111976190D01*
X195385714Y-112452380D02*
X195385714Y-111452380D01*
X195766666Y-111452380D01*
X195861904Y-111500000D01*
X195909523Y-111547619D01*
X195957142Y-111642857D01*
X195957142Y-111785714D01*
X195909523Y-111880952D01*
X195861904Y-111928571D01*
X195766666Y-111976190D01*
X195385714Y-111976190D01*
X196909523Y-112452380D02*
X196338095Y-112452380D01*
X196623809Y-112452380D02*
X196623809Y-111452380D01*
X196528571Y-111595238D01*
X196433333Y-111690476D01*
X196338095Y-111738095D01*
X197242857Y-111452380D02*
X197909523Y-111452380D01*
X197480952Y-112452380D01*
X173282142Y-106252380D02*
X172948809Y-105776190D01*
X172710714Y-106252380D02*
X172710714Y-105252380D01*
X173091666Y-105252380D01*
X173186904Y-105300000D01*
X173234523Y-105347619D01*
X173282142Y-105442857D01*
X173282142Y-105585714D01*
X173234523Y-105680952D01*
X173186904Y-105728571D01*
X173091666Y-105776190D01*
X172710714Y-105776190D01*
X174234523Y-106252380D02*
X173663095Y-106252380D01*
X173948809Y-106252380D02*
X173948809Y-105252380D01*
X173853571Y-105395238D01*
X173758333Y-105490476D01*
X173663095Y-105538095D01*
X174805952Y-105680952D02*
X174710714Y-105633333D01*
X174663095Y-105585714D01*
X174615476Y-105490476D01*
X174615476Y-105442857D01*
X174663095Y-105347619D01*
X174710714Y-105300000D01*
X174805952Y-105252380D01*
X174996428Y-105252380D01*
X175091666Y-105300000D01*
X175139285Y-105347619D01*
X175186904Y-105442857D01*
X175186904Y-105490476D01*
X175139285Y-105585714D01*
X175091666Y-105633333D01*
X174996428Y-105680952D01*
X174805952Y-105680952D01*
X174710714Y-105728571D01*
X174663095Y-105776190D01*
X174615476Y-105871428D01*
X174615476Y-106061904D01*
X174663095Y-106157142D01*
X174710714Y-106204761D01*
X174805952Y-106252380D01*
X174996428Y-106252380D01*
X175091666Y-106204761D01*
X175139285Y-106157142D01*
X175186904Y-106061904D01*
X175186904Y-105871428D01*
X175139285Y-105776190D01*
X175091666Y-105728571D01*
X174996428Y-105680952D01*
X173157142Y-120052380D02*
X172823809Y-119576190D01*
X172585714Y-120052380D02*
X172585714Y-119052380D01*
X172966666Y-119052380D01*
X173061904Y-119100000D01*
X173109523Y-119147619D01*
X173157142Y-119242857D01*
X173157142Y-119385714D01*
X173109523Y-119480952D01*
X173061904Y-119528571D01*
X172966666Y-119576190D01*
X172585714Y-119576190D01*
X174109523Y-120052380D02*
X173538095Y-120052380D01*
X173823809Y-120052380D02*
X173823809Y-119052380D01*
X173728571Y-119195238D01*
X173633333Y-119290476D01*
X173538095Y-119338095D01*
X174585714Y-120052380D02*
X174776190Y-120052380D01*
X174871428Y-120004761D01*
X174919047Y-119957142D01*
X175014285Y-119814285D01*
X175061904Y-119623809D01*
X175061904Y-119242857D01*
X175014285Y-119147619D01*
X174966666Y-119100000D01*
X174871428Y-119052380D01*
X174680952Y-119052380D01*
X174585714Y-119100000D01*
X174538095Y-119147619D01*
X174490476Y-119242857D01*
X174490476Y-119480952D01*
X174538095Y-119576190D01*
X174585714Y-119623809D01*
X174680952Y-119671428D01*
X174871428Y-119671428D01*
X174966666Y-119623809D01*
X175014285Y-119576190D01*
X175061904Y-119480952D01*
X173357142Y-107852380D02*
X173023809Y-107376190D01*
X172785714Y-107852380D02*
X172785714Y-106852380D01*
X173166666Y-106852380D01*
X173261904Y-106900000D01*
X173309523Y-106947619D01*
X173357142Y-107042857D01*
X173357142Y-107185714D01*
X173309523Y-107280952D01*
X173261904Y-107328571D01*
X173166666Y-107376190D01*
X172785714Y-107376190D01*
X173738095Y-106947619D02*
X173785714Y-106900000D01*
X173880952Y-106852380D01*
X174119047Y-106852380D01*
X174214285Y-106900000D01*
X174261904Y-106947619D01*
X174309523Y-107042857D01*
X174309523Y-107138095D01*
X174261904Y-107280952D01*
X173690476Y-107852380D01*
X174309523Y-107852380D01*
X174928571Y-106852380D02*
X175023809Y-106852380D01*
X175119047Y-106900000D01*
X175166666Y-106947619D01*
X175214285Y-107042857D01*
X175261904Y-107233333D01*
X175261904Y-107471428D01*
X175214285Y-107661904D01*
X175166666Y-107757142D01*
X175119047Y-107804761D01*
X175023809Y-107852380D01*
X174928571Y-107852380D01*
X174833333Y-107804761D01*
X174785714Y-107757142D01*
X174738095Y-107661904D01*
X174690476Y-107471428D01*
X174690476Y-107233333D01*
X174738095Y-107042857D01*
X174785714Y-106947619D01*
X174833333Y-106900000D01*
X174928571Y-106852380D01*
X247882142Y-94592380D02*
X247548809Y-94116190D01*
X247310714Y-94592380D02*
X247310714Y-93592380D01*
X247691666Y-93592380D01*
X247786904Y-93640000D01*
X247834523Y-93687619D01*
X247882142Y-93782857D01*
X247882142Y-93925714D01*
X247834523Y-94020952D01*
X247786904Y-94068571D01*
X247691666Y-94116190D01*
X247310714Y-94116190D01*
X248263095Y-93687619D02*
X248310714Y-93640000D01*
X248405952Y-93592380D01*
X248644047Y-93592380D01*
X248739285Y-93640000D01*
X248786904Y-93687619D01*
X248834523Y-93782857D01*
X248834523Y-93878095D01*
X248786904Y-94020952D01*
X248215476Y-94592380D01*
X248834523Y-94592380D01*
X249786904Y-94592380D02*
X249215476Y-94592380D01*
X249501190Y-94592380D02*
X249501190Y-93592380D01*
X249405952Y-93735238D01*
X249310714Y-93830476D01*
X249215476Y-93878095D01*
X241022380Y-92767857D02*
X240546190Y-93101190D01*
X241022380Y-93339285D02*
X240022380Y-93339285D01*
X240022380Y-92958333D01*
X240070000Y-92863095D01*
X240117619Y-92815476D01*
X240212857Y-92767857D01*
X240355714Y-92767857D01*
X240450952Y-92815476D01*
X240498571Y-92863095D01*
X240546190Y-92958333D01*
X240546190Y-93339285D01*
X240117619Y-92386904D02*
X240070000Y-92339285D01*
X240022380Y-92244047D01*
X240022380Y-92005952D01*
X240070000Y-91910714D01*
X240117619Y-91863095D01*
X240212857Y-91815476D01*
X240308095Y-91815476D01*
X240450952Y-91863095D01*
X241022380Y-92434523D01*
X241022380Y-91815476D01*
X240117619Y-91434523D02*
X240070000Y-91386904D01*
X240022380Y-91291666D01*
X240022380Y-91053571D01*
X240070000Y-90958333D01*
X240117619Y-90910714D01*
X240212857Y-90863095D01*
X240308095Y-90863095D01*
X240450952Y-90910714D01*
X241022380Y-91482142D01*
X241022380Y-90863095D01*
X242482142Y-110782380D02*
X242148809Y-110306190D01*
X241910714Y-110782380D02*
X241910714Y-109782380D01*
X242291666Y-109782380D01*
X242386904Y-109830000D01*
X242434523Y-109877619D01*
X242482142Y-109972857D01*
X242482142Y-110115714D01*
X242434523Y-110210952D01*
X242386904Y-110258571D01*
X242291666Y-110306190D01*
X241910714Y-110306190D01*
X242863095Y-109877619D02*
X242910714Y-109830000D01*
X243005952Y-109782380D01*
X243244047Y-109782380D01*
X243339285Y-109830000D01*
X243386904Y-109877619D01*
X243434523Y-109972857D01*
X243434523Y-110068095D01*
X243386904Y-110210952D01*
X242815476Y-110782380D01*
X243434523Y-110782380D01*
X243767857Y-109782380D02*
X244386904Y-109782380D01*
X244053571Y-110163333D01*
X244196428Y-110163333D01*
X244291666Y-110210952D01*
X244339285Y-110258571D01*
X244386904Y-110353809D01*
X244386904Y-110591904D01*
X244339285Y-110687142D01*
X244291666Y-110734761D01*
X244196428Y-110782380D01*
X243910714Y-110782380D01*
X243815476Y-110734761D01*
X243767857Y-110687142D01*
X227772380Y-112267857D02*
X227296190Y-112601190D01*
X227772380Y-112839285D02*
X226772380Y-112839285D01*
X226772380Y-112458333D01*
X226820000Y-112363095D01*
X226867619Y-112315476D01*
X226962857Y-112267857D01*
X227105714Y-112267857D01*
X227200952Y-112315476D01*
X227248571Y-112363095D01*
X227296190Y-112458333D01*
X227296190Y-112839285D01*
X226867619Y-111886904D02*
X226820000Y-111839285D01*
X226772380Y-111744047D01*
X226772380Y-111505952D01*
X226820000Y-111410714D01*
X226867619Y-111363095D01*
X226962857Y-111315476D01*
X227058095Y-111315476D01*
X227200952Y-111363095D01*
X227772380Y-111934523D01*
X227772380Y-111315476D01*
X227105714Y-110458333D02*
X227772380Y-110458333D01*
X226724761Y-110696428D02*
X227439047Y-110934523D01*
X227439047Y-110315476D01*
X242432142Y-115482380D02*
X242098809Y-115006190D01*
X241860714Y-115482380D02*
X241860714Y-114482380D01*
X242241666Y-114482380D01*
X242336904Y-114530000D01*
X242384523Y-114577619D01*
X242432142Y-114672857D01*
X242432142Y-114815714D01*
X242384523Y-114910952D01*
X242336904Y-114958571D01*
X242241666Y-115006190D01*
X241860714Y-115006190D01*
X242813095Y-114577619D02*
X242860714Y-114530000D01*
X242955952Y-114482380D01*
X243194047Y-114482380D01*
X243289285Y-114530000D01*
X243336904Y-114577619D01*
X243384523Y-114672857D01*
X243384523Y-114768095D01*
X243336904Y-114910952D01*
X242765476Y-115482380D01*
X243384523Y-115482380D01*
X244289285Y-114482380D02*
X243813095Y-114482380D01*
X243765476Y-114958571D01*
X243813095Y-114910952D01*
X243908333Y-114863333D01*
X244146428Y-114863333D01*
X244241666Y-114910952D01*
X244289285Y-114958571D01*
X244336904Y-115053809D01*
X244336904Y-115291904D01*
X244289285Y-115387142D01*
X244241666Y-115434761D01*
X244146428Y-115482380D01*
X243908333Y-115482380D01*
X243813095Y-115434761D01*
X243765476Y-115387142D01*
X214882142Y-111282380D02*
X214548809Y-110806190D01*
X214310714Y-111282380D02*
X214310714Y-110282380D01*
X214691666Y-110282380D01*
X214786904Y-110330000D01*
X214834523Y-110377619D01*
X214882142Y-110472857D01*
X214882142Y-110615714D01*
X214834523Y-110710952D01*
X214786904Y-110758571D01*
X214691666Y-110806190D01*
X214310714Y-110806190D01*
X215263095Y-110377619D02*
X215310714Y-110330000D01*
X215405952Y-110282380D01*
X215644047Y-110282380D01*
X215739285Y-110330000D01*
X215786904Y-110377619D01*
X215834523Y-110472857D01*
X215834523Y-110568095D01*
X215786904Y-110710952D01*
X215215476Y-111282380D01*
X215834523Y-111282380D01*
X216691666Y-110282380D02*
X216501190Y-110282380D01*
X216405952Y-110330000D01*
X216358333Y-110377619D01*
X216263095Y-110520476D01*
X216215476Y-110710952D01*
X216215476Y-111091904D01*
X216263095Y-111187142D01*
X216310714Y-111234761D01*
X216405952Y-111282380D01*
X216596428Y-111282380D01*
X216691666Y-111234761D01*
X216739285Y-111187142D01*
X216786904Y-111091904D01*
X216786904Y-110853809D01*
X216739285Y-110758571D01*
X216691666Y-110710952D01*
X216596428Y-110663333D01*
X216405952Y-110663333D01*
X216310714Y-110710952D01*
X216263095Y-110758571D01*
X216215476Y-110853809D01*
X223357142Y-97252380D02*
X223023809Y-96776190D01*
X222785714Y-97252380D02*
X222785714Y-96252380D01*
X223166666Y-96252380D01*
X223261904Y-96300000D01*
X223309523Y-96347619D01*
X223357142Y-96442857D01*
X223357142Y-96585714D01*
X223309523Y-96680952D01*
X223261904Y-96728571D01*
X223166666Y-96776190D01*
X222785714Y-96776190D01*
X223738095Y-96347619D02*
X223785714Y-96300000D01*
X223880952Y-96252380D01*
X224119047Y-96252380D01*
X224214285Y-96300000D01*
X224261904Y-96347619D01*
X224309523Y-96442857D01*
X224309523Y-96538095D01*
X224261904Y-96680952D01*
X223690476Y-97252380D01*
X224309523Y-97252380D01*
X224642857Y-96252380D02*
X225309523Y-96252380D01*
X224880952Y-97252380D01*
X216082142Y-95822380D02*
X215748809Y-95346190D01*
X215510714Y-95822380D02*
X215510714Y-94822380D01*
X215891666Y-94822380D01*
X215986904Y-94870000D01*
X216034523Y-94917619D01*
X216082142Y-95012857D01*
X216082142Y-95155714D01*
X216034523Y-95250952D01*
X215986904Y-95298571D01*
X215891666Y-95346190D01*
X215510714Y-95346190D01*
X216463095Y-94917619D02*
X216510714Y-94870000D01*
X216605952Y-94822380D01*
X216844047Y-94822380D01*
X216939285Y-94870000D01*
X216986904Y-94917619D01*
X217034523Y-95012857D01*
X217034523Y-95108095D01*
X216986904Y-95250952D01*
X216415476Y-95822380D01*
X217034523Y-95822380D01*
X217605952Y-95250952D02*
X217510714Y-95203333D01*
X217463095Y-95155714D01*
X217415476Y-95060476D01*
X217415476Y-95012857D01*
X217463095Y-94917619D01*
X217510714Y-94870000D01*
X217605952Y-94822380D01*
X217796428Y-94822380D01*
X217891666Y-94870000D01*
X217939285Y-94917619D01*
X217986904Y-95012857D01*
X217986904Y-95060476D01*
X217939285Y-95155714D01*
X217891666Y-95203333D01*
X217796428Y-95250952D01*
X217605952Y-95250952D01*
X217510714Y-95298571D01*
X217463095Y-95346190D01*
X217415476Y-95441428D01*
X217415476Y-95631904D01*
X217463095Y-95727142D01*
X217510714Y-95774761D01*
X217605952Y-95822380D01*
X217796428Y-95822380D01*
X217891666Y-95774761D01*
X217939285Y-95727142D01*
X217986904Y-95631904D01*
X217986904Y-95441428D01*
X217939285Y-95346190D01*
X217891666Y-95298571D01*
X217796428Y-95250952D01*
X210622380Y-107117857D02*
X210146190Y-107451190D01*
X210622380Y-107689285D02*
X209622380Y-107689285D01*
X209622380Y-107308333D01*
X209670000Y-107213095D01*
X209717619Y-107165476D01*
X209812857Y-107117857D01*
X209955714Y-107117857D01*
X210050952Y-107165476D01*
X210098571Y-107213095D01*
X210146190Y-107308333D01*
X210146190Y-107689285D01*
X209717619Y-106736904D02*
X209670000Y-106689285D01*
X209622380Y-106594047D01*
X209622380Y-106355952D01*
X209670000Y-106260714D01*
X209717619Y-106213095D01*
X209812857Y-106165476D01*
X209908095Y-106165476D01*
X210050952Y-106213095D01*
X210622380Y-106784523D01*
X210622380Y-106165476D01*
X210622380Y-105689285D02*
X210622380Y-105498809D01*
X210574761Y-105403571D01*
X210527142Y-105355952D01*
X210384285Y-105260714D01*
X210193809Y-105213095D01*
X209812857Y-105213095D01*
X209717619Y-105260714D01*
X209670000Y-105308333D01*
X209622380Y-105403571D01*
X209622380Y-105594047D01*
X209670000Y-105689285D01*
X209717619Y-105736904D01*
X209812857Y-105784523D01*
X210050952Y-105784523D01*
X210146190Y-105736904D01*
X210193809Y-105689285D01*
X210241428Y-105594047D01*
X210241428Y-105403571D01*
X210193809Y-105308333D01*
X210146190Y-105260714D01*
X210050952Y-105213095D01*
X218482380Y-93167857D02*
X218006190Y-93501190D01*
X218482380Y-93739285D02*
X217482380Y-93739285D01*
X217482380Y-93358333D01*
X217530000Y-93263095D01*
X217577619Y-93215476D01*
X217672857Y-93167857D01*
X217815714Y-93167857D01*
X217910952Y-93215476D01*
X217958571Y-93263095D01*
X218006190Y-93358333D01*
X218006190Y-93739285D01*
X217482380Y-92834523D02*
X217482380Y-92215476D01*
X217863333Y-92548809D01*
X217863333Y-92405952D01*
X217910952Y-92310714D01*
X217958571Y-92263095D01*
X218053809Y-92215476D01*
X218291904Y-92215476D01*
X218387142Y-92263095D01*
X218434761Y-92310714D01*
X218482380Y-92405952D01*
X218482380Y-92691666D01*
X218434761Y-92786904D01*
X218387142Y-92834523D01*
X217482380Y-91596428D02*
X217482380Y-91501190D01*
X217530000Y-91405952D01*
X217577619Y-91358333D01*
X217672857Y-91310714D01*
X217863333Y-91263095D01*
X218101428Y-91263095D01*
X218291904Y-91310714D01*
X218387142Y-91358333D01*
X218434761Y-91405952D01*
X218482380Y-91501190D01*
X218482380Y-91596428D01*
X218434761Y-91691666D01*
X218387142Y-91739285D01*
X218291904Y-91786904D01*
X218101428Y-91834523D01*
X217863333Y-91834523D01*
X217672857Y-91786904D01*
X217577619Y-91739285D01*
X217530000Y-91691666D01*
X217482380Y-91596428D01*
X222882380Y-90967857D02*
X222406190Y-91301190D01*
X222882380Y-91539285D02*
X221882380Y-91539285D01*
X221882380Y-91158333D01*
X221930000Y-91063095D01*
X221977619Y-91015476D01*
X222072857Y-90967857D01*
X222215714Y-90967857D01*
X222310952Y-91015476D01*
X222358571Y-91063095D01*
X222406190Y-91158333D01*
X222406190Y-91539285D01*
X221882380Y-90634523D02*
X221882380Y-90015476D01*
X222263333Y-90348809D01*
X222263333Y-90205952D01*
X222310952Y-90110714D01*
X222358571Y-90063095D01*
X222453809Y-90015476D01*
X222691904Y-90015476D01*
X222787142Y-90063095D01*
X222834761Y-90110714D01*
X222882380Y-90205952D01*
X222882380Y-90491666D01*
X222834761Y-90586904D01*
X222787142Y-90634523D01*
X222882380Y-89063095D02*
X222882380Y-89634523D01*
X222882380Y-89348809D02*
X221882380Y-89348809D01*
X222025238Y-89444047D01*
X222120476Y-89539285D01*
X222168095Y-89634523D01*
X209557142Y-94252380D02*
X209223809Y-93776190D01*
X208985714Y-94252380D02*
X208985714Y-93252380D01*
X209366666Y-93252380D01*
X209461904Y-93300000D01*
X209509523Y-93347619D01*
X209557142Y-93442857D01*
X209557142Y-93585714D01*
X209509523Y-93680952D01*
X209461904Y-93728571D01*
X209366666Y-93776190D01*
X208985714Y-93776190D01*
X209890476Y-93252380D02*
X210509523Y-93252380D01*
X210176190Y-93633333D01*
X210319047Y-93633333D01*
X210414285Y-93680952D01*
X210461904Y-93728571D01*
X210509523Y-93823809D01*
X210509523Y-94061904D01*
X210461904Y-94157142D01*
X210414285Y-94204761D01*
X210319047Y-94252380D01*
X210033333Y-94252380D01*
X209938095Y-94204761D01*
X209890476Y-94157142D01*
X210890476Y-93347619D02*
X210938095Y-93300000D01*
X211033333Y-93252380D01*
X211271428Y-93252380D01*
X211366666Y-93300000D01*
X211414285Y-93347619D01*
X211461904Y-93442857D01*
X211461904Y-93538095D01*
X211414285Y-93680952D01*
X210842857Y-94252380D01*
X211461904Y-94252380D01*
X223482142Y-90222380D02*
X223148809Y-89746190D01*
X222910714Y-90222380D02*
X222910714Y-89222380D01*
X223291666Y-89222380D01*
X223386904Y-89270000D01*
X223434523Y-89317619D01*
X223482142Y-89412857D01*
X223482142Y-89555714D01*
X223434523Y-89650952D01*
X223386904Y-89698571D01*
X223291666Y-89746190D01*
X222910714Y-89746190D01*
X223815476Y-89222380D02*
X224434523Y-89222380D01*
X224101190Y-89603333D01*
X224244047Y-89603333D01*
X224339285Y-89650952D01*
X224386904Y-89698571D01*
X224434523Y-89793809D01*
X224434523Y-90031904D01*
X224386904Y-90127142D01*
X224339285Y-90174761D01*
X224244047Y-90222380D01*
X223958333Y-90222380D01*
X223863095Y-90174761D01*
X223815476Y-90127142D01*
X224767857Y-89222380D02*
X225386904Y-89222380D01*
X225053571Y-89603333D01*
X225196428Y-89603333D01*
X225291666Y-89650952D01*
X225339285Y-89698571D01*
X225386904Y-89793809D01*
X225386904Y-90031904D01*
X225339285Y-90127142D01*
X225291666Y-90174761D01*
X225196428Y-90222380D01*
X224910714Y-90222380D01*
X224815476Y-90174761D01*
X224767857Y-90127142D01*
X229108095Y-90312380D02*
X229108095Y-91121904D01*
X229155714Y-91217142D01*
X229203333Y-91264761D01*
X229298571Y-91312380D01*
X229489047Y-91312380D01*
X229584285Y-91264761D01*
X229631904Y-91217142D01*
X229679523Y-91121904D01*
X229679523Y-90312380D01*
X230679523Y-91312380D02*
X230108095Y-91312380D01*
X230393809Y-91312380D02*
X230393809Y-90312380D01*
X230298571Y-90455238D01*
X230203333Y-90550476D01*
X230108095Y-90598095D01*
X201838095Y-96132380D02*
X201838095Y-96941904D01*
X201885714Y-97037142D01*
X201933333Y-97084761D01*
X202028571Y-97132380D01*
X202219047Y-97132380D01*
X202314285Y-97084761D01*
X202361904Y-97037142D01*
X202409523Y-96941904D01*
X202409523Y-96132380D01*
X202838095Y-96227619D02*
X202885714Y-96180000D01*
X202980952Y-96132380D01*
X203219047Y-96132380D01*
X203314285Y-96180000D01*
X203361904Y-96227619D01*
X203409523Y-96322857D01*
X203409523Y-96418095D01*
X203361904Y-96560952D01*
X202790476Y-97132380D01*
X203409523Y-97132380D01*
X165522380Y-81941904D02*
X166331904Y-81941904D01*
X166427142Y-81894285D01*
X166474761Y-81846666D01*
X166522380Y-81751428D01*
X166522380Y-81560952D01*
X166474761Y-81465714D01*
X166427142Y-81418095D01*
X166331904Y-81370476D01*
X165522380Y-81370476D01*
X165522380Y-80989523D02*
X165522380Y-80370476D01*
X165903333Y-80703809D01*
X165903333Y-80560952D01*
X165950952Y-80465714D01*
X165998571Y-80418095D01*
X166093809Y-80370476D01*
X166331904Y-80370476D01*
X166427142Y-80418095D01*
X166474761Y-80465714D01*
X166522380Y-80560952D01*
X166522380Y-80846666D01*
X166474761Y-80941904D01*
X166427142Y-80989523D01*
X218652380Y-103961904D02*
X219461904Y-103961904D01*
X219557142Y-103914285D01*
X219604761Y-103866666D01*
X219652380Y-103771428D01*
X219652380Y-103580952D01*
X219604761Y-103485714D01*
X219557142Y-103438095D01*
X219461904Y-103390476D01*
X218652380Y-103390476D01*
X218985714Y-102485714D02*
X219652380Y-102485714D01*
X218604761Y-102723809D02*
X219319047Y-102961904D01*
X219319047Y-102342857D01*
X187326190Y-101413690D02*
X187802380Y-101413690D01*
X186802380Y-101747023D02*
X187326190Y-101413690D01*
X186802380Y-101080357D01*
X187802380Y-100223214D02*
X187802380Y-100794642D01*
X187802380Y-100508928D02*
X186802380Y-100508928D01*
X186945238Y-100604166D01*
X187040476Y-100699404D01*
X187088095Y-100794642D01*
X223386309Y-112626190D02*
X223386309Y-113102380D01*
X223052976Y-112102380D02*
X223386309Y-112626190D01*
X223719642Y-112102380D01*
X224005357Y-112197619D02*
X224052976Y-112150000D01*
X224148214Y-112102380D01*
X224386309Y-112102380D01*
X224481547Y-112150000D01*
X224529166Y-112197619D01*
X224576785Y-112292857D01*
X224576785Y-112388095D01*
X224529166Y-112530952D01*
X223957738Y-113102380D01*
X224576785Y-113102380D01*
X227482142Y-99177142D02*
X227434523Y-99224761D01*
X227291666Y-99272380D01*
X227196428Y-99272380D01*
X227053571Y-99224761D01*
X226958333Y-99129523D01*
X226910714Y-99034285D01*
X226863095Y-98843809D01*
X226863095Y-98700952D01*
X226910714Y-98510476D01*
X226958333Y-98415238D01*
X227053571Y-98320000D01*
X227196428Y-98272380D01*
X227291666Y-98272380D01*
X227434523Y-98320000D01*
X227482142Y-98367619D01*
X227863095Y-98367619D02*
X227910714Y-98320000D01*
X228005952Y-98272380D01*
X228244047Y-98272380D01*
X228339285Y-98320000D01*
X228386904Y-98367619D01*
X228434523Y-98462857D01*
X228434523Y-98558095D01*
X228386904Y-98700952D01*
X227815476Y-99272380D01*
X228434523Y-99272380D01*
X229005952Y-98700952D02*
X228910714Y-98653333D01*
X228863095Y-98605714D01*
X228815476Y-98510476D01*
X228815476Y-98462857D01*
X228863095Y-98367619D01*
X228910714Y-98320000D01*
X229005952Y-98272380D01*
X229196428Y-98272380D01*
X229291666Y-98320000D01*
X229339285Y-98367619D01*
X229386904Y-98462857D01*
X229386904Y-98510476D01*
X229339285Y-98605714D01*
X229291666Y-98653333D01*
X229196428Y-98700952D01*
X229005952Y-98700952D01*
X228910714Y-98748571D01*
X228863095Y-98796190D01*
X228815476Y-98891428D01*
X228815476Y-99081904D01*
X228863095Y-99177142D01*
X228910714Y-99224761D01*
X229005952Y-99272380D01*
X229196428Y-99272380D01*
X229291666Y-99224761D01*
X229339285Y-99177142D01*
X229386904Y-99081904D01*
X229386904Y-98891428D01*
X229339285Y-98796190D01*
X229291666Y-98748571D01*
X229196428Y-98700952D01*
X207852380Y-101290476D02*
X207376190Y-101623809D01*
X207852380Y-101861904D02*
X206852380Y-101861904D01*
X206852380Y-101480952D01*
X206900000Y-101385714D01*
X206947619Y-101338095D01*
X207042857Y-101290476D01*
X207185714Y-101290476D01*
X207280952Y-101338095D01*
X207328571Y-101385714D01*
X207376190Y-101480952D01*
X207376190Y-101861904D01*
X207852380Y-100861904D02*
X206852380Y-100861904D01*
X207852380Y-100290476D01*
X206852380Y-100290476D01*
X207852380Y-99290476D02*
X207852380Y-99861904D01*
X207852380Y-99576190D02*
X206852380Y-99576190D01*
X206995238Y-99671428D01*
X207090476Y-99766666D01*
X207138095Y-99861904D01*
X224252380Y-94690476D02*
X223776190Y-95023809D01*
X224252380Y-95261904D02*
X223252380Y-95261904D01*
X223252380Y-94880952D01*
X223300000Y-94785714D01*
X223347619Y-94738095D01*
X223442857Y-94690476D01*
X223585714Y-94690476D01*
X223680952Y-94738095D01*
X223728571Y-94785714D01*
X223776190Y-94880952D01*
X223776190Y-95261904D01*
X224252380Y-94261904D02*
X223252380Y-94261904D01*
X224252380Y-93690476D01*
X223252380Y-93690476D01*
X223347619Y-93261904D02*
X223300000Y-93214285D01*
X223252380Y-93119047D01*
X223252380Y-92880952D01*
X223300000Y-92785714D01*
X223347619Y-92738095D01*
X223442857Y-92690476D01*
X223538095Y-92690476D01*
X223680952Y-92738095D01*
X224252380Y-93309523D01*
X224252380Y-92690476D01*
M02*
