M48
; DRILL file {KiCad (5.1.2-1)-1} date Friday, June 14, 2019 at 07:54:27 PM
; FORMAT={-:-/ absolute / inch / decimal}
; #@! TF.CreationDate,2019-06-14T19:54:27-04:00
; #@! TF.GenerationSoftware,Kicad,Pcbnew,(5.1.2-1)-1
; #@! TF.FileFunction,Plated,1,4,PTH
FMAT,2
INCH
T1C0.0079
T2C0.0118
T3C0.0157
T4C0.0315
T5C0.0354
T6C0.0394
T7C0.0402
T8C0.0472
T9C0.0642
%
G90
G05
T1
X8.7402Y-4.0157
X8.7402Y-4.0551
X8.7402Y-4.0945
X8.7795Y-4.0157
X8.7795Y-4.0551
X8.7795Y-4.0945
X8.8189Y-4.0157
X8.8189Y-4.0551
X8.8189Y-4.0945
X7.937Y-3.937
X7.937Y-3.9764
X7.937Y-4.0157
X7.9764Y-3.937
X7.9764Y-3.9764
X7.9764Y-4.0157
X8.0157Y-3.937
X8.0157Y-3.9764
X8.0157Y-4.0157
T2
X6.8189Y-4.0866
X6.8189Y-4.1575
X7.1575Y-3.9606
X7.4646Y-4.0236
X7.5197Y-3.8031
X7.5669Y-4.1102
X7.5827Y-3.8031
X7.6535Y-4.0551
X7.6693Y-4.0866
X7.6762Y-3.7832
X7.6772Y-4.0236
X7.6929Y-4.3543
X7.7402Y-3.6693
X7.7559Y-4.1654
X7.7874Y-3.5748
X7.7953Y-3.811
X7.8268Y-4.3228
X7.8504Y-4.0945
X7.8583Y-3.7559
X7.8661Y-4.4016
X7.874Y-4.189
X7.8898Y-3.7795
X7.9134Y-4.1417
X7.94Y-3.8029
X7.9449Y-4.4016
X7.9528Y-4.2441
X7.9685Y-3.6535
X7.9921Y-4.1732
X8.0787Y-3.6614
X8.0894Y-3.798
X8.1102Y-4.1102
X8.1366Y-3.9143
X8.1567Y-4.1112
X8.174Y-3.8905
X8.1882Y-4.1112
X8.1969Y-4.3543
X8.2283Y-4.2913
X8.2362Y-3.811
X8.2756Y-4.0709
X8.2756Y-4.1575
X8.2992Y-4.2677
X8.3543Y-3.7953
X8.4016Y-4.2126
X8.409Y-4.182
X8.4094Y-4.3071
X8.4126Y-4.2421
X8.4331Y-4.1339
X8.4488Y-3.8189
X8.5197Y-3.8661
X8.5276Y-3.5591
X8.5669Y-4.1654
X8.5669Y-4.2205
X8.5748Y-3.8661
X8.622Y-3.8346
X8.622Y-4.0787
X8.6281Y-4.1128
X8.6378Y-3.5906
X8.6614Y-4.2205
X8.6614Y-4.2835
X8.6614Y-4.3465
X8.6614Y-4.4094
X8.6619Y-4.1341
X8.685Y-4.1555
X8.7383Y-3.9141
X8.8189Y-4.2283
X8.9213Y-3.8976
X9.0079Y-3.2047
X9.4646Y-3.6614
X9.4803Y-4.4016
T3
X8.7008Y-3.4646
X8.8268Y-4.685
X8.9272Y-3.999
X8.9967Y-3.897
X9.0059Y-4.4882
X9.0079Y-3.4094
X9.0551Y-4.3307
X9.0945Y-3.4252
X9.2717Y-3.2283
X9.2717Y-3.4843
X9.2717Y-3.6024
X9.3307Y-3.3268
X9.3701Y-3.2283
X9.3701Y-3.6024
X9.4685Y-3.2283
X9.4685Y-3.3465
X9.4685Y-3.6024
X9.5669Y-3.2283
X9.5669Y-3.3858
X9.5669Y-3.6024
X9.6654Y-3.2283
X9.6654Y-3.4055
X9.6654Y-3.6024
T4
X6.6299Y-2.8961
X6.6299Y-3.4961
X6.7299Y-2.8961
X6.7299Y-3.4961
X6.8299Y-2.8961
X6.8299Y-3.4961
X6.9299Y-2.8961
X6.9299Y-3.4961
X7.0299Y-2.8961
X7.0299Y-3.4961
X7.1299Y-2.8961
X7.1299Y-3.4961
X7.2299Y-2.8961
X7.2299Y-3.4961
X7.3299Y-2.8961
X7.3299Y-3.4961
X7.4299Y-2.8961
X7.4299Y-3.4961
X7.5299Y-2.8961
X7.5299Y-3.4961
X7.6299Y-2.8961
X7.6299Y-3.4961
X7.7299Y-2.8961
X7.7299Y-3.4961
X7.8299Y-2.8961
X7.8299Y-3.4961
X7.9299Y-2.8961
X7.9299Y-3.4961
X8.0299Y-2.8961
X8.0299Y-3.4961
X8.1299Y-2.8961
X8.1299Y-3.4961
X8.2299Y-2.8961
X8.2299Y-3.4961
X8.3299Y-2.8961
X8.3299Y-3.4961
X8.4299Y-2.8961
X8.4299Y-3.4961
X8.5299Y-2.8961
X8.5299Y-3.4961
T5
X9.15Y-3.8504
X9.15Y-3.9504
X9.15Y-4.0504
X9.15Y-4.1504
X9.25Y-3.9
X9.25Y-4.0
X9.25Y-4.1
X9.25Y-4.2
T6
X8.0496Y-4.6772
X8.1496Y-4.6772
X8.2496Y-4.6772
X9.0Y-3.1181
X9.1Y-3.1181
X8.0496Y-4.5276
X8.1496Y-4.5276
X8.2496Y-4.5276
T7
X9.6933Y-3.7644
X9.6933Y-3.8644
X9.6933Y-4.186
X9.6933Y-4.286
T8
X6.7559Y-4.374
X6.7559Y-4.5709
T9
X9.3803Y-3.7203
X9.3803Y-4.3301
T0
M30
